<?xml version="1.0" standalone="no"?>
<!DOCTYPE svg PUBLIC "-//W3C//DTD SVG 20010904//EN"
 "http://www.w3.org/TR/2001/REC-SVG-20010904/DTD/svg10.dtd">
<svg version="1.0" xmlns="http://www.w3.org/2000/svg"
 width="319.000000pt" height="319.000000pt" viewBox="0 0 319.000000 319.000000"
 preserveAspectRatio="xMidYMid meet">
<metadata>
Created by potrace 1.11, written by Peter Selinger 2001-2013
</metadata>
<g transform="translate(0.000000,319.000000) scale(0.100000,-0.100000)"
fill="#000000" stroke="none">
<path d="M2653 3155 c-164 -46 -309 -159 -456 -358 l-78 -104 -227 -6 c-316
-7 -472 -37 -657 -127 -186 -91 -299 -198 -380 -363 l-43 -88 -119 -59 c-310
-153 -536 -411 -614 -705 -18 -67 -22 -115 -25 -295 -2 -124 1 -247 7 -290 61
-415 430 -662 874 -585 217 38 413 161 578 363 165 201 469 809 526 1050 16
70 20 77 47 84 16 4 119 52 229 106 212 105 247 131 286 216 35 76 22 147 -36
201 l-33 32 68 12 c229 41 419 241 491 516 34 135 11 222 -85 313 -77 73 -124
94 -221 98 -51 3 -99 -1 -132 -11z m162 -96 c91 -25 139 -88 138 -184 -2 -200
-230 -370 -564 -419 -77 -12 -184 -16 -380 -16 -289 0 -402 -11 -549 -51 -181
-50 -325 -149 -388 -267 -18 -33 -32 -64 -32 -70 0 -6 22 -13 49 -17 61 -8
156 -52 204 -94 56 -49 116 -147 139 -227 l21 -72 62 53 c70 59 161 123 220
153 34 17 45 31 74 99 19 43 72 157 119 254 l84 177 82 -5 c44 -3 82 -6 83 -7
0 0 -43 -91 -98 -201 -54 -110 -99 -203 -99 -207 0 -11 131 38 239 88 52 24
95 43 97 41 2 -1 6 -39 10 -83 l7 -81 -89 -37 c-49 -21 -147 -57 -218 -81 -70
-24 -130 -46 -132 -48 -2 -2 -38 -77 -79 -168 -297 -644 -527 -931 -830 -1035
-104 -36 -300 -45 -409 -20 -159 37 -309 154 -380 294 -54 108 -69 183 -64
332 4 108 9 138 38 222 65 194 206 371 395 497 91 61 229 130 239 120 2 -2 6
-37 7 -76 l4 -73 -77 -44 c-112 -63 -167 -106 -255 -200 -133 -140 -203 -305
-203 -477 0 -144 44 -253 138 -341 87 -82 188 -118 327 -118 269 1 473 151
689 510 75 124 219 410 211 418 -12 13 -201 -193 -235 -256 -38 -72 -90 -122
-126 -122 -34 0 -74 42 -74 77 0 15 19 57 41 92 48 76 61 139 47 226 -23 144
-105 240 -230 269 -34 8 -36 -8 -8 -63 20 -40 56 -74 108 -102 64 -35 45 -130
-27 -137 -67 -7 -180 91 -228 195 -32 69 -43 210 -23 294 61 261 324 446 713
503 70 11 178 16 326 16 121 0 221 4 221 9 0 23 166 234 237 302 152 145 290
196 428 158z m-1060 -1054 c-25 -60 -33 -69 -99 -112 -39 -25 -80 -52 -92 -60
-20 -13 -23 -10 -59 49 -21 35 -49 75 -62 89 l-24 26 43 16 c88 33 299 73 317
60 2 -1 -8 -32 -24 -68z m-866 -603 c46 -71 152 -156 218 -174 57 -16 73 -46
50 -93 -21 -43 -22 -130 -3 -167 13 -25 12 -28 -23 -61 -169 -163 -452 -188
-599 -54 -24 23 -55 64 -69 91 -23 45 -24 53 -13 90 7 23 28 73 48 111 45 87
188 233 281 287 36 21 66 36 68 35 1 -2 21 -31 42 -65z"/>
<path d="M2657 2906 c-46 -17 -104 -55 -159 -104 -45 -41 -158 -178 -158 -192
0 -19 181 27 274 69 140 63 236 202 160 231 -34 13 -71 12 -117 -4z"/>
</g>
</svg>
