<?xml version="1.0" standalone="no"?>
<!DOCTYPE svg PUBLIC "-//W3C//DTD SVG 1.1//EN" "http://www.w3.org/Graphics/SVG/1.1/DTD/svg11.dtd" >
<svg xmlns="http://www.w3.org/2000/svg">
<metadata>Generated by IcoMoon</metadata>
<defs>
<font id="icons" horiz-adv-x="1024">
<font-face units-per-em="1024" ascent="960" descent="-64" />
<missing-glyph horiz-adv-x="1024" />
<glyph unicode="&#x20;" horiz-adv-x="512" d="" />
<glyph unicode="&#xe900;" glyph-name="news" d="M928 960h-704c-53.024 0-96-42.944-96-96v-64h-32c-53.024 0-96-42.944-96-96v-640c0-70.688 57.312-128 128-128h768c70.688 0 128 57.312 128 128v800c0 53.056-43.008 96-96 96zM960 64c0-35.264-28.736-64-64-64h-768c-35.296 0-64 28.736-64 64v640c0 17.664 14.336 32 32 32h32v-640c0-17.696 14.304-32 32-32s32 14.304 32 32v768c0 17.664 14.336 32 32 32h704c17.632 0 32-14.336 32-32v-800zM623.936 543.84c-8.8 0-16 7.168-16 16s7.2 16 16 16h256c8.864 0 16-7.168 16-16s-7.136-16-16-16h-256zM623.936 639.84c-8.8 0-16 7.168-16 16s7.2 16 16 16h256c8.864 0 16-7.168 16-16s-7.136-16-16-16h-256zM623.936 735.84c-8.8 0-16 7.168-16 16s7.2 16 16 16h256c8.864 0 16-7.168 16-16s-7.136-16-16-16h-256zM528 95.872c8.832 0 16-7.2 16-16 0-8.864-7.2-16-16-16h-256c-8.832 0-16 7.136-16 16 0 8.8 7.168 16 16 16h256zM528 191.872c8.832 0 16-7.2 16-16 0-8.864-7.2-16-16-16h-256c-8.832 0-16 7.136-16 16 0 8.8 7.168 16 16 16h256zM528 287.872c8.832 0 16-7.2 16-16 0-8.864-7.2-16-16-16h-256c-8.832 0-16 7.136-16 16 0 8.8 7.168 16 16 16h256zM880 95.872c8.8 0 16-7.2 16-16 0-8.864-7.2-16-16-16h-256c-8.864 0-16 7.136-16 16 0 8.8 7.136 16 16 16h256zM880 191.872c8.8 0 16-7.2 16-16 0-8.864-7.2-16-16-16h-256c-8.864 0-16 7.136-16 16 0 8.8 7.136 16 16 16h256zM880 287.872c8.8 0 16-7.2 16-16 0-8.864-7.2-16-16-16h-256c-8.864 0-16 7.136-16 16 0 8.8 7.136 16 16 16h256zM880 479.872c8.8 0 16-7.168 16-16s-7.2-16-16-16h-608c-8.832 0-16 7.168-16 16s7.168 16 16 16h608zM880 383.872c8.8 0 16-7.2 16-16 0-8.864-7.2-16-16-16h-608c-8.832 0-16 7.136-16 16 0 8.8 7.168 16 16 16h608zM288 544h224c17.696 0 32 14.304 32 32v223.872c0 17.696-14.304 32-32 32h-224c-17.696 0-32-14.304-32-32v-223.872c0-17.664 14.304-32 32-32zM320 768h160v-160h-160v160z" />
<glyph unicode="&#xe901;" glyph-name="dots" d="M512.055 570.435c-67.617 0-122.49-54.817-122.49-122.435s54.873-122.435 122.49-122.435c67.617 0 122.379 54.817 122.379 122.435s-54.762 122.435-122.379 122.435zM122.49 570.435c-67.617 0-122.49-54.817-122.49-122.435s54.873-122.435 122.49-122.435c67.617 0 122.379 54.873 122.379 122.435s-54.762 122.435-122.379 122.435zM901.621 570.435c-67.617 0-122.49-54.817-122.49-122.435s54.873-122.435 122.49-122.435c67.617 0 122.379 54.817 122.379 122.435s-54.762 122.435-122.379 122.435z" />
<glyph unicode="&#xe902;" glyph-name="arrow-right-circle" d="M512 917.333c-260.267 0-469.333-209.067-469.333-469.333s209.067-469.333 469.333-469.333 469.333 209.067 469.333 469.333-209.067 469.333-469.333 469.333zM512 64c-213.333 0-384 170.667-384 384s170.667 384 384 384c213.333 0 384-170.667 384-384s-170.667-384-384-384zM721.067 465.067c-4.267 4.267-4.267 8.533-8.533 12.8l-170.667 170.667c-17.067 17.067-42.667 17.067-59.733 0s-17.067-42.667 0-59.733l98.133-98.133h-238.933c-25.6 0-42.667-17.067-42.667-42.667s17.067-42.667 42.667-42.667h238.933l-98.133-98.133c-17.067-17.067-17.067-42.667 0-59.733 8.533-8.533 21.333-12.8 29.867-12.8s21.333 4.267 29.867 12.8l170.667 170.667c4.267 4.267 8.533 8.533 8.533 12.8 4.267 12.8 4.267 21.333 0 34.133z" />
<glyph unicode="&#xe903;" glyph-name="challenge" d="M852.621 619.377c0 187.343-153.281 340.623-340.623 340.623s-340.623-153.281-340.623-340.623c0-110.702 51.094-208.632 131.992-268.241l-46.835-366.17c-4.258-17.032 4.258-34.062 17.032-42.578s29.805-8.515 46.835 0l191.601 114.961 191.601-114.961c4.258-4.258 12.773-4.258 21.289-4.258s17.032 4.258 21.289 8.515 21.289 25.547 17.032 42.578l-46.835 361.913c85.156 59.609 136.249 157.539 136.249 268.241zM256.53 619.377c0 140.507 114.961 255.468 255.468 255.468s255.468-114.961 255.468-255.468-114.961-255.468-255.468-255.468-255.468 114.961-255.468 255.468zM669.537 61.603l-136.249 80.898c-12.773 8.515-29.805 8.515-42.578 0l-136.249-80.898 29.805 242.694c38.32-17.032 80.898-25.547 127.734-25.547s89.414 8.515 127.734 25.547l29.805-242.694z" />
<glyph unicode="&#xe904;" glyph-name="edit" d="M884.363 368.871c-27.927 0-46.546-18.619-46.546-46.546v-246.69c0-27.927-18.619-46.546-46.546-46.546h-651.635c-27.927 0-46.546 18.619-46.546 46.546v651.635c0 27.927 18.619 46.546 46.546 46.546h246.69c27.927 0 46.546 18.619 46.546 46.546s-18.619 46.546-46.546 46.546h-246.69c-79.127 0-139.636-60.509-139.636-139.636v-651.635c0-79.127 60.509-139.636 139.636-139.636h651.635c79.127 0 139.636 60.509 139.636 139.636v246.69c0 27.927-18.619 46.546-46.546 46.546zM1010.035 759.852l-186.182 186.182c-18.619 18.619-46.546 18.619-65.163 0l-465.454-465.454c-9.309-9.309-13.964-18.619-13.964-32.582v-186.182c0-27.927 18.619-46.546 46.546-46.546h186.182c13.964 0 23.272 4.655 32.582 13.964l465.454 465.454c18.619 18.619 18.619 46.546 0 65.163zM493.381 308.362h-121.018v121.018l418.908 418.908 121.018-121.018-418.908-418.908z" />
<glyph unicode="&#xe905;" d="M0 960h1024v-1024h-1024v1024z" />
<glyph unicode="&#xe906;" glyph-name="facebook" d="M767.085 680.726c27.927 0 46.546 18.619 46.546 46.546v186.182c0 27.927-18.619 46.546-46.546 46.546h-139.636c-153.6 0-279.272-125.673-279.272-279.272v-93.090h-93.090c-27.927 0-46.546-18.619-46.546-46.546v-186.182c0-27.927 18.619-46.546 46.546-46.546h93.090v-325.818c0-27.927 18.619-46.546 46.546-46.546h186.182c27.927 0 46.546 18.619 46.546 46.546v325.818h93.090c23.272 0 41.891 13.964 46.546 37.236l46.546 186.182c4.655 13.964 0 27.927-9.309 41.891s-23.272 13.964-37.236 13.964h-139.636v93.090h139.636zM580.903 494.545h125.673l-23.272-93.090h-102.4c-27.927 0-46.546-18.619-46.546-46.546v-325.818h-93.090v325.818c0 27.927-18.619 46.546-46.546 46.546h-93.090v93.090h93.090c27.927 0 46.546 18.619 46.546 46.546v139.636c0 102.4 83.782 186.182 186.182 186.182h93.090v-93.090h-93.090c-51.2 0-93.090-41.891-93.090-93.090v-139.636c0-27.927 18.619-46.546 46.546-46.546z" />
<glyph unicode="&#xe907;" glyph-name="instagram" d="M744.727 960h-465.455c-153.6 0-279.273-125.673-279.273-279.273v-465.455c0-153.6 125.673-279.273 279.273-279.273h465.455c153.6 0 279.273 125.673 279.273 279.273v465.455c0 153.6-125.673 279.273-279.273 279.273zM930.909 215.274c0-102.4-83.782-186.182-186.182-186.182h-465.455c-102.4 0-186.182 83.782-186.182 186.182v465.455c0 102.4 83.782 186.182 186.182 186.182h465.455c102.4 0 186.182-83.782 186.182-186.182v-465.455zM549.237 680.727c-23.272 4.655-46.546 4.655-69.818 0-125.673-18.619-214.109-139.636-195.491-265.309 9.309-60.509 41.891-116.364 93.091-153.6 41.891-27.927 88.437-46.546 139.636-46.546 9.309 0 23.272 0 32.582 4.655 60.509 9.309 116.364 41.891 153.6 93.091s51.2 111.709 41.891 172.218c-13.964 102.4-93.091 181.527-195.491 195.491zM628.364 368.874c-23.272-27.927-55.855-51.2-93.091-55.855-74.473-9.309-148.945 41.891-158.255 116.364-13.964 74.473 41.891 148.945 116.364 158.255 4.655 0 13.964 0 18.619 0s13.964 0 18.619 0c60.509-9.309 107.054-55.855 116.364-116.364 9.309-37.236 0-74.473-18.619-102.4zM735.419 736.582c-9.309-9.309-13.964-18.619-13.964-32.582s4.655-23.272 13.964-32.582c9.309-9.309 23.272-13.964 32.582-13.964 13.964 0 23.272 4.655 32.582 13.964s13.964 23.272 13.964 32.582c0 13.964-4.655 23.272-13.964 32.582-18.619 18.619-46.546 18.619-65.163 0z" />
<glyph unicode="&#xe908;" glyph-name="link" d="M934.947 879.435c-107.42 107.42-280.228 107.42-387.648 0l-84.069-79.397c-18.682-18.682-18.682-46.705 0-65.386s46.705-18.682 65.386 0l79.397 79.397c74.728 70.057 186.819 70.057 261.546 0s74.728-191.489 4.671-261.546l-140.114-140.114c-4.671-4.671-14.012-14.012-18.682-18.682-84.069-60.717-200.83-46.705-261.546 37.364-14.012 18.682-46.705 23.352-65.386 9.34s-23.352-46.705-9.34-65.386c56.045-74.728 140.114-112.091 224.182-112.091 56.045 0 116.762 18.682 168.137 56.045 9.34 9.34 18.682 18.682 32.693 28.023l140.114 140.114c107.42 107.42 102.75 289.568-9.34 392.319zM486.582 164.854l-79.397-79.397c-74.728-70.057-186.819-70.057-261.546 0s-74.728 191.489-4.671 261.546l140.114 140.114c4.671 4.671 14.012 14.012 18.682 18.682 42.034 28.023 88.739 42.034 140.114 37.364 51.375-9.34 93.409-32.693 121.432-74.728 14.012-18.682 46.705-23.352 65.386-9.34s23.352 46.705 9.34 65.386c-46.705 60.717-112.091 98.080-182.149 107.42-70.057 14.012-144.785-4.671-205.501-51.375-9.34-9.34-18.682-18.682-28.023-28.023l-140.114-140.114c-107.42-112.091-102.75-289.568 4.671-396.99 56.045-51.375 126.102-79.397 196.159-79.397s140.114 28.023 196.159 79.397l79.397 79.397c18.682 18.682 18.682 46.705 0 65.386s-51.375 23.352-70.057 4.671z" />
<glyph unicode="&#xe909;" glyph-name="twitter" d="M1005.863 863.087c-12.773 8.515-34.060 8.515-46.833 0-29.803-21.287-63.863-38.318-97.923-51.090-85.15 76.636-217.134 80.893-306.542 4.258-55.348-46.833-85.15-110.696-85.15-178.816-123.468 8.515-234.165 72.378-306.542 174.559-8.515 12.773-21.287 17.030-38.318 17.030s-29.803-12.773-34.060-25.545c-4.258-4.258-46.833-106.439-42.576-229.907 4.258-106.439 46.833-242.679 204.362-340.602-63.863-29.803-136.241-42.576-208.62-42.576-17.030 0-38.318-12.773-42.576-29.803s4.258-38.318 21.287-46.833c106.439-59.605 221.392-89.408 327.83-89.408s208.62 25.545 302.285 80.893c183.074 102.181 285.255 298.028 285.255 532.191 0 8.515 0 12.773 0 21.287 42.576 46.833 72.378 102.181 85.15 161.786 4.258 17.030-4.258 34.060-17.030 42.576zM861.107 701.301c-8.515-8.515-12.773-25.545-12.773-38.318 4.258-8.515 4.258-17.030 4.258-25.545 0-204.362-89.408-370.405-242.679-459.814-119.211-68.121-259.71-85.15-400.209-51.090 55.348 17.030 106.439 38.318 153.271 72.378 17.030 8.515 21.287 21.287 21.287 38.318s-12.773 29.803-25.545 34.060c-246.937 110.696-238.422 319.315-212.876 425.754 93.666-93.666 225.649-149.013 366.148-144.757 21.287 0 42.576 21.287 42.576 42.576v42.576c0 42.576 17.030 85.15 51.090 114.953 59.605 55.348 157.529 46.833 208.62-12.773 12.773-12.773 29.803-17.030 42.576-12.773 8.515 4.258 21.287 4.258 29.803 8.515-8.515-12.773-17.030-21.287-25.545-34.060z" />
<glyph unicode="&#xe90a;" glyph-name="tag" d="M1004.512 515.744l-160 256c-23.36 37.408-64.384 60.16-108.512 60.16h-608c-70.688 0-128-57.312-128-128v-512c0-70.688 57.312-128 128-128h608c44.128 0 85.12 22.752 108.512 60.192l160 256c25.984 41.44 25.984 94.144 0 135.648zM950.24 414.016l-160-256.064c-11.744-18.816-32.064-30.048-54.24-30.048h-608c-35.296 0-64 28.736-64 64v512c0 35.296 28.704 64 64 64h608c22.176 0 42.496-11.264 54.24-30.048l160-256c12.896-20.64 12.896-47.264 0-67.84zM736 543.904c-53.056 0-96-42.976-96-96s42.944-96 96-96c52.992 0 96 43.008 96 96 0 53.024-43.008 96-96 96zM736 383.872c-35.36 0-64 28.672-64 64s28.64 64 64 64c35.328 0 64-28.672 64-64 0-35.296-28.672-64-64-64z" />
<glyph unicode="&#xe90b;" glyph-name="agenda" d="M926.256 652.798c-4.655 4.655-4.655 9.309-9.309 13.964l-279.273 279.273c-4.655 4.655-9.309 9.309-13.964 9.309-4.655 4.655-13.964 4.655-18.619 4.655h-372.363c-79.127 0-139.636-60.509-139.636-139.636v-744.727c0-79.127 60.509-139.636 139.636-139.636h558.545c79.127 0 139.636 60.509 139.636 139.636v558.545c0 4.655 0 13.964-4.655 18.619zM651.638 801.744l121.018-121.018h-121.018v121.018zM791.275 29.090h-558.545c-27.927 0-46.546 18.619-46.546 46.546v744.727c0 27.927 18.619 46.546 46.546 46.546h325.818v-232.727c0-27.927 18.619-46.546 46.546-46.546h232.727v-511.999c0-27.927-18.619-46.546-46.546-46.546zM698.184 447.999h-372.363c-27.927 0-46.546-18.619-46.546-46.546s18.619-46.546 46.546-46.546h372.363c27.927 0 46.546 18.619 46.546 46.546s-18.619 46.546-46.546 46.546zM698.184 261.816h-372.363c-27.927 0-46.546-18.619-46.546-46.546s18.619-46.546 46.546-46.546h372.363c27.927 0 46.546 18.619 46.546 46.546s-18.619 46.546-46.546 46.546zM325.82 541.089h93.091c27.927 0 46.546 18.619 46.546 46.546s-18.619 46.546-46.546 46.546h-93.091c-27.927 0-46.546-18.619-46.546-46.546s18.619-46.546 46.546-46.546z" />
<glyph unicode="&#xe90c;" glyph-name="heart" d="M937.496 814.070v0c-53.571 53.571-125 84.821-200.892 84.821v0c-75.892 0-151.785-31.25-205.356-84.821 0 0 0 0 0 0l-17.857-17.857-17.857 17.857c-53.571 53.571-125 84.821-205.356 84.821-75.892 0-147.321-31.25-200.892-84.821s-89.285-129.463-89.285-205.356 31.25-151.785 84.821-205.356l392.855-392.855c8.928-8.928 17.857-13.393 31.25-13.393s22.321 4.465 31.25 13.393l392.855 392.855c120.535 111.607 120.535 299.106 4.465 410.712zM874.997 465.857l-361.605-361.605-361.605 361.605c-80.357 80.357-80.357 205.356 0 285.713 35.714 40.178 89.285 58.036 138.393 58.036 53.571 0 102.678-17.857 142.856-58.036l49.107-49.107c17.857-17.857 44.643-17.857 62.499 0l44.643 49.107c0 0 0 0 0 0 40.178 35.714 89.285 58.036 147.321 58.036 0 0 0 0 0 0 53.571 0 102.678-22.321 142.856-58.036v0c35.714-40.178 58.036-89.285 58.036-142.856s-22.321-102.678-62.499-142.856z" />
<glyph unicode="&#xe90d;" glyph-name="home" d="M958.329 624.091l-418.434 325.449c-18.597 13.948-41.843 13.948-55.791 0l-418.434-325.449c-13.948-9.298-18.597-23.246-18.597-37.194v-511.419c0-79.037 60.441-139.478 139.478-139.478h650.897c79.037 0 139.478 60.441 139.478 139.478v511.419c0 13.948-4.65 27.896-18.597 37.194zM604.985 28.985h-185.971v371.941h185.971v-371.941zM883.941 75.478c0-27.896-18.597-46.493-46.493-46.493h-139.478v418.434c0 27.896-18.597 46.493-46.493 46.493h-278.956c-27.896 0-46.493-18.597-46.493-46.493v-418.434h-139.478c-27.896 0-46.493 18.597-46.493 46.493v488.173l371.941 288.254 371.941-288.254v-488.173z" />
<glyph unicode="&#xe90e;" glyph-name="menu" d="M972.8 499.2h-921.599c-30.72 0-51.2-20.48-51.2-51.2s20.48-51.2 51.2-51.2h921.599c30.72 0 51.2 20.48 51.2 51.2s-20.48 51.2-51.2 51.2zM51.2 703.999h921.599c30.72 0 51.2 20.48 51.2 51.2s-20.48 51.2-51.2 51.2h-921.599c-30.72 0-51.2-20.48-51.2-51.2s20.48-51.2 51.2-51.2zM972.8 192.001h-921.599c-30.72 0-51.2-20.48-51.2-51.2s20.48-51.2 51.2-51.2h921.599c30.72 0 51.2 20.48 51.2 51.2s-20.48 51.2-51.2 51.2z" />
<glyph unicode="&#xe90f;" glyph-name="users" d="M556.877 362.327h-342.693c-119.943 0-214.183-94.241-214.183-214.183v-85.673c0-25.702 17.135-42.837 42.837-42.837s42.837 17.135 42.837 42.837v85.673c0 72.822 55.688 128.51 128.51 128.51h342.693c72.822 0 128.51-55.688 128.51-128.51v-85.673c0-25.702 17.135-42.837 42.837-42.837s42.837 17.135 42.837 42.837v85.673c0 119.943-94.241 214.183-214.183 214.183zM385.53 448c119.943 0 214.183 94.241 214.183 214.183s-94.241 214.183-214.183 214.183-214.183-94.241-214.183-214.183 94.241-214.183 214.183-214.183zM385.53 790.693c72.822 0 128.51-55.688 128.51-128.51s-55.688-128.51-128.51-128.51-128.51 55.688-128.51 128.51 55.688 128.51 128.51 128.51zM865.301 353.759c-21.418 4.284-47.12-8.567-51.404-29.986s8.567-47.12 29.986-51.404c55.688-12.851 94.241-64.255 94.241-124.226v-85.673c0-25.702 17.135-42.837 42.837-42.837s42.837 17.135 42.837 42.837v85.673c4.284 98.524-59.971 184.198-158.496 205.616zM693.954 867.8c-21.418 8.567-42.837-4.284-51.404-29.986-4.284-21.418 8.567-47.12 29.986-51.404 68.539-17.135 111.375-85.673 94.241-158.496-12.851-47.12-47.12-81.39-94.241-94.241-21.418-4.284-38.553-29.986-29.986-51.404 4.284-21.418 21.418-34.269 42.837-34.269 4.284 0 8.567 0 8.567 0 77.106 21.418 137.077 77.106 154.212 154.212 29.986 119.943-38.553 239.885-154.212 265.587z" />
<glyph unicode="&#xe910;" glyph-name="chrome" d="M258.278 513.421l-146.532 253.802c93.818 117.464 238.234 192.74 400.254 192.74 187.432 0 351.31-100.736 440.532-251h-417.77c-7.504 0.65-15.092 1-22.762 1-121.874 0-224.578-83.644-253.722-196.542zM695.306 634.963h293.46c22.74-57.93 35.234-121.004 35.234-187 0-280.826-226.1-508.804-506.186-511.926l209.394 362.678c29.48 42.378 46.792 93.826 46.792 149.248 0 73.17-30.164 139.42-78.694 187zM326 447.963c0 102.56 83.44 186 186 186s186-83.44 186-186c0-102.56-83.44-186-186-186s-186 83.44-186 186zM582.182 195.521l-146.578-253.878c-246.532 36.884-435.604 249.516-435.604 506.32 0 91.218 23.884 176.846 65.696 251.024l209.030-362.054c41.868-89.112 132.476-150.97 237.274-150.97 24.3 0 47.836 3.34 70.182 9.558z" />
<glyph unicode="&#xe911;" glyph-name="earth" d="M512 960c-282.77 0-512-229.23-512-512s229.23-512 512-512 512 229.23 512 512-229.23 512-512 512zM512-0.002c-62.958 0-122.872 13.012-177.23 36.452l233.148 262.29c5.206 5.858 8.082 13.422 8.082 21.26v96c0 17.674-14.326 32-32 32-112.99 0-232.204 117.462-233.374 118.626-6 6.002-14.14 9.374-22.626 9.374h-128c-17.672 0-32-14.328-32-32v-192c0-12.122 6.848-23.202 17.69-28.622l110.31-55.156v-187.886c-116.052 80.956-192 215.432-192 367.664 0 68.714 15.49 133.806 43.138 192h116.862c8.488 0 16.626 3.372 22.628 9.372l128 128c6 6.002 9.372 14.14 9.372 22.628v77.412c40.562 12.074 83.518 18.588 128 18.588 70.406 0 137.004-16.26 196.282-45.2-4.144-3.502-8.176-7.164-12.046-11.036-36.266-36.264-56.236-84.478-56.236-135.764s19.97-99.5 56.236-135.764c36.434-36.432 85.218-56.264 135.634-56.26 3.166 0 6.342 0.080 9.518 0.236 13.814-51.802 38.752-186.656-8.404-372.334-0.444-1.744-0.696-3.488-0.842-5.224-81.324-83.080-194.7-134.656-320.142-134.656z" />
<glyph unicode="&#xe912;" glyph-name="lab" d="M609.522 315.273c0 0-48.701-62.193-110.923 0-60.349 58.534-104.25 0-104.25 0l-145.37-286.526c-4.214-15.599 5.063-31.638 20.663-35.823h482.821c15.599 4.185 24.877 20.194 20.692 35.823l-163.633 286.526zM832.157 43.411l-233.523 393v0.732l-0.41 230.303h16.126c24.175 0 43.842 19.638 43.842 43.871 0 24.204-19.668 43.842-43.842 43.842h-233.991c-24.204 0-43.842-19.638-43.842-43.842 0-24.233 19.638-43.871 43.842-43.871h14.107l-0.468-230.362-202.178-393.673c-12.526-46.798 15.248-94.884 62.017-107.411h516.302c46.827 12.526 74.602 60.612 62.017 107.411zM762.326-34.674l-500.703 0.556c-31.17 8.37-49.666 40.447-41.325 71.588l203.319 398.502 0.615 260.712h-43.842c-8.048 0-14.604 6.556-14.604 14.634 0 8.048 6.556 14.604 14.604 14.604h233.991c8.048 0 14.575-6.556 14.575-14.604 0-8.078-6.527-14.634-14.575-14.634h-43.842l0.732-259.746 232.352-399.965c8.37-31.228-10.156-63.305-41.296-71.646zM526.052 799.030c0-16.155 13.112-29.267 29.267-29.267s29.267 13.112 29.267 29.267-13.082 29.267-29.267 29.267-29.267-13.082-29.267-29.267zM555.319 872.198c24.233 0 43.901 19.638 43.901 43.901s-19.668 43.901-43.901 43.901-43.901-19.638-43.901-43.901 19.668-43.901 43.901-43.901zM438.25 799.030c16.185 0 29.267 13.112 29.267 29.267s-13.082 29.267-29.267 29.267-29.267-13.112-29.267-29.267 13.082-29.267 29.267-29.267z" />
<glyph unicode="&#xe913;" glyph-name="code" d="M1010.035 480.58l-279.272 279.272c-18.619 18.619-46.546 18.619-65.163 0s-18.619-46.546 0-65.163l246.69-246.69-246.69-246.69c-18.619-18.619-18.619-46.546 0-65.163 9.309-9.309 23.272-13.964 32.582-13.964s23.272 4.655 32.582 13.964l279.272 279.272c18.619 18.619 18.619 46.546 0 65.163zM358.399 759.854c-18.619 18.619-46.546 18.619-65.163 0l-279.272-279.272c-18.619-18.619-18.619-46.546 0-65.163l279.272-279.272c9.309-9.309 18.619-13.964 32.582-13.964s23.272 4.655 32.582 13.964c18.619 18.619 18.619 46.546 0 65.163l-246.69 246.69 246.69 246.69c18.619 18.619 18.619 46.546 0 65.163z" />
<glyph unicode="&#xe914;" glyph-name="arrow-left-circle" d="M512 960c-283.928 0-512-228.073-512-512s228.073-512 512-512 512 228.073 512 512-228.073 512-512 512zM512 29.091c-232.727 0-418.909 186.182-418.909 418.909s186.182 418.909 418.909 418.909c232.727 0 418.909-186.182 418.909-418.909s-186.182-418.909-418.909-418.909zM698.182 494.546h-260.654l107.054 107.054c18.619 18.619 18.619 46.546 0 65.163s-46.546 18.619-65.163 0l-186.182-186.182c-4.655-4.655-9.309-9.309-9.309-13.964-4.655-9.309-4.655-23.272 0-37.236 4.655-4.655 4.655-9.309 9.309-13.964l186.182-186.182c9.309-9.309 23.272-13.964 32.582-13.964s23.272 4.655 32.582 13.964c18.619 18.619 18.619 46.546 0 65.163l-107.054 107.054h260.654c27.927 0 46.546 18.619 46.546 46.546s-18.619 46.546-46.546 46.546z" />
<glyph unicode="&#xe915;" glyph-name="arrow-up-circle" d="M512 960c-283.928 0-512-228.073-512-512s228.073-512 512-512 512 228.073 512 512-228.073 512-512 512zM512 29.091c-232.727 0-418.909 186.182-418.909 418.909s186.182 418.909 418.909 418.909c232.727 0 418.909-186.182 418.909-418.909s-186.182-418.909-418.909-418.909zM544.582 666.763c-4.655 4.655-9.309 9.309-13.964 9.309-9.309 4.655-23.272 4.655-37.236 0-4.655-4.655-9.309-4.655-13.964-9.309l-186.182-186.182c-18.619-18.619-18.619-46.546 0-65.163s46.546-18.619 65.163 0l107.054 107.054v-260.654c0-27.927 18.619-46.546 46.546-46.546s46.546 18.619 46.546 46.546v260.654l107.054-107.054c9.309-9.309 23.272-13.964 32.582-13.964s23.272 4.655 32.582 13.964c18.619 18.619 18.619 46.546 0 65.163l-186.182 186.182z" />
<glyph unicode="&#xe916;" glyph-name="curious" d="M512 960c-194.432 0-352-157.568-352-352 0-128.992 118.016-265.696 160.992-385.76 64.096-179.040 56.992-286.24 191.008-286.24 136 0 126.88 106.688 191.008 285.504 43.104 120.32 160.992 258.496 160.992 386.496 0 194.432-157.632 352-352 352zM594.944 90.368l-158.656-19.808c-5.664 16.384-11.744 35.552-19.136 60.576-0.096 0.32-0.224 0.672-0.288 0.992l198.016 24.736c-2.816-9.44-5.824-19.36-8.448-28.256-4.192-14.368-7.936-26.848-11.488-38.24zM407.552 162.944c-5.824 19.264-12.384 39.552-19.68 61.056h248.512c-3.936-11.488-7.872-23.008-11.264-33.888l-217.568-27.168zM512 0c-32.416 0-47.328 3.744-63.904 40l135.616 16.992c-19.648-52.928-33.952-56.992-71.712-56.992zM661.504 288h-298.656c-15.936 34.56-35.072 69.12-53.952 102.944-41.76 74.72-84.896 152-84.896 217.056 0 158.816 129.184 288 288 288s288-129.184 288-288c0-64.576-43.2-142.272-84.992-217.44-18.688-33.696-37.696-68.192-53.504-102.56zM512 800c8.8 0 16-7.168 16-16s-7.168-16-16-16c-88.224 0-160-71.776-160-160 0-8.832-7.168-16-16-16s-16 7.168-16 16c0 105.888 86.112 192 192 192z" />
<glyph unicode="&#xe917;" glyph-name="arrow-right" d="M1018.401 422.4c6.401 12.8 6.401 32 0 51.2-6.401 6.401-6.401 12.8-12.8 19.2l-448.001 448.001c-25.601 25.601-64.001 25.601-89.6 0s-25.601-64.001 0-89.6l339.2-339.2h-742.4c-38.4 0-64.001-25.601-64.001-64.001s25.601-64.001 64.001-64.001h742.4l-339.2-339.2c-25.601-25.601-25.601-64.001 0-89.6 12.8-12.8 32-19.2 44.801-19.2s32 6.401 44.801 19.2l448.001 448.001c6.401 6.401 12.8 12.8 12.8 19.2z" />
<glyph unicode="&#xe918;" d="M269.247 104.271l78.364 47.424c15.118-26.804 28.87-49.484 61.858-49.484 31.62 0 51.556 12.369 51.556 60.481v327.192h96.23v-328.553c0-99.669-58.423-145.036-143.661-145.036-76.98 0-121.666 39.869-144.348 87.983z" />
<glyph unicode="&#xe919;" d="M609.524 114.582l78.354 45.366c20.626-33.685 47.434-58.428 94.86-58.428 39.873 0 65.299 19.935 65.299 47.431 0 32.994-26.119 44.681-70.111 63.92l-24.051 10.318c-69.429 29.551-115.484 66.669-115.484 145.031 0 72.174 54.989 127.166 140.914 127.166 61.177 0 105.168-21.311 136.784-76.989l-74.924-48.113c-16.498 29.555-34.364 41.238-61.858 41.238-28.183 0-46.056-17.871-46.056-41.238 0-28.87 17.873-40.559 59.111-58.431l24.056-10.31c81.798-35.058 127.854-70.797 127.854-151.217 0-86.614-68.049-134.038-159.468-134.038-89.358 0-147.098 42.615-175.276 98.294z" />
<glyph unicode="&#xe91a;" glyph-name="postcss" d="M1023.607 474.679c-0.344 13.136-1.036 26.616-1.728 39.752-0.692 13.484-1.036 26.964-2.42 40.444-2.42 18.324-4.84 36.988-8.988 54.964-3.112 14.864-8.296 29.036-13.48 43.208-6.568 16.596-13.136 33.532-21.432 49.432-13.484 25.58-31.112 48.396-47.36 72.248-10.716 15.212-24.54 27.656-34.912 43.208-5.876 8.988-14.52 16.596-23.16 23.508-13.828 11.060-28.348 21.088-42.864 30.764-11.064 7.608-22.124 14.864-33.876 21.432-9.336 5.188-19.36 9.336-29.040 13.828-11.060 5.188-21.776 11.408-34.22 13.828-3.112 0.692-5.876 1.728-8.988 2.764-7.952 2.768-15.556 5.876-23.508 8.296-12.096 3.804-23.848 8.3-36.296 11.408-12.096 3.112-24.54 5.188-36.984 6.916-13.828 2.072-28 2.764-41.828 4.148-8.988 1.036-17.976 2.072-26.62 2.42-13.132 0.688-26.616 0.688-39.752 1.036-6.568 0.344-13.48 1.036-20.048 0.692-10.024-0.348-20.048-1.384-30.076-2.768-9.676-1.036-19.356-2.764-28.692-4.148-11.404-1.38-22.812-2.072-34.22-3.456-10.716-1.384-21.776-3.456-32.492-5.184-3.804-0.692-7.608-2.076-11.408-2.764-8.296-1.732-16.94-2.424-25.236-5.188-14.864-4.492-29.728-9.68-44.248-15.208-13.48-5.532-26.616-11.408-39.404-18.324-13.136-7.256-25.58-15.9-38.028-24.196-11.752-7.948-23.504-16.248-34.912-25.236-11.060-8.64-21.432-18.32-31.456-28-5.532-5.528-10.024-12.096-15.212-18.32-8.64-10.024-17.284-19.704-25.58-30.072-6.912-8.644-13.136-17.632-19.7-26.62-11.756-15.9-21.78-32.836-31.112-49.776-3.804-6.912-7.26-13.828-10.716-20.74-5.188-10.372-10.716-20.396-15.556-31.112-3.456-7.26-6.224-15.208-8.296-23.16-4.84-16.936-9.68-34.22-14.172-51.16-4.148-15.208-5.188-31.112-5.532-46.668-0.348-13.824 1.036-27.308 2.42-41.136 0.344-3.456-1.728-7.604 2.42-10.368 0.344 0 0-1.384-0.348-1.728-1.036-2.076 0-4.148 2.076-4.84 0 0 0.344-0.348 0.344-0.692h-1.728c-1.036-3.112 2.42-5.532 1.036-8.988-0.344-0.692 1.040-2.072 1.728-3.112 0-1.036-0.344-2.42 0-3.456 0.348-3.112 1.732-6.22 1.732-9.68 0-2.42 2.072-5.184 2.764-7.604 0.344-1.036 0-2.764-0.692-3.456-2.072-2.42-1.728-4.496 1.384-5.876 0.692-0.348 1.728-1.728 1.728-2.42 0-2.076-0.692-4.148-1.036-6.224 0.688-0.692 1.036-1.38 0.688-2.072 0-1.036-1.036-2.076-0.688-2.768 2.764-5.528 3.8-11.752 4.148-17.972 0-1.384 0.692-2.768 1.38-4.496 0.348 0 1.384 0 2.076-0.344l-2.076-6.224c1.728 1.040 3.112 1.384 4.84 2.076 1.036-4.496 2.076-8.644 3.456-12.444 0.348-0.692 1.040-1.384 2.076-2.076-0.348-0.692-0.348-2.072-1.036-2.42 1.38-6.22 2.072-12.1 4.492-17.976 0.348 0 0.692 0.348 1.036 0.348-1.036 6.22-1.728 12.788-2.764 19.012v2.072c0 0 0.692 0.348 1.036 0.348 0.348-1.384 1.040-3.112 1.040-4.148 2.764 0 6.912-1.728 9.676-1.728 0.348 1.036 0.692 2.42 1.040 3.108-2.076 2.076-3.804 5.188-5.88 7.26 0.692-2.764 0-3.8 0-4.84-1.38 0.692-3.108 1.384-4.836 2.076 1.38 1.728 2.764 3.456 4.836 5.532 0 3.108-1.728 5.876-6.568 5.528 2.076 0.692 4.152 1.728 6.568 2.42 0.348-1.036 0.692-2.072 1.040-2.764 2.764 4.84-1.384 8.64-1.384 13.48 0.344 5.876-3.112 11.752-4.148 17.976-1.728 9.68-1.384 24.196-2.42 33.876 0 0.692-1.036 1.384-1.728 2.076-0.348-0.348-2.076-4.84-2.42-5.188 1.036-8.296 2.072-16.592 2.764-24.888-0.344 0-0.692 0-0.692-0.344-1.38 7.26-2.764 14.864-4.492 23.16-0.344-2.42-0.692-3.456-0.692-4.84-1.036 0.344-1.38 0.692-3.112 1.384 1.384-3.112 2.768-5.188 3.804-7.608-2.42 1.040-5.184 0.692-5.184 0.692v-9.676c-3.456 3.456-4.496 6.22-6.224 8.64-0.692 2.764-1.036 5.532-1.728 8.296l1.036 0.348c-0.344 1.38-1.036 2.42-1.036 3.456-0.344 2.42-0.692 5.184-1.036 8.296 0.344 0.344 1.728 0.692 2.42 1.38l-2.768 4.148c2.768-0.344 4.496-0.688 6.224-0.688 0 0.688 0.344 1.036 0 1.38-3.456 3.112-1.036 5.88 0.344 8.644 0.692 1.384 3.112 1.728 3.804 3.112 2.764 5.184 7.26 9.332 7.26 15.9 0 3.112 1.036 6.568 1.38 9.68 0.692 5.876 1.384 11.752 1.732 17.628 0.688 7.604 0 15.212 1.728 22.468 2.764 12.1 6.22 24.2 10.024 36.296 2.764 8.644 5.876 16.94 9.332 25.58 5.188 13.484 10.024 26.964 16.592 39.756 9.336 18.664 20.052 36.64 30.42 54.96 6.568 11.408 13.484 22.124 20.74 33.188 6.916 10.716 13.828 21.776 21.78 31.8 11.060 14.172 23.16 27.308 36.64 39.064 13.828 12.444 26.964 25.232 41.828 36.64 19.36 14.864 39.752 28 61.532 39.408 17.628 9.332 35.948 16.592 54.272 23.508 11.752 4.492 24.54 6.564 36.64 10.368 13.828 4.496 27.656 6.568 42.172 6.916 9.336 0.344 18.324 1.38 27.656 2.416 8.296 0.692 16.592 1.384 25.58 2.42-1.036-1.38-1.384-2.072-1.728-2.764-3.804-5.532-7.952-11.060-11.752-16.592-3.112-4.496-6.568-9.332-9.68-13.828-5.532-7.26-11.408-14.52-16.592-22.124-7.952-11.408-15.212-23.16-23.508-34.568-8.296-11.060-17.284-21.432-25.924-32.148-11.408-14.864-22.124-30.072-33.532-44.936-10.372-14.176-21.432-27.656-31.456-41.828-8.988-12.444-16.94-25.58-25.58-38.372-12.792-19.012-25.58-37.676-38.372-56.688-10.024-14.52-20.048-28.692-30.42-43.212-0.692-1.036-1.728-1.384-2.764-2.072-0.692-0.692-2.076-1.384-2.076-2.076-0.688-2.42-0.688-4.84-1.728-6.912-2.764-5.188-5.528-10.372-8.64-15.212-1.728-2.764-4.148-5.184-6.224-7.948-0.692 0.344-1.036 0.688-1.728 0.688 1.384 3.46 7.26 5.532 4.496 10.716-1.728-2.764-3.46-5.184-5.188-7.948l-4.148-8.296c1.384-1.040 3.804-1.728 1.384-3.804-1.036-1.728-2.076-3.8-3.112-5.532 0.348 0 0.348-0.344 0.692-0.344 1.036 1.384 2.076 2.42 3.112 3.804 0.344 0 0.692-0.348 1.036-0.348-1.036-3.456-3.112-6.568-4.84-9.68-1.384-2.764-4.84-4.836-7.26-6.912 0.348-0.344 2.768-1.384 3.112-1.728 1.036 1.384 1.384 0.692 2.42 2.072 0.692-1.036 1.728 0.692 2.076-0.344 1.036 1.384 2.072 2.42 2.42 3.456 1.38 3.456 3.456 6.224 6.912 7.604 1.384 0.692 2.42 1.732 3.456 2.768 10.372 10.716 21.088 21.084 30.42 32.492 14.52 17.632 27.656 35.952 41.48 53.928 5.88 7.604 12.792 15.208 19.012 22.468 0.692-0.348 1.384-0.348 1.732-0.692-0.692-7.26-1.384-14.864-1.732-22.124-1.036-12.788-1.728-25.58-2.764-38.716-0.344-5.184 0-10.368-0.344-15.556 0-1.38-1.040-2.416-1.040-3.8 0-3.456 1.040-7.26 1.040-10.716-1.040-12.792-2.42-25.236-3.46-38.024-0.344-2.768 1.040-5.532 1.732-7.952-0.348 0.344-0.692 0.692-1.732 1.384 0-20.052 3.804-39.756 0.692-59.46 1.384 0.348 2.076 0.692 2.076 1.384 0.344 2.42 1.036 4.84 1.036 7.26 0.348 2.072 0 4.148 0 6.568v3.456c0.348 6.224 1.728 12.792 1.036 19.012-0.688 6.916-0.688 13.484 0.692 20.052 0.692 2.764-0.344 6.22 1.384 9.676v-5.184c-0.348-19.704 0.344-39.408-2.42-59.112-0.344-1.728 1.036-4.84-2.764-4.492-0.348 0-0.692-1.728-1.384-2.768-1.728-3.456 2.072-7.948-1.384-11.404-0.692-0.692 0.692-3.804 1.036-5.88 0-0.688 0.348-1.38 0-1.728-1.38-2.42-1.38-2.42 0.692-2.764 0.348-7.604 1.040-14.52 1.384-21.776h1.036c4.496 13.136 1.728 26.616 4.148 40.096 0.348-5.528 0.692-11.060 0.348-16.936 0-8.988-0.348-17.632-0.692-26.62 0-1.728-0.348-3.456-0.692-5.184-1.036-4.84-1.384-9.68-3.112-14.172-1.38-3.456-0.692-8.644-0.692-12.792v-13.132c0-0.348 1.040-1.384 1.040-2.768 0.344-3.112-1.384-6.224-0.348-9.68 0.348-0.692-0.344-1.728-0.692-2.42-0.344-1.036-0.688-2.072-0.344-3.108l1.036-5.188c0-0.344 0.348-0.692 0.692-1.38 0.348 1.38 0.348 2.42 0.348 2.764 5.876-0.692 2.764-5.876 5.528-8.644-1.38-0.688-2.42-1.036-2.42-1.38 0.348-1.384 1.040-2.42 1.040-3.804 0-3.108-0.348-5.876-0.692-8.988 0-7.948-0.348-15.9-0.348-23.504 0-1.036 0.348-2.076 0.348-3.112 0-0.692-0.348-1.384-0.348-2.42v-7.26h1.384c-0.692-1.036-1.384-2.072-2.42-3.108-0.344 0-1.384 0-1.384 0.344v43.556h-5.184c-0.692-20.74 1.036-39.408-2.764-58.764-4.148-0.348-5.532-1.040-10.024-1.040-10.716 0-21.432 0-32.148-0.344-12.792 0-25.236-0.348-38.028-0.348-6.22 0-12.788-0.688-19.012-0.688-8.296 0-16.936 1.036-25.232 1.036-12.792 0-25.236-1.036-38.024-1.384-9.336-0.344-18.668-0.344-28-0.692-6.224-0.344-12.448-0.692-18.668-1.38-2.764-0.348-5.184-1.384-8.644-2.42-1.036 0-3.456 0.344-5.528 0-3.456-0.692-6.568-2.768-10.024-3.456-5.188-1.040-6.568-2.42-5.88-7.608v-3.456c-0.688 0.692-1.728 1.384-2.42 1.728-0.344 0-0.688-0.344-0.688-0.344 0.344-1.036 1.036-1.728 1.38-2.768 1.384 0.692 3.112 2.42 4.496 2.42h4.84c-0.692 0-1.040-2.072-2.076-3.8 2.764 1.036 4.496 1.728 6.224 2.42 0.344-1.040 0.344-2.42 0.344-2.768 4.84 0.348 9.332 1.728 13.48 0.692 13.484-3.456 27.312-4.84 41.136-6.22 8.988-0.692 17.632-1.040 26.62-1.384 12.788-0.692 25.58-1.384 38.368-1.384 10.716 0 21.088 1.036 31.804 1.036 14.864 0 29.728-0.688 44.592-1.036 3.112 0 6.568 0.348 10.024 0.348h25.236c22.468 0.688 44.936 1.036 67.408 1.728 12.788 0.344 25.924 1.036 38.716 1.38l39.404 1.040c15.212 0.344 30.42 0.344 45.284 0.692 11.408 0 22.472 0.344 33.876 0.688 12.792 0.348 25.928 1.384 38.716 2.076 6.916 0.344 13.828 1.036 20.744 1.728 8.296 0.692 16.936 1.728 25.232 2.076 12.444 0.688 25.236 1.036 37.68 1.728 15.556 1.036 31.112 2.42 47.012 2.764 14.52 0.692 29.384 0.344 43.9 0.692 12.792 0.344 25.58 1.036 38.716 1.38l21.78 1.040c0 0 14.516 0.344 21.776 1.036 12.444 0.692 24.888 2.076 37.332 2.42 7.952 0.344 15.904 0 23.852 0.344 12.792 0.348 25.928 1.040 38.716 1.040 4.84 0 10.028-0.692 16.248-1.040-2.764-2.42-4.492-3.8-6.568-5.528 1.384-0.348 2.764-1.040 4.148-1.728 0-0.348-0.344-0.692-0.344-1.384-1.728 0-3.456-0.348-5.188-0.348-0.688-1.728-1.38-2.416-2.072-5.876h6.22c-2.416 0-4.492-3.108-6.912-5.184 0.348-0.344 0.692-0.344 1.036-0.692-3.8 1.384-6.22 0.692-7.604-3.112 1.036-0.344 1.728-0.344 2.764-0.344-0.344-1.036-0.688-2.076-1.036-3.456-0.344-0.692-0.692-1.384-0.692-2.42l-1.036 1.036c0 0.692 0 1.384-0.344 2.076-2.076-2.076-5.188-3.46-3.46-7.952-1.38-0.692-3.108-1.384-4.836-2.42 0.344-0.692 1.036-1.384 1.38-2.42-3.108-0.344-6.22-1.036-5.528-4.84 1.38-0.344 2.764-1.036 3.8-1.38-1.728-0.692-3.456-1.728-5.184-2.42-0.348-0.692-0.692-2.42-1.384-2.768-4.84-1.036-2.072-2.764-0.692-4.492-1.036-0.692-2.072-1.384-3.108-1.728 1.036-0.348 1.728-0.692 2.42-1.384-1.040-0.692-1.732-1.036-2.42-1.384 0.688-0.344 1.728-1.036 2.072-1.036-1.384-1.036-3.112-2.42-5.184-4.148 0-0.692 0-1.036 0.344-1.728-1.38-1.384-2.764-2.764-4.148-4.84-1.38-2.072-2.072-4.84-3.8-6.912-7.26-7.952-12.448-17.284-21.78-23.508-3.456-2.42-6.568-5.528-9.68-8.64-6.22-5.876-11.752-12.444-18.32-17.976-8.64-7.26-17.628-13.828-26.964-20.396-11.404-7.948-22.812-15.9-34.22-23.504-6.224-4.148-13.136-7.26-19.704-11.064-6.568-3.8-12.788-7.26-19.36-11.060-4.148-2.768-7.948-6.568-12.444-8.644-11.408-4.84-23.504-8.988-35.256-13.48-1.040-0.344-1.728-0.692-2.768-1.036-8.64-3.804-16.936-7.952-25.58-11.064-7.952-2.764-16.244-4.84-24.544-6.568-2.764-0.692-5.876 0-8.984-0.344-5.88-1.036-11.756-2.42-17.632-3.112-15.208-2.076-30.42-3.456-45.628-5.532-8.988-1.036-17.632-2.764-26.62-3.8-6.22-0.348-12.788 0.344-19.012 0.344-4.492 0-9.332-1.036-13.828-0.344-7.256 1.036-14.516 2.764-21.776 4.148-1.728 0.344-4.148 1.036-5.532 0.344-2.764-1.38-5.184 0.692-7.948 0-1.728-0.344-3.456 1.036-5.188 1.036-1.38 0.348-3.108-0.344-4.836 0-3.804 1.040-7.26 2.42-11.408 2.076-4.148-0.348-8.296 1.728-12.792 2.764-6.22 1.384-12.096 2.768-18.32 4.148-2.42 0.692-4.492 1.728-6.912 3.112-0.692-0.344-1.732-1.036-3.112-1.036-5.876 1.036-11.752 1.38-17.284 3.456-4.84 1.728-9.332 4.148-14.52 3.456-1.38-0.344-2.42 0.348-3.8 0.348-1.040 1.38-2.076 4.148-3.112 4.148-6.916-0.348-11.064 5.528-16.94 7.256-3.112 1.040-5.528 4.496-8.64 5.532-7.604 3.112-13.828 9.68-22.468 10.716-2.768 0.348-5.532 1.728-8.644 2.768 1.036-1.384 1.728-2.42 2.764-3.46l-0.692-0.688c-9.332 5.528-18.664 11.060-27.996 16.244-1.384 0.348-2.42 1.728-3.46 2.42l-9.332 6.224c-1.036 0.692-3.112 1.728-3.112 1.384-2.072-2.424-4.148-0.348-5.528 0.344-9.336 6.568-20.052 10.716-29.040 17.976-3.8 3.108-8.296 5.184-11.060 8.988-4.84 5.876-10.716 10.024-17.284 13.48-5.184 2.764-10.024 5.876-14.864 8.988-2.42 1.728-4.84 3.8-4.84 7.604 0 2.42-1.036 4.84-4.148 3.456-1.384 2.076-2.764 4.496-4.492 5.188-4.148 1.728-6.916 4.836-10.028 7.604-3.108 2.764-5.528 6.568-9.332 7.948-6.912 2.768-11.060 8.644-15.208 13.484-9.68 11.408-18.324 23.852-27.312 35.952-0.688 1.036-2.072 1.728-3.108 2.764l-0.348-0.348c1.728-3.456 3.456-6.568 5.188-10.024-0.348-0.344-1.040-0.692-1.384-1.036-2.076 2.42-4.496 4.84-6.568 7.26-0.348-0.348-0.692-0.692-1.036-0.692l24.888-39.408c2.072-3.112 3.8-6.22 5.876-9.332-0.344-0.348-0.692-0.692-1.384-1.036-3.8 0.688-7.256 3.456-8.988 6.568-3.108 5.528-6.568 8.984-13.48 8.296-0.692 2.42-1.384 5.184-1.728 7.604-1.384 0-2.42 0-4.84 0.344 4.84-7.604 8.988-14.172 13.48-21.776-1.728 1.036-2.764 1.728-3.456 2.072 6.224-6.568 10.716-14.864 18.668-19.012 1.728-7.948 10.716-11.752 12.788-19.356-1.728 0.344-3.108 0.692-4.836 1.036-2.768 3.456-5.88 6.912-8.988 10.716 0.688-2.42 1.728-4.492 3.108-6.224 4.148-5.184 7.952-10.368 12.792-14.864 1.728-1.728 4.148-2.42 4.148-5.528 0.692 0.692 1.384 1.036 2.764 1.728-0.692-1.384-1.036-2.076-1.38-3.112 1.38 0 2.42-0.344 3.456-0.344 0.692-2.076-0.348-5.188 3.8-4.496 0.348 0 0.692-0.344 1.040-0.692 1.728-4.492 4.492-4.492 8.296-2.764 0.692 0.344 2.42 0 2.764-0.692 1.728-3.8 4.148-4.148 7.26-1.384 0-1.728 0.344-3.456 0.344-4.836h1.384c0 0.688-0.344 1.728-0.344 3.456 1.728-1.384 2.764-2.076 3.456-2.768 3.456-4.836 6.568-9.332 11.408-13.132 6.568-5.532 12.444-11.408 18.664-16.596 12.1-10.024 25.58-18.32 39.064-25.924 16.592-9.332 32.492-19.36 49.432-28.344 20.392-10.72 42.172-17.976 64.64-23.164 8.296-1.728 16.248-3.456 24.544-5.528 7.26-2.076 14.52-5.188 21.776-6.916 11.064-2.42 22.472-4.492 33.532-6.568 2.42-0.344 4.84-0.692 7.604-1.036v-0.692c3.112 0 6.916 1.384 7.608 0.348 1.728-2.768 3.108-1.384 5.184-1.040 2.42 0.692 5.184 0.692 7.948 0.692 9.68-0.344 19.012-2.42 28.692-1.728 2.076 0 5.188 1.728 6.916-1.728 0.692 0.348 1.036 0.692 1.728 1.036 1.38 0.348 3.112 0.348 4.492 0.692v-0.692c-0.692-0.344-1.38-0.344-2.764-0.692 1.728-0.344 2.764-0.688 3.804-1.036-0.692-0.692-1.040-0.692-1.732-1.036-0.688-0.344-1.728-0.692-3.108-1.728 12.444-2.42 24.196-2.768 34.568 0v2.072h1.38c0-0.688 0.348-1.38 0.692-2.072 15.9-1.384 31.456 0.692 46.32 5.876 1.384-1.728 2.42-4.148 4.496-0.692 0.692 1.036 2.42 1.384 3.8 1.728 3.112 0.692 6.916 2.076 9.68 1.036 3.112-1.036 4.148 1.732 6.568 1.732 4.148 0 7.952 0.344 11.752 1.036 2.076 0.344 4.148 1.384 6.568 2.072 0 0.348 0 0.692-0.344 1.040-2.42 0.344-5.184 0.688-7.26 0.688 4.148 2.076 7.952 3.804 11.752 5.532 0-0.344 0.348-0.344 0.348-0.692-1.040-0.344-1.728-1.728-3.112-1.728h4.84c-1.036 0-2.42-3.112-4.148-5.184 12.444 3.112 23.852 5.876 34.912 8.64v0.692c-1.38-0.344-2.42-0.344-3.456-0.692-0.344 7.26 7.604 4.84 10.372 8.988-3.46-1.036-6.916-2.072-10.372-2.764v0.692c11.752 5.184 23.852 10.368 35.604 15.556 0-0.348 0.348-0.348 0.348-0.692-2.076-1.384-4.148-2.42-7.26-4.148 2.072-0.348 3.456-0.348 4.492-0.692 0-1.036 0-1.728-0.344-2.076 5.876 0.348 4.492 5.532 6.22 8.644 1.040-0.344 2.42-1.036 3.46-0.692 3.108 0.692 5.876 1.728 8.984 2.764 3.46 1.040 6.916 2.076 10.372 3.46 5.532 2.42 10.716 5.528 16.248 8.296 1.036 0.344 2.764 0 4.148 0 1.036 0 1.728 0.692 2.42 1.38 1.38 1.040 2.764 3.112 3.8 2.768 4.84-0.692 8.296 1.036 9.68 5.528 0.348 0 0.348 0.348 0.692 0.348 1.728 1.38 3.456 2.764 5.184 3.804 7.608 4.148 14.864 8.292 22.472 12.444 0.344 0.344 1.036 0 1.728 0 1.036 0 2.42 0 3.108 0.344 4.496 2.076 8.644 4.492 12.792 6.912-1.036 0.348 0 0.692-3.456 1.040v0.692c3.456 0.688 4.492 1.036 6.568 1.728l-0.692 0.688c8.988 8.988 20.396 15.556 29.036 23.16 1.728-0.344 2.42-0.688 3.456-0.688 0.348 1.036 0.348 2.072 0.348 2.764 1.38 1.728 2.764 3.804 4.492 5.184 7.604 6.916 15.904 12.792 22.816 20.052 10.024 10.024 19.704 20.392 28.692 31.108 8.296 9.68 16.592 19.36 23.504 30.076 9.68 14.864 17.976 30.072 26.616 45.628 6.224 11.064 11.756 22.124 17.976 33.188 0.692 1.036 2.076 2.416 3.112 2.416 9.332 1.040 18.668 1.732 27.656 2.768 2.072 0.344 4.492 1.728 6.568 2.764-1.040 1.728-1.732 3.804-2.768 5.532-1.38 2.076-3.456 3.804-4.84 5.876-1.38 1.728-2.416 3.804-3.456 5.876-1.036 1.728-2.072 3.112-3.112 4.84-2.072 3.804-4.148 7.604-5.876 11.752-0.344 1.040-1.036 2.768-0.692 3.804 6.224 13.48 8.644 28 14.52 41.48 5.876 13.828 7.604 29.384 10.372 44.248 2.42 14.172 3.8 28.344 5.528 42.52 1.040 10.024 2.42 19.704 2.768 29.728 2.072 15.9 1.38 30.764 1.036 45.628v0 0zM154.57 88.903c-2.416 2.764-4.492 5.876-6.912 8.64l1.036 1.040c3.804-4.152 7.608-8.296 11.408-12.792-2.072 1.036-4.492 1.728-5.532 3.112v0 0zM160.102 85.791c1.036 0.344 2.076 0.344 3.112 0.692 1.036-1.728 1.728-3.804 2.764-5.876-4.84 0.344-7.26 2.42-5.876 5.184v0 0zM519.607-56.973v1.036c6.568 0.692 12.792 1.384 19.36 2.072v-1.036c-6.568-1.036-12.792-1.728-19.36-2.072v0 0zM606.719-47.985c-4.84-1.040-10.024-1.728-14.864-2.42-1.728-0.348-3.8-2.076-4.492 1.036-0.692-0.344-1.384-0.344-2.076-0.692 1.728-5.184 5.876-1.036 9.332-3.112-7.604-1.036-14.864-1.728-22.12-2.764v0.692c2.072 0.344 4.492 0.692 6.568 1.036v1.036c-3.46 0.348-6.916 0.692-10.372 0.692-1.036 0-2.42-1.384-3.456-1.728-1.384-0.344-2.768-0.692-4.496-0.692-5.876-0.344-11.752-0.344-17.284-0.692-0.344 0-1.036 0.348-1.38 0.348v1.036c23.16 3.112 45.976 6.224 69.136 9.332 0.344-0.688 0.344-1.38 0.688-2.072-2.072 0-3.456-0.692-5.184-1.036v0 0zM611.903-44.529c7.952 1.036 15.212 1.728 22.816 2.764-15.9-4.492-21.084-5.184-22.816-2.764v0 0zM310.818 653.395c11.064 15.208 22.468 30.42 33.532 45.976 3.456 4.492 6.22 9.332 9.68 13.824 1.036 1.384 2.416 2.076 4.148 3.46l-0.348 0.688c1.384 1.732 2.764 3.112 3.456 4.496 1.728 2.764 2.768 5.876 4.148 8.988 0.348 0.692 1.384 1.38 1.384 1.38 4.84-2.416 4.84 2.768 6.568 4.496 3.112 3.456 6.224 7.26 8.988 10.716 2.072 2.764 4.148 5.184 5.876 8.296 0.344 1.036-0.692 2.764-1.036 4.148h-1.036c1.036 0.692 2.072 1.728 3.108 2.42 0.348 0 0.348 0 0.692 0.344 2.076 3.112 4.148 6.224 6.224 8.988 4.148 5.532 8.64 11.064 13.48 15.904-0.692-1.728-1.384-3.46-2.072-4.84 0.344 0 0.344-0.348 0.688-0.348 4.148 5.532 8.644 10.716 12.792 16.248-0.348 0.344-0.692 0.692-1.036 0.692-1.728-1.728-3.112-3.456-4.84-5.184-0.348 0.344-0.692 0.688-1.040 0.688 3.46 4.496 6.916 8.988 10.372 14.176 0.692-1.040 1.384-2.42 2.764-5.188 1.384 3.46 2.768 5.88 3.804 8.296-1.036-1.036-2.42-2.072-3.456-3.108l-1.040 1.036 6.224 9.332c6.568 9.336 13.136 19.012 19.704 28.348 2.42 3.456 5.532 6.22 7.604 9.676 6.568 13.136 16.94 23.508 24.888 35.608 1.732 2.416 4.148 4.492 6.224 6.568 1.728 2.072 3.112 1.38 4.496-0.348 9.332-11.752 18.664-23.852 27.996-35.604 6.916-8.644 13.828-16.94 20.396-25.924 7.952-11.064 15.556-22.124 23.508-33.188 8.988-12.788 17.976-25.58 26.616-38.716 13.136-19.356 25.58-38.716 38.716-58.072 9.68-14.176 19.36-28 28.692-42.176h-17.632c-16.244 0.348-32.836 1.732-49.084 1.040-22.124-1.040-44.592-3.456-66.716-5.184-28-2.42-56.348-2.768-84.344-2.768-10.028 0-20.052-1.38-30.076-2.072-12.1-0.692-23.852-1.384-35.952-1.732-14.172-0.688-28-1.036-42.172-1.38-7.948-0.348-16.248 0-24.888 0v0 0zM707.311 494.383v-3.112c-0.344 0-0.692-0.344-1.384-0.344-1.38 4.84-2.764 10.024-4.492 14.864-3.456 10.024-7.26 20.048-13.48 29.036-6.916 9.68-13.136 19.704-20.052 29.728-1.728 2.42-4.148 4.496-6.22 6.568-7.26 7.952-14.52 16.248-23.852 22.124-13.828 8.64-28 15.9-43.212 22.124-4.148 1.728-7.948 3.8-12.096 6.22h8.296l59.112 1.036c12.788 0.348 25.232 0.348 38.024 1.040 3.112 0 4.84-1.040 6.568-3.804 3.112-5.184 6.22-10.368 9.676-15.556 0.348-0.688 1.040-1.728 1.040-2.764 0-7.604 0-15.556 0.344-23.16 0.348-7.952 1.036-15.556 1.384-23.508 0-7.948-0.692-16.244-0.348-24.54 0.348-11.756 0.692-23.852 0.692-35.952v0 0zM335.363 610.183c16.248 0.692 31.8 1.732 47.704 2.42 12.444 0.692 25.232 1.040 37.676 1.728 5.188 0.348 10.028 0.692 15.212 0-5.532-2.764-11.060-5.528-15.9-8.988-6.224-4.144-12.1-9.676-18.324-14.172-6.22-4.492-11.752-10.024-16.936-15.9-6.568-7.952-13.828-14.864-20.74-22.468-4.84-5.532-10.372-10.716-14.52-16.592-5.876-7.608-11.060-15.904-16.592-24.544 1.728 32.84 3.804 65.332 2.42 98.516v0 0zM561.091 277.643c-11.064-2.764-22.468-5.876-33.876-7.26-9.68-1.384-19.704-1.036-29.728-1.036-8.988 0-17.632 0.344-26.62 1.036-10.024 1.036-20.048 2.076-29.728 6.568-8.296 3.804-16.936 7.26-25.232 11.408s-16.596 8.988-22.816 16.592c-4.496 5.532-10.716 10.024-16.248 14.864 1.036-4.148 3.456-7.604 7.26-10.024-1.728-2.076-4.148-1.036-7.604 4.492-1.036-0.688-2.076-1.036-2.768-1.38 1.040 2.42 2.076 4.836 3.112 6.912-1.38 2.764-3.112 5.876-4.492 8.64-2.768 4.496-5.532 9.336-7.952 13.828-0.692 1.040-0.692 2.076-1.384 3.112-1.728 2.076-3.456 4.148-4.836 6.224-2.768 4.148-5.188 8.64-8.644 12.788 0-1.036 0.344-2.072 0.344-3.456-0.344 0-0.688-0.344-0.688-0.344l-7.26 17.628c-0.348 0-0.348 0-0.692-0.348l6.224-22.812c-0.348 0-0.692-0.348-1.040-0.348-1.036 1.384-2.072 2.768-2.764 4.496-0.692 2.764-2.764 2.764-4.496 1.728-1.036-0.692-1.728-3.112-1.38-4.148 2.42-5.876 5.184-11.752 7.948-17.632 0.692-2.072 1.384-3.8 2.42-5.876 0.348-0.692 1.384-1.38 1.384-2.42 1.384-2.764 2.42-5.528 4.148-7.948 3.112-4.148 6.568-8.296 9.68-12.444s5.876-8.644 8.64-12.792c0.348-0.692 1.384-0.692 1.728-1.036 1.732-5.184 7.608-8.988 11.756-6.916 1.036-7.948 9.676-10.716 13.136-18.32-4.148 1.728-7.26 3.112-10.028 4.496-0.344-0.348-0.344-0.692-0.688-1.384 4.148-2.072 8.296-4.148 12.096-6.568 3.456-2.072 6.916-4.148 10.024-6.568 4.152-3.8 8.988-5.876 14.868-7.26-0.348 1.040-0.692 1.384-0.692 1.384 9.676-4.496 19.704-9.332 27.308-13.136-35.952-0.692-74.32-1.384-114.076-2.072 0 6.568-0.344 12.788-0.344 19.356 0 2.764 0.692 5.184 0.344 7.952-1.036 15.9-1.036 31.8-3.108 47.356-2.076 16.592-2.076 32.84-1.728 49.432 0.344 8.988-0.348 18.32-0.692 27.308 0 12.1 0 23.852 0.344 35.952 0 1.728 0.692 3.112 1.384 4.84h1.036c0.344-0.692 0-1.728 0.692-2.076 1.036-1.036 2.764-2.764 3.456-2.42 2.076 1.384 5.184 2.768 5.876 4.84 1.728 4.148 2.42 8.644 2.42 12.792 0 3.108 1.384 5.184 2.764 7.26 0.692 1.036 1.040 2.072 1.732 3.456-1.384 1.036-2.768 1.728-4.496 3.108 1.384 3.804 1.036 8.3 6.224 10.372 0.692 0.348 0.692 2.076 1.036 3.112 0.344 2.764 0.692 5.876 1.036 8.64 0.692-1.036 1.036-1.38 1.728-2.072 0.348 0.692 0.692 1.036 0.692 1.036 0 1.384-0.344 4.148 0 4.148 4.148 0.692 2.42 5.184 4.496 7.26 0.344 0.344-0.348 1.384-0.348 2.072 0 0.692 0 1.732 0.348 1.732 4.836 1.036 4.148 6.22 7.256 8.64 1.040 0.692 1.384 1.728 2.768 3.456 2.764-4.84-2.076-7.26-2.42-10.716 5.876 3.456 7.604 11.752 4.148 14.172 1.384 1.040 2.764 2.42 3.8 3.804 3.804 4.148 7.952 7.952 11.408 12.1 2.42 3.112 3.804 6.912 6.224 10.024 1.384 1.728 4.148 3.112 6.22 4.148 6.224 3.456 12.1 7.26 15.904 13.136 0.692 0.692 1.728 1.384 2.764 2.072 1.036 0.692 3.112 0.692 3.456 1.732 0.348 0.688-0.692 2.416-1.384 3.456 1.384 0.692 2.768 2.072 5.532 3.456-1.036-2.076-1.38-3.456-2.072-4.84l1.728-1.728c3.112 2.42 7.952 5.184 11.060 7.26 0 0.344-1.728 1.728-1.728 1.728-2.072-1.040-5.184-2.768-8.296-4.148 0.692 1.036 0.692 1.728 1.036 2.072 4.84 3.112 9.68 6.224 14.864 8.644 12.1 5.532 24.2 11.060 36.296 16.248 2.076 1.036 4.84 0.344 7.26 0.344 1.036 0 1.728 0 2.768 0.344 5.528 1.728 11.060 3.456 16.592 4.84 2.42 0.692 5.184 1.036 7.604 1.036 10.372-0.344 20.74-0.344 31.112-1.036 4.492-0.344 8.64-1.384 12.788-2.764 5.188-1.728 10.716-4.148 15.556-6.568 5.876-3.112 11.408-6.568 16.94-10.372 10.024-6.568 19.356-13.824 29.38-19.704 9.68-5.876 17.284-13.824 23.508-22.812 7.604-10.716 16.248-20.396 19.704-33.532l5.184-22.816c1.036-4.148 3.456-8.296 2.42-13.136-1.728-8.64-3.112-17.628-4.492-26.272-0.692-3.456-1.384-6.912-1.040-10.368 0.692-10.716-3.456-20.048-7.604-29.728-1.384-3.112-3.456-6.224-5.184-9.68 0.344-0.344 2.42-1.384 2.764-1.384l3.112 6.224c0.344 0 0.344 0 0.692-0.348-1.728-4.836-3.112-10.024-4.84-14.864-4.148-10.716-8.296-21.776-13.48-32.148-2.768-5.876-7.608-10.716-11.064-16.244-3.456-4.84-6.22-10.024-9.68-14.52-3.108-3.804-6.22-7.604-10.368-10.372-9.336-6.912-19.012-13.824-29.036-19.356-6.224-3.804-13.484-5.876-20.396-7.604v0 0zM376.843 295.963l-0.344-0.344c-0.692 0.344-1.728 0.692-2.42 1.38l-8.296 12.444c-0.692 1.040-1.036 2.076-0.692 3.46 3.8-5.876 7.604-11.408 11.752-16.94v0 0zM591.855 248.607c15.556 6.568 28.348 15.9 40.1 26.616 1.728 1.728 3.456 3.456 5.532 4.84 14.516 8.988 25.232 21.432 34.912 35.26 11.060 15.9 18.32 33.876 27.308 50.812 0.692 1.384 1.384 2.768 2.076 3.804-0.692-39.408 3.8-78.124 8.984-117.184-39.060-1.384-78.812-2.768-118.912-4.148v0 0zM942.375 258.975c-0.348-0.692-1.040-1.38-1.384-2.072-0.348 0.692-0.348 1.728-0.692 3.108-2.076-5.528-6.568-2.764-9.68-2.764-18.664-0.344-37.676-0.344-56.344-0.344-17.976 0-36.296 0-54.272-0.348-5.876 0-12.1-1.38-17.976-1.728-14.172-0.692-28.344-1.036-42.516-1.38-1.040 0-2.076 1.728-3.804 3.108-0.344-0.692-1.036-1.728-2.076-3.108-0.344 0.688-1.036 1.38-1.728 2.416-0.344-1.036-0.692-2.072-1.036-2.764h-1.036c-0.692 4.84-2.076 9.332-2.076 14.172 0 10.372 1.036 20.74 1.384 31.112 0.344 4.84 0 9.332 0 13.828 1.384-1.040 2.42-1.728 3.804-2.768 0.688 1.384 1.38 2.42 2.072 3.46 0 0-0.692 0.344-1.384 1.036 0.692 0.344 1.384 1.036 1.384 1.38 0.348 1.040 1.036 2.076 1.036 2.768 0 2.42-0.688 4.492-1.036 6.568 0.348 0 0.692 0 1.036 0.344l2.076-10.368h1.036c-1.38 2.42 3.112 4.492-0.692 7.26-0.344 0.344 0.348 2.42 0.348 3.456-1.036 2.072-1.728 4.148-2.768 6.912 0.348 0.344 1.384 0.692 2.42 1.036-1.38 0.692-2.42 1.384-3.456 1.732 3.456 3.108 3.456 4.836 0.348 8.296 0.688 0.344 1.38 0.344 1.38 0.688 0 3.112 0 6.224-0.692 9.336-0.688 3.456 1.040 7.604-4.148 9.676 0.348-1.036 0.692-1.728 1.384-2.764 0 0-1.036-0.344-2.076-1.036-4.492 4.148-1.728 9.68-2.764 15.9 2.42-0.692 4.148-1.384 5.876-2.072-0.692 2.416-2.42 5.184-3.456 8.296h-1.384v22.812c0-0.344 2.42-0.344 3.804-0.688 0 0.344 0.344 0.688 0.344 1.036-1.036 1.384-2.42 2.764-3.8 4.492l0.692 0.692c-2.768 3.456-1.384 8.296-1.384 9.332v24.2c3.456-3.456-1.728-7.952 3.456-10.024v3.456h-0.344c-0.348 5.184-0.348 10.368-0.692 15.556h-0.692c-0.344-0.692-0.344-1.040-0.692-1.728h-0.692c0.692 27.308 1.384 54.616 2.076 82.616 3.456-4.496 7.26-8.644 9.68-13.136 7.948-14.52 18.32-26.964 28-40.1 8.296-11.408 15.9-23.852 23.504-35.604 9.332-14.172 18.32-28.344 27.656-42.52 6.912-10.716 14.172-21.432 21.432-31.8 6.568-9.332 13.48-18.32 20.396-27.308 5.876-7.952 12.096-15.904 17.972-23.852 6.916-9.68 13.828-19.36 20.744-28.692 3.456-4.84 7.256-9.68 11.060-14.52 2.072-2.764 5.184-4.84 7.26-6.568-0.348 0-0.692 0-1.384 0.348 1.036-1.384 1.728-2.42 2.42-3.112 3.804-2.072 4.148-4.148 2.076-7.26v0 0zM960.003 345.395v2.42c0-0.692 0.344-1.728 0-2.42v0 0zM971.755 497.839c-0.344 0-2.42 2.076-2.764 2.42-0.348-1.036 0-2.072-0.692-3.456-0.344 1.036-2.764 0.692-2.764 1.728-0.348-4.84 2.072-9.68 1.728-14.52 1.036 0.692 5.184 1.040 6.22 2.076 0.348-0.348 1.036-0.692 1.384-0.692-6.912-5.184-5.184-10.372-2.076-16.248 0.692-1.38 2.768-4.148 0.692-6.912-0.692-0.692 0.348-2.768 0.692-4.496h1.036v-0.688l-3.108-1.040c-0.692 1.040-4.84 3.112-4.84 4.84v-17.628c3.456-1.036 3.456-5.876 4.84-8.296 0.688 1.036 1.036 1.728 1.38 2.764l0.348-0.344c-0.348-2.076-0.692-4.148-1.384-6.224-0.692-3.112-1.384-5.876-1.728-8.988 0-0.344 0.692-1.036 0.692-1.38-3.804-8.644-1.728-18.324-3.112-27.312-1.036-6.568 0-13.48-0.692-20.392-0.692-5.88-2.072-12.1-3.456-17.976-0.344-1.036-1.036-1.384-2.764-2.076 0.688 4.148 0.344 6.916-0.348 10.716-0.344 0-4.84 2.42-5.184 2.42 0-4.84 2.764-11.408 3.804-16.936-1.040 0.344-5.188 2.764-5.532 2.764-0.692-4.148-0.692-9.68-1.036-14.172-0.348-3.456-3.46-6.568-3.804-10.372 0-2.072 2.42-3.456 2.072-6.912h2.768c0 6.912 3.112 13.136 3.112 20.396h1.036c0.344-0.692 1.384-1.384 1.036-1.732-0.692-3.8-2.072-7.948-1.728-11.752 0-2.072 1.728-4.148 1.036-6.568-0.692-2.072-1.036-4.148-1.38-7.256-0.348 1.728-0.692 2.416-0.692 3.456-0.348 0-3.456 0.344-3.804 0.344-0.344-2.072 2.42-4.148 2.076-5.876-0.348-0.348-0.692-0.348-1.384-0.692l-11.408 16.592c-8.988 13.136-17.976 26.272-26.964 39.752-2.42 3.46-4.492 6.916-6.22 10.372-10.716 18.32-22.468 35.952-35.604 52.888-10.028 12.792-17.976 26.62-27.312 40.1-8.64 12.788-17.284 25.236-25.924 38.024-3.112 4.148-6.912 7.952-9.68 12.444-8.988 14.172-16.936 28.692-25.924 42.864-7.604 11.756-15.904 23.16-23.852 34.568-2.764 3.804-5.532 7.952-8.296 12.1-0.348 0.692-0.692 1.384-0.692 2.42-0.692 7.604-1.384 15.208-1.728 22.468 0 6.916 0.692 13.828 0.692 21.088v6.22c0 1.728 0.344 3.112 0.344 4.84 0.344 0.348 0.692 1.036 1.036 1.384-10.024 0-20.392 0.344-30.42 0-6.564-0.348-10.024 2.42-14.516 7.256-13.136 14.868-22.816 31.804-34.224 47.704-10.716 15.212-21.776 30.076-32.84 44.94-8.984 12.1-17.972 23.852-26.96 35.952-10.024 13.824-19.704 27.652-30.076 41.48-12.444 16.592-25.232 33.184-38.024 49.776-5.876 7.608-12.444 14.864-19.012 22.816 4.492-0.692 8.64-1.384 12.792-1.728l16.592-1.036c12.444-1.040 24.888-1.728 37.332-3.456 10.372-1.384 20.74-3.46 31.456-5.188 22.816-3.8 45.284-10.024 67.064-17.284 12.788-4.148 25.232-9.68 37.676-14.864 28-11.408 54.62-25.232 80.888-39.752 8.3-4.492 13.136-11.752 19.36-18.32 8.988-9.336 17.976-18.668 26.616-28.348 10.024-11.408 19.36-23.16 29.036-34.912 8.644-10.372 17.632-20.74 26.272-31.112 2.768-3.112 4.84-6.912 7.26-10.368 5.532-8.296 11.752-16.248 16.592-25.236 3.46-6.568 5.532-14.172 7.952-21.432 3.456-10.716 6.912-21.088 10.372-31.804 2.416-7.948 4.492-16.244 6.22-24.54 1.384-5.532 1.036-11.408 2.764-16.94 2.076-7.26 0-15.208 2.076-22.468 0.344-0.692 0.692-1.728 1.036-2.42 1.384-1.384 2.42-2.764 0.348-4.84-0.348-0.344-0.348-1.728 0-2.764 0.688 0.688 1.036 1.38 1.728 2.42 0-0.692 0.344-1.040 0.344-1.384 0-1.384-0.344-2.764 0-4.148 0-0.692 0.692-1.728 1.036-2.42 0.692 0.692 1.384 1.036 2.768 2.072 3.108-11.752 3.456-23.504 3.456-35.604 0-11.408 2.072-22.812-2.764-33.876 1.036 3.804-1.384 7.26-0.348 10.716v0 0zM752.005 362.28c0.344 0 0.692-0.348 0.692-0.348l-0.348 0.348c0 0.344 0 0.344-0.344 0v0 0zM806.621 20.748c-3.8-2.764-7.604-5.184-12.444-6.22-0.344 0.344-0.344 0.692-0.692 1.036 3.804 2.42 7.952 4.84 11.756 7.26 0.344-0.692 1.036-1.384 1.38-2.076v0 0zM158.476 489.144c3.8 4.84 7.604 9.68 11.752 14.516 0.344-0.344 3.112-1.036 3.456-1.38-3.8-4.84-8.988-11.408-12.788-16.592-0.692 0.688-1.728 3.108-2.42 3.456v0 0zM60.304 319.76c-2.768 5.876-5.532 12.1-8.296 17.976 0.344 0.344 2.764 1.384 3.108 1.384 3.804-5.532 5.532-12.1 8.296-17.976 0 0-2.764-1.384-3.108-1.384v0 0zM148.452 485.688c-2.076-3.112-4.148-6.568-6.224-9.68-0.344 0.344-4.148-1.384-4.492-1.036 2.072 3.108 7.256 8.64 9.332 11.752 0.344-0.348 0.692-0.692 1.384-1.036v0 0zM769.633 6.576c0.348 0 0.348 0.348 0.692 0.348 2.42-0.348 5.188-0.692 7.952-0.692-4.496-3.112-7.26-2.768-8.644 0.344v0 0zM149.14 471.168c0.348 1.036 1.040 2.076 1.728 3.112 0.692 0 1.732 0.344 1.732 0.344 1.38 2.42 1.38 4.148 2.764 6.224-0.344 0.344-0.692 0.344-1.036 0.692-2.076-1.384-4.148-3.112-6.224-4.496 0.692-0.692 0.692-1.036 0.692-1.728-2.764 0.344-3.804-1.036-5.184-4.84-0.348-1.036-2.076-1.38-3.804-2.764-0.344-0.692-0.692-2.42-1.384-4.148l0.348-0.348c-0.692-0.688-1.728-1.036-1.728-1.036-2.076-2.072-4.496-3.804-6.568-5.876-0.348-1.036-0.692-2.076-0.692-3.112 2.42 2.42 6.568 6.916 9.68 9.68l0.344-0.344c1.384 2.072 2.42 4.148 3.804 6.22 0.344-0.344 0.344-0.692 0.692-1.036-1.040-2.764-2.076-5.876-3.112-8.644-0.692-0.344-1.728-1.036-1.728-0.692-1.384-1.036-2.42-2.416-3.804-3.456l-6.22-4.148c-3.46-3.112-6.916-5.876-10.716-8.988-2.42-3.8-4.84-7.256-7.608-11.752 4.148 1.036 5.188-0.692 4.84-4.148 4.84-0.692 5.184 3.112 6.568 5.876 0.348 0.692 0.692 2.076 1.384 2.42 3.112 2.764 6.568 5.184 10.024 7.952 0.692 0.692 0.692 2.072 0.692 3.112 0 0.344-1.728 0.344-2.764 0.688 3.108 3.46 7.604 9.336 10.716 13.136 1.728 1.040 3.456 2.42 3.456 3.46-0.348 3.8 2.072 4.836 4.836 6.22-1.38 1.036-1.728 2.076-1.728 2.42v0 0zM156.056 474.972c-1.384-2.42-2.764-4.496-4.148-6.916l-2.076 1.040c-1.38-7.952-6.22-14.868-11.060-16.248 1.384-0.692 2.764-1.384 3.804-1.036 1.036 0.344 1.728 2.072 2.416 3.108l9.336 13.484 3.112 5.184-1.384 1.384zM40.944 323.22c1.728 0 3.456-0.348 5.532-0.348 0 1.384 1.728 1.036 1.728 2.42h1.036c0-1.728 0.348-3.112 0.348-4.84h-7.26c-0.348 0.348-1.728 2.42-1.384 2.768v0 0zM38.18 339.12c-1.036 1.036-2.768 2.072-2.768 3.112-0.344 1.38 0.692 3.108 1.732 4.836 0.688-2.416 1.036-4.492 1.728-6.912-0.348-0.344-0.692-0.692-0.692-1.036v0 0zM46.82 361.244c1.384-3.46 2.768-7.26 4.148-10.716-0.344 0-2.42-1.040-2.764-1.384-1.384 3.456-3.112 7.26-4.492 10.716 0.344 0.344 2.416 1.384 3.108 1.384v0 0zM816.301 30.772c1.728 0.692 3.804 1.040 6.568 1.732-3.112-2.42-5.532-4.148-7.604-6.224-0.348 0.348-0.692 0.692-1.036 0.692 0.688 1.384 1.38 2.42 2.072 3.804v-0.004zM391.465 761.192c2.072 1.384 3.8 2.42 5.876 3.804l0.692-0.692c-2.076-2.768-3.804-5.532-6.224-8.988-0.344 2.42-0.344 3.804-0.692 5.532-0.344 0 0 0 0.348 0.344v0 0zM492.745 586.28c3.112 1.38 6.224 2.764 10.028 4.492-0.348-2.072-0.348-3.456-0.348-4.84-1.036 0.348-2.42 0.692-3.456 0.692-2.072-0.344-5.876-3.112-7.604-3.456-0.348 0 1.38 2.764 1.38 3.112v0 0zM752.005 293.144c0.692-3.456 7.26-5.184 0.692-8.64 1.036-0.692 2.072-1.040 3.112-1.732 0-0.344-0.348-1.036-0.692-1.38-0.692-0.348-2.076-1.040-2.768-0.692-0.344 0-1.036 1.384-1.036 2.072 0 3.112 0.348 6.224 0.692 10.372v0 0z" />
<glyph unicode="&#xe91b;" d="M1024 448c0-282.77-229.23-512-512-512s-512 229.23-512 512c0 282.77 229.23 512 512 512s512-229.23 512-512z" />
<glyph unicode="&#xe91c;" d="M665.972 145.268c-101.097-37.236-212.061-37.236-313.158 0-9.309 3.351-16.756 14.336-16.756 23.831v24.39c0 9.495 7.447 14.15 16.756 10.799 101.097-37.236 212.061-37.236 313.158 0 9.309 3.351 16.756-1.303 16.756-10.799v-24.39c-0.186-9.495-7.633-20.48-16.756-23.831v0z" />
<glyph unicode="&#xe91d;" d="M665.972 175.057c-101.097-51.759-212.061-51.759-313.158 0-9.309 4.655-16.756 19.921-16.756 33.14v33.699c0 13.219 7.447 19.735 16.756 14.895 101.097-51.759 212.061-51.759 313.158 0 9.309 4.655 16.756-1.676 16.756-14.895v-33.699c-0.186-13.219-7.633-28.486-16.756-33.14v0z" />
<glyph unicode="&#xe91e;" d="M523.729 132.608c0-7.918-6.418-14.336-14.336-14.336s-14.336 6.418-14.336 14.336c0 7.918 6.418 14.336 14.336 14.336s14.336-6.418 14.336-14.336z" />
<glyph unicode="&#xe91f;" d="M521.681 134.656c0-6.786-5.502-12.288-12.288-12.288s-12.288 5.502-12.288 12.288c0 6.786 5.502 12.288 12.288 12.288s12.288-5.502 12.288-12.288z" />
<glyph unicode="&#xe920;" d="M517.213 130.374c0-2.365-1.917-4.282-4.282-4.282s-4.282 1.917-4.282 4.282c0 2.365 1.917 4.282 4.282 4.282s4.282-1.917 4.282-4.282z" />
<glyph unicode="&#xe921;" d="M547.747 86.063c0-21.182-17.171-38.353-38.353-38.353s-38.353 17.171-38.353 38.353c0 21.182 17.171 38.353 38.353 38.353s38.353-17.171 38.353-38.353z" />
<glyph unicode="&#xe922;" d="M543.837 85.69c0-19.023-15.421-34.444-34.444-34.444s-34.444 15.421-34.444 34.444c0 19.023 15.421 34.444 34.444 34.444s34.444-15.421 34.444-34.444z" />
<glyph unicode="&#xe923;" d="M519.447 96.675c2.048-1.862 3.165-4.468 3.165-8.192s-1.117-6.33-3.165-8.192c-2.234-1.676-5.399-2.607-9.868-2.607h-3.91v-8.378h-6.703v29.975h10.612c4.468 0 7.82-0.745 9.868-2.607v0zM514.607 84.945c0.745 0.931 1.117 2.234 1.117 3.91s-0.559 2.979-1.489 3.724c-1.117 0.745-2.607 1.117-4.841 1.117h-3.724v-10.054h4.468c2.234 0 3.724 0.372 4.468 1.303v0z" />
<glyph unicode="&#xe924;" d="M820.131 398.103c9.309-127.535-128.652-242.036-308.876-241.85-180.038-0.186-318.185 114.316-308.876 241.85 9.309 127.907 148.015 233.472 309.248 233.658 161.42-0.186 299.008-105.751 308.503-233.658v0z" />
<glyph unicode="&#xe925;" d="M510.697 649.635c-169.425 0-326.749-119.343-296.96-301.056 5.958-16.756 15.825-60.323 62.929-98.863 14.15-11.543 38.54-21.225 50.083-13.405 29.603 20.108-22.9 77.824 37.050 131.072h-1.303c32.582 24.762 78.755 44.497 147.828 44.497s115.247-19.735 147.828-44.497h-1.303c59.951-53.248 7.633-110.964 37.050-131.072 11.543-7.82 36.119 1.862 50.083 13.405 47.104 38.54 57.158 82.106 63.116 98.863 29.789 181.9-126.976 301.056-296.401 301.056v0z" />
<glyph unicode="&#xe926;" d="M656.477 347.834c-28.486 35.002-82.479 68.887-145.222 68.887h-0.745c-62.929 0-116.922-33.885-145.222-68.887-29.417-35.747-18.804-51.014-18.804-85.271 0-123.997 43.38-87.878 72.611-102.772 29.789-14.522 59.951-9.309 91.601-9.309v0h0.559c31.651 0 61.812-5.213 91.601 9.495 29.044 14.895 72.611-21.597 72.611 102.4-0.186 34.071 10.426 49.711-18.991 85.457v0z" />
<glyph unicode="&#xe927;" d="M353.559 402.944c0-28.688-23.256-51.945-51.945-51.945s-51.945 23.256-51.945 51.945c0 28.688 23.256 51.945 51.945 51.945s51.945-23.256 51.945-51.945z" />
<glyph unicode="&#xe928;" d="M358.214 411.695c0-28.688-23.256-51.945-51.945-51.945s-51.945 23.256-51.945 51.945c0 28.688 23.256 51.945 51.945 51.945s51.945-23.256 51.945-51.945z" />
<glyph unicode="&#xe929;" d="M332.893 434.967c0-7.403-6.002-13.405-13.405-13.405s-13.405 6.002-13.405 13.405c0 7.403 6.002 13.405 13.405 13.405s13.405-6.002 13.405-13.405z" />
<glyph unicode="&#xe92a;" d="M770.607 402.944c0-28.688-23.256-51.945-51.945-51.945s-51.945 23.256-51.945 51.945c0 28.688 23.256 51.945 51.945 51.945s51.945-23.256 51.945-51.945z" />
<glyph unicode="&#xe92b;" d="M767.628 411.695c0-28.688-23.256-51.945-51.945-51.945s-51.945 23.256-51.945 51.945c0 28.688 23.256 51.945 51.945 51.945s51.945-23.256 51.945-51.945z" />
<glyph unicode="&#xe92c;" d="M742.307 434.967c0-7.403-6.002-13.405-13.405-13.405s-13.405 6.002-13.405 13.405c0 7.403 6.002 13.405 13.405 13.405s13.405-6.002 13.405-13.405z" />
<glyph unicode="&#xe92d;" d="M401.408 603.089c0 0-175.942-30.348-183.017-240.547-0.186-3.165-3.537-5.213-6.33-3.537l-5.585 3.351-4.282 55.11 8.006 112.454 73.356 54.179 65.908 26.624 51.945-7.633z" />
<glyph unicode="&#xe92e;" d="M619.799 603.089c0 0 175.942-30.348 183.017-240.547 0.186-3.165 3.537-5.213 6.33-3.537l5.585 3.351 4.282 55.11-8.006 112.454-73.356 54.179-65.908 26.624-51.945-7.633z" />
<glyph unicode="&#xe92f;" d="M507.011 228.761v106.041h7.744v-105.79c11.412-1.338 26.24-7.972 40.439-12.249 14.708-5.213 28.858-7.261 23.273-8.006-19.363-0.745-40.588 6.516-66.653 6.144-26.252 0.372-47.476-6.889-66.653-6.144-5.585 0.931 8.564 2.979 23.273 8.006 13.461 4.054 27.345 10.228 38.578 11.999zM559.476 370.548c6.144-13.591-15.081-35.747-48.78-35.747s-54.924 22.156-48.78 35.747c5.958 13.964 27.369 18.432 48.78 18.618 21.411-0.186 42.822-4.655 48.78-18.618z" />
<glyph unicode="&#xe930;" d="M401.408 603.089c0 0-207.22-28.672-189.347-234.403 0.931-10.426-41.332 44.497-74.1 61.254s-31.651 70.935-31.651 70.935c0 0-0.559 94.394 131.817 122.321 132.189 27.741 163.281-20.108 163.281-20.108zM619.799 603.089c0 0 207.22-28.672 189.347-234.403-0.931-10.426 41.332 44.497 74.1 61.254s31.651 70.935 31.651 70.935c0 0 0.559 94.394-131.817 122.321-132.189 27.741-163.281-20.108-163.281-20.108z" />
<glyph unicode="&#xe931;" d="M510.883 454.889c-64.419 0-129.583-63.302-115.991-56.227 25.135 13.219 39.657 36.492 115.991 36.492s90.671-23.273 115.991-36.492c13.591-7.075-51.572 56.227-115.991 56.227v0z" />
<glyph unicode="&#xe932;" d="M510.883 482.63c-48.966 0-98.304-48.035-88.064-42.636 19.177 10.054 43.753 27.741 88.064 27.741s68.887-17.687 88.064-27.741c10.24-5.399-39.098 42.636-88.064 42.636v0z" />
<glyph unicode="&#xe933;" d="M510.511 638.464c-53.993 0-108.73-30.906-97.373-27.369 21.225 6.516 48.407 17.873 97.373 17.873s76.148-11.357 97.373-17.873c11.357-3.537-43.194 27.369-97.373 27.369v0z" />
<glyph unicode="&#xe934;" d="M522.985 377.996c1.489-3.351-3.724-8.751-12.102-8.751s-13.591 5.399-12.102 8.751c1.489 3.351 6.703 4.468 12.102 4.655 5.213 0 10.612-1.117 12.102-4.655v0z" />
<glyph unicode="&#xe935;" d="M513.142 952.202l-504.69-503.060 504.69-505.385 502.373 505.385-502.373 503.060z" />
<glyph unicode="&#xe936;" d="M513.055 906.008v42.468l-501.29-499.425h42.955l458.335 456.958z" />
<glyph unicode="&#xe937;" d="M513.055 906.008v42.468l502.848-499.425h-46.482l-456.366 456.958z" />
<glyph unicode="&#xe938;" d="M513.055-10.048v-47.013l-501.29 506.112h42.955l458.335-459.098z" />
<glyph unicode="&#xe939;" d="M513.055-10.048v-47.013l502.848 506.112h-46.482l-456.366-459.098z" />
<glyph unicode="&#xe93a;" d="M261.239 38.866h-97.174l-37.949 36.983v706.189h-30.12l-25.786 25.821v78.938l26.712 28.973h339.846l30.555-30.591v-74.924l-25.39-30.946h-25.678v-238.713l241.626 238.713h-13.49l-28.103 30.308v79.445l27.611 25.346h343.029l27.148-27.184v-75.139l-752.839-773.219z" />
<glyph unicode="&#xe93b;" d="M513.055-64l-512.372 513.051 512.372 510.949 510.262-510.949-510.262-513.051zM16.378 449.051l496.677-497.343 494.559 497.343-494.559 495.23-496.677-495.23z" />
<glyph unicode="&#xe93c;" d="M432.406 869.153l15.096 9.751-15.423 16.011h-326.911l-16.61-16.634v-62.916l18.415-18.439 8.784 18.439-11.553 11.573v44.353l8.664 7.714 308.643-0.38 10.894-9.471z" />
<glyph unicode="&#xe93d;" d="M166.294 816.859v-736.352l10.355-9.859-8.297-15.679-21.775 21.447v721.352l19.717 19.091z" />
<glyph unicode="&#xe93e;" d="M113.477 816.859l-6.504-19.933h39.491l22.845 19.933h-55.833z" />
<glyph unicode="&#xe93f;" d="M665.918 816.604l-13.809 9.755v39.531l14.445 14.465h301.394l11.557-15.427 16.446 12.978-16.929 15.468h-324.024l-16.13-16.15v-63.399l16.985-15.371zM393.742 493.619l-31.474-76.474 355.318 356.759-1.737 43.159-322.106-323.444z" />
<glyph unicode="&#xe940;" d="M431.695 869.437l15.806 9.467v-62.045l-18.044-18.068h-35.065l-0.651-305.172-31.354-76.298v399.538h58.558l10.894 8.864-0.143 43.714z" />
<glyph unicode="&#xe941;" d="M978.432 869.234l17.517 8.672v-56.656l-745.968-766.28h-81.631l7.965 15.060 62.697-0.004 739.528 764.627-0.108 34.582z" />
<glyph unicode="&#xe942;" d="M715.848 817.063l-18.168-18.252-41.828-0.36 10.214 18.336c0.34 0 49.781 0.276 49.781 0.276z" />
<glyph unicode="&#xe943;" d="M663.689 880.945l-11.545-11.557v-42.44l10.111-10.123h53.417v-41.005l-353.368-358.653v399.151h58.725l12.048 12.064v42.947l-11.121 8.604h-309.051l-10.111-10.127v-43.869l10.278-10.294h53.757v-735.026l10.111-10.123h61.086l740.527 765.146v33.747l-11.545 11.557h-303.319z" />
<glyph unicode="&#xe944;" d="M238.441 69.518h-61.905l-10.681 10.697v734.454h-53.185l-10.85 10.866v44.68l10.681 10.693h309.79l11.764-9.1v-43.829l-12.619-12.635h-58.158v-395.795l351.419 356.675v39.623h-52.845l-10.681 10.697v43.247l12.112 12.132h304.13l12.116-12.132v-34.545l-0.272-0.284-740.815-765.446zM177.347 71.471h60.267l739.964 764.563v32.952l-10.973 10.985h-302.512l-10.973-10.985v-41.633l9.539-9.551h53.992v-42.38l-355.322-360.634v402.507h59.297l11.476 11.496v42.060l-10.478 8.109h-308.316l-9.539-9.555v-43.062l9.711-9.723h54.323v-735.593l9.543-9.555z" />
<glyph unicode="&#xe945;" d="M538.229 385.491c-0.563-0.116-1.083-0.38-1.518-0.759l-14.321-12.316c-0.427-0.391-0.747-0.883-0.926-1.434l-14.325-40.163c-0.431-1.202-0.135-2.545 0.759-3.46l10.953-10.965c0.636-0.612 1.482-0.942 2.361-0.93h44.233c0.879-0.012 1.725 0.32 2.357 0.93l11.545 11.641c0.399 0.399 0.687 0.895 0.843 1.434l12.304 42.271c0.34 1.166 0.016 2.429-0.843 3.287l-9.523 9.535c-0.632 0.612-1.482 0.942-2.357 0.926h-40.866c-0.224 0.024-0.451 0.024-0.675 0v0zM457.176 272.271c-1.242-0.268-2.221-1.218-2.528-2.448l-5.477-21.767c-0.443-1.782 0.64-3.591 2.421-4.034 0.256-0.064 0.515-0.096 0.779-0.1h26.038l-64.542-184.513c-0.583-1.745 0.356-3.631 2.097-4.215 0.328-0.112 0.671-0.171 1.023-0.175h93.943c1.45-0.020 2.744 0.902 3.204 2.281l6.152 19.826c0.535 1.757-0.451 3.619-2.209 4.159-0.32 0.096-0.655 0.147-0.995 0.143h-21.231l63.867 186.455c0.583 1.745-0.356 3.631-2.097 4.215-0.328 0.112-0.675 0.171-1.023 0.175h-98.748c-0.224 0.020-0.447 0.020-0.671 0v0zM756.118 271.595c-0.723-0.151-1.379-0.535-1.858-1.099l-19.546-22.103h-31.091l-20.728 21.511c-0.62 0.643-1.466 1.007-2.357 1.015h-74.229c-1.399-0.004-2.645-0.879-3.12-2.193l-6.822-20.42c-0.583-1.741 0.352-3.627 2.093-4.215 0.332-0.108 0.675-0.167 1.023-0.171h19.886l-61.845-182.488c-0.583-1.745 0.356-3.631 2.097-4.219 0.328-0.108 0.675-0.167 1.023-0.171h79.030c1.399 0.004 2.641 0.879 3.12 2.193l6.064 17.805c0.583 1.741-0.352 3.631-2.093 4.215-0.332 0.112-0.675 0.167-1.023 0.171h-13.817l39.431 124.278h71.365l-44.992-144.36c-0.539-1.757 0.447-3.619 2.205-4.155 0.324-0.1 0.659-0.147 0.995-0.147h76.25c1.326 0.012 2.516 0.807 3.036 2.025l6.822 16.37c0.679 1.705-0.155 3.643-1.862 4.318-0.376 0.147-0.771 0.228-1.17 0.236h-13.817l40.107 126.388h67.909l-45.667-145.034c-0.535-1.757 0.451-3.619 2.205-4.155 0.324-0.1 0.659-0.147 0.999-0.147h83.748c1.375-0.008 2.617 0.831 3.12 2.109l6.822 17.805c0.632 1.725-0.256 3.635-1.981 4.266-0.364 0.135-0.747 0.204-1.135 0.204h-16.602l50.472 164.097c0.336 1.039 0.147 2.17-0.507 3.040l-15.671 21.092c-0.647 0.823-1.65 1.294-2.696 1.266h-59.904c-0.922 0.016-1.806-0.352-2.444-1.015l-18.874-20.752h-33.028l-19.546 21.428c-0.64 0.663-1.526 1.031-2.444 1.015h-48.28c-0.224 0.020-0.447 0.020-0.671 0v0z" />
<glyph unicode="&#xe946;" d="M513.434 310.772c2.089-2.013 4.821-3.116 7.593-3.116 0.060 0 0.12 0 0.183 0.004h44.097c2.964-0.092 5.769 1.051 8.042 3.235l11.516 11.621c1.334 1.334 2.313 3 2.82 4.773l12.299 42.263c1.139 3.911 0.060 8.129-2.816 10.993l-9.624 9.639c-2.137 2.061-4.946 3.196-7.778 3.116h-40.586c-0.583 0.032-1.166 0.020-1.741-0.040l-0.819-0.128c-1.878-0.395-3.631-1.27-5.002-2.476l-14.489-12.467c-1.395-1.27-2.444-2.876-3.052-4.662l-14.293-40.071c-1.434-3.998-0.435-8.537 2.585-11.613l11.061-11.073zM577.964 377.686l6.291-6.299-11.249-38.652-9.371-9.459-40.618-0.004-7.577 7.589 13.010 36.471 12.040 10.355h37.474z" />
<glyph unicode="&#xe947;" d="M965.945 253.22l-15.81 21.271c-2.133 2.708-5.433 4.278-8.888 4.235h-59.712c-3.104 0.072-6.047-1.182-8.185-3.388l-16.714-18.379h-26.129l-17.385 19.055c-2.133 2.205-5.085 3.384-8.054 3.388h-48c-0.579 0.032-1.166 0.020-1.741-0.040l-0.807-0.124c-2.401-0.499-4.602-1.806-6.108-3.567l-17.217-19.47h-24.252l-18.435 19.134c-2.057 2.129-4.942 3.368-7.969 3.392h-74.253c-4.654-0.012-8.845-2.96-10.434-7.338l-6.887-20.593c-1.953-5.82 1.19-12.148 7.015-14.105 1.103-0.368 2.253-0.563 3.503-0.575h8.996l-58.362-172.21c-1.941-5.812 1.202-12.136 7.019-14.093 1.107-0.368 2.257-0.563 3.507-0.575h79.054c4.658 0.012 8.853 2.964 10.486 7.482l6.080 17.84c1.945 5.816-1.198 12.14-7.019 14.097-1.107 0.372-2.257 0.567-3.503 0.579h-3.152l34.478 108.659h55.039l-41.848-134.265c-1.794-5.872 1.522-12.108 7.378-13.902 1.083-0.332 2.241-0.467 3.291-0.491h76.318c4.434 0.036 8.421 2.696 10.174 6.826l6.879 16.498c2.257 5.709-0.543 12.191-6.224 14.445-1.266 0.507-2.597 0.771-4.070 0.795h-3.148l35.149 110.768h51.551l-42.491-134.948c-1.786-5.868 1.53-12.104 7.382-13.894 1.059-0.328 2.162-0.491 3.231-0.491h83.756c4.626 0.028 8.764 2.804 10.462 7.122l6.867 17.916c2.105 5.765-0.867 12.172-6.631 14.281-1.21 0.443-2.484 0.671-3.819 0.679h-6.031l47.325 153.866c1.127 3.452 0.495 7.251-1.662 10.119v0zM899.142 73.62h20.649l-3.364-8.768h-74.604l47.025 149.332h-84.272l-45.059-142.003h17.704l-3.056-7.33h-67.17l46.334 148.658h-87.691l-44.385-139.889h18.192l-2.988-8.768h-69.531l63.331 186.878h-24.515l3.803 11.381h69.056l21.703-22.526h37.929l20.513 23.201 44.397 0.004 20.468-22.446h39.93l19.794 21.767h55.806l12.927-17.401-52.926-172.090z" />
<glyph unicode="&#xe948;" d="M520.372 88.744c-1.079 0.332-2.158 0.463-3.291 0.491h-10.306l60.344 176.161c1.953 5.824-1.194 12.148-7.019 14.105-1.099 0.368-2.249 0.563-3.503 0.575h-98.468c-0.583 0.032-1.166 0.020-1.745-0.040l-0.851-0.135c-4.179-0.898-7.422-4.034-8.457-8.173l-5.481-21.787c-1.482-5.952 2.154-12.004 8.125-13.502 0.847-0.208 1.721-0.32 2.653-0.324h15.031l-60.939-174.227c-1.953-5.824 1.198-12.148 7.015-14.101 1.107-0.368 2.257-0.563 3.507-0.575h93.995c4.809 0 9.040 3.048 10.61 7.774l6.16 19.858c1.794 5.868-1.522 12.108-7.378 13.902v0zM423.334 62.827l66.076 188.904h-31.262l3.204 12.731h88.937l-65.368-190.841h26.101l-3.348-10.794h-84.339z" />
<glyph unicode="&#xe949;" glyph-name="vscode" d="M767.915 959.996v-879.469l-767.915 114.054 767.915-258.577 256 106.492v795.131l0.085 0.038-0.085 0.169v15.662l-256 106.5zM499.185 810.165l-235.208-232.5-141.608 106.646-58.362-19.492 144.069-142.415-144.069-142.408 58.362-19.5 141.615 106.654 235.192-232.485 140.869 59.854v455.792l-140.862 59.854zM499.177 644.273v-243.708l-161.815 121.854 161.815 121.854z" />
<glyph unicode="&#xe94a;" d="M819.2 889.6h204.8l-512-883.2-512 883.2h391.68l120.32-204.8 117.76 204.8h189.44z" />
<glyph unicode="&#xe94b;" d="M0 889.6l512-883.2 512 883.2h-204.8l-307.2-529.92-309.76 529.92h-202.24z" />
<glyph unicode="&#xe94c;" d="M202.24 889.6l309.76-532.48 307.2 532.48h-189.44l-117.76-204.8-120.32 204.8h-189.44z" />
<glyph unicode="&#xe94d;" glyph-name="webassembly" d="M629.16 959.994h394.84v-1023.989h-1024v1023.989h394.84c-0.079-1.834-0.27-3.645-0.27-5.501 0-64.858 52.573-117.442 117.43-117.442s117.442 52.584 117.442 117.442c0 1.856-0.191 3.668-0.281 5.501zM862.469 45.594h70.393l-106.63 362.529h-107.013l-87.808-362.529h68.233l17.775 80.721h121.942l23.108-80.721zM488.869 45.594h67.367l86.436 362.529h-66.512l-52.944-249.812h-0.866l-50.277 249.812h-63.485l-55.936-246.764h-0.866l-46.419 246.764h-67.805l78.122-362.529h68.66l53.788 246.764h0.866l49.872-246.764zM760.002 318.759h28.519l34.010-133.034h-92.117l29.588 133.034z" />
<glyph unicode="&#xe94e;" d="M349.316 110.922l-194.888 533.204 535.2 143.164 97.356-559.257-202.92-119.324-234.748 2.212z" />
<glyph unicode="&#xe94f;" d="M571.96 155.202l163.948 96.464-83.217 477.921-218.732-58.516 138-515.869z" />
<glyph unicode="&#xe950;" d="M944.172 511.438l24.936-85.8-190.912-53.94c0 0 0-114.828-92.648-160.476-92.636-45.648-164.604-6.94-164.604-6.94l-11.524 33.204 137.424 37.364 30.416 117.612-88.536 87.084-127.268-38.492-11.052 30.208c0-0.004 59.464 131.424 235.168 56.676 0 0 55.368-34.548 67.784-65.016l190.816 48.516zM969.108 517.882l30.42 8.764 24.472-87.621-31.84-9.656-23.052 88.512z" />
<glyph unicode="&#xe951;" d="M979.824 521.75l19.704 4.896 24.472-87.621-31.84-9.656-8.336 29.34 12.704 4.972-16.704 58.068zM923.121 506.070l21.052 5.368 24.936-85.8-190.912-53.94c0 0-2.056-100.192-68.496-145.56-66.328-45.328-141.080-43.964-188.78-21.86l-5.316 15.312c0 0 129.816-30.524 194.096 67.016 38.764 64.308 38.080 110.668 38.080 110.668l191.572 51.86-16.232 56.936zM450.38 471.314l112.056 32.52 26.24-24.232-127.244-38.492-11.052 30.204z" />
<glyph unicode="&#xe952;" d="M55.335 410.502l22.496-86.456 191.576 51.312c0 0 58.784-98.617 161.764-90.405 103.012 8.208 144.976 78.276 144.976 78.276l-7.1 34.412-137.164-38.228-86.333 85.428 31.492 120.197 129.064 32.048-5.976 31.624c0 0-118.32 82.489-231.064-71.62 0 0-29.84-57.992-24.972-90.516l-188.76-56.072zM30.627 403.266l-30.628-8.024 23.816-87.772 32.308 7.972-25.496 87.824z" />
<glyph unicode="&#xe953;" d="M19.447 401.142l-19.448-5.9 23.816-87.772 32.308 7.972-7.816 29.5-13.52-2.244-15.34 58.444zM76.227 416.666l-20.892-6.164 22.496-86.456 191.576 51.312c0 0 53.068-84.988 133.348-89.988 80.2-4.948 143.688 34.416 173.392 77.86l-3.236 15.864c0 0-95.956-92.672-201.124-41.756-66.199 35.412-89.304 75.648-89.304 75.648l-191.152-53.52-15.104 57.2zM500.132 628.682l-112.876-29.364-10.184-34.284 129.060 32.048-6 31.6z" />
<glyph unicode="&#xe954;" d="M512 960l452.49-255.958v-512.085l-452.49-255.958-452.49 255.958v512.085z" />
<glyph unicode="&#xe955;" d="M883.725 209.721l-356.7-201.997v157.091l222.317 122.429 134.38-77.523zM908.146 231.747v422.099l-130.455-75.301v-271.493l130.455-75.301zM138.908 209.721l356.7-201.828v157.091l-222.317 122.26-134.38-77.523zM114.491 231.747v422.099l130.455-75.301v-271.493l-130.455-75.301zM129.688 681.163l365.92 206.949v-151.969l-236.32-129.943-129.6 74.962zM892.775 681.163l-365.751 206.949v-151.969l236.151-130.112 129.6 75.131z" />
<glyph unicode="&#xe956;" d="M495.609 200.672l-219.243 120.723v238.881l219.243-126.528v-233.077zM527.028 200.672l219.243 120.55v239.051l-219.243-126.528v-233.077zM291.047 587.934l220.268 121.062 220.098-121.062-220.098-127.039-220.268 127.039z" />
<glyph unicode="&#xe957;" glyph-name="wordpress" d="M72.776 448.013c0-173.849 101.032-324.089 247.536-395.285l-209.51 574.033c-24.369-54.623-38.026-115.072-38.026-178.747v0zM808.49 470.176c0 54.28-19.497 91.872-36.221 121.132-22.263 36.179-43.133 66.817-43.133 102.995 0 40.375 30.621 77.957 73.753 77.957 1.947 0 3.794-0.242 5.692-0.351-78.141 71.589-182.249 115.298-296.594 115.298-153.441 0-288.437-78.726-366.97-197.968 10.305-0.309 20.015-0.527 28.264-0.527 45.94 0 117.053 5.575 117.053 5.575 23.676 1.396 26.467-33.379 2.817-36.179 0 0-23.793-2.8-50.269-4.187l159.944-475.742 96.118 288.269-68.43 187.489c-23.651 1.387-46.057 4.187-46.057 4.187-23.667 1.387-20.893 37.575 2.775 36.179 0 0 72.534-5.575 115.691-5.575 45.932 0 117.053 5.575 117.053 5.575 23.693 1.396 26.476-33.379 2.817-36.179 0 0-23.843-2.8-50.269-4.187l158.723-472.139 43.809 146.395c18.987 60.749 33.438 104.383 33.438 141.983v0zM519.694 409.594l-131.778-382.924c39.347-11.567 80.958-17.892 124.074-17.892 51.147 0 100.196 8.843 145.852 24.896-1.178 1.881-2.248 3.878-3.126 6.051l-135.020 369.87zM897.378 658.735c1.889-13.991 2.959-29.008 2.959-45.163 0-44.569-8.324-94.672-33.396-157.319l-134.16-387.889c130.575 76.143 218.403 217.609 218.403 379.64 0.008 76.361-19.497 148.167-53.804 210.73v0zM511.988 959.984c-282.302 0-511.988-229.668-511.988-511.971 0-282.335 229.685-511.996 511.988-511.996 282.293 0 512.013 229.66 512.013 511.996-0.008 282.302-229.718 511.971-512.013 511.971v0zM511.988-40.514c-269.357 0-488.51 219.154-488.51 488.527 0 269.357 219.146 488.494 488.51 488.494 269.348 0 488.485-219.137 488.485-488.494 0-269.373-219.137-488.527-488.485-488.527v0z" />
<glyph unicode="&#xe958;" glyph-name="amp" d="M687.548 494.882l-214.784-357.444h-38.912l38.468 232.909-119.142-0.154c0 0-1.126-0.035-1.655-0.035-10.735 0-19.422 8.687-19.422 19.422 0 4.608 4.284 12.407 4.284 12.407l214.084 357.018 39.561-0.171-39.441-233.267 119.757 0.154c0 0 1.28 0.017 1.894 0.017 10.735 0 19.422-8.687 19.422-19.422 0-4.352-1.707-8.175-4.13-11.418l0.017-0.017zM512 960c-282.778 0-512-229.239-512-512 0-282.778 229.222-512 512-512 282.761 0 512 229.222 512 512 0 282.761-229.239 512-512 512v0z" />
<glyph unicode="&#xe959;" d="M512 419.912l-483.909-483.912h967.821z" />
<glyph unicode="&#xe95a;" d="M809.329 178.756l214.671-214.674v429.345z" />
<glyph unicode="&#xe95b;" d="M483.912 448l-483.912 483.912v-967.83z" />
<glyph unicode="&#xe95c;" d="M1024 504.775v455.225h-455.228z" />
<glyph unicode="&#xe95d;" d="M782.334 690.263l241.155-241.155-242.255-242.255-241.155 241.155z" />
<glyph unicode="&#xe95e;" d="M28.085 960l222.9-222.903h484.517l-222.903 222.903z" />
<glyph unicode="&#xe95f;" d="M512 476.085l221.287 221.291h-442.578z" />
<glyph unicode="&#xe960;" glyph-name="android" d="M944.926 566.284c0 34.774-28.075 63.062-62.977 63.062s-63.148-28.161-63.148-63.148v-264.112c0-34.561 28.289-63.148 63.276-63.148 34.732 0 62.977 28.588 62.977 63.148v264.538h-0.427zM230.118 617.271l0.171-409.607c0-37.761 30.038-67.841 67.116-67.841h45.356v-139.949c0-34.988 28.161-63.233 62.721-63.233s62.593 28.161 63.148 62.636v139.949h85.037v-139.949c0-35.116 28.161-63.276 62.721-63.276 35.116 0 63.233 28.161 63.233 63.574v139.949h45.996c37.121 0 67.116 30.294 67.116 67.329v410.887l-562.741-0.469zM641.773 742.287c-13.227 0-23.893 10.667-23.893 23.893 0 13.013 10.667 23.808 23.893 23.893 13.227 0 23.893-10.88 23.893-23.893 0-13.227-10.667-23.893-23.893-23.893zM383.209 742.287c-13.227 0-23.893 10.667-23.893 23.893 0 13.099 10.667 23.808 23.893 23.808s23.893-10.88 23.893-24.32-10.752-24.192-24.32-24.192zM651.16 865.211l43.905 80.684c2.56 4.48 0.597 9.643-3.243 12.16-4.437 1.92-9.557 0.64-12.117-3.84l-44.801-81.068c-37.036 17.28-79.19 26.88-123.309 26.88s-86.103-9.173-123.394-25.728l-44.118 81.196c-2.261 4.181-7.68 5.76-11.861 3.413-4.267-1.92-5.803-7.68-3.413-11.52l43.948-80.001c-86.615-44.673-145.070-129.709-145.070-227.417h568.671c0 97.709-58.369 182.744-144.899 227.417zM142.095 629.645c-34.86 0-63.148-28.374-63.148-63.276v-264.197c0-34.988 28.332-63.148 63.318-63.148 34.732 0 63.020 28.161 63.020 63.148v264.112c0 34.774-28.161 63.062-62.721 63.062z" />
<glyph unicode="&#xe961;" glyph-name="angular" d="M423.743 420.459h176.516l-88.301 209.437zM511.958 960l-482.922-169.898 73.655-630.233 409.267-223.869 409.395 223.656 73.612 630.361-483.007 169.94zM813.326 178.742h-112.553l-60.632 149.488h-256.32l-60.632-149.488h-112.639l301.453 668.149 301.325-668.149z" />
<glyph unicode="&#xe962;" glyph-name="apple" d="M302.415-44.255c-20.169 13.475-38.079 29.977-53.046 49.038-16.331 19.743-31.47 40.509-45.37 62.001-32.664 47.759-58.206 99.995-75.903 155.045-21.321 64.048-31.682 125.367-31.682 185.364 0 66.948 14.499 125.367 42.727 174.405 20.895 38.378 52.023 70.487 89.548 93.045 36.246 22.6 78.461 34.967 121.102 35.819 14.924 0 31.129-2.132 48.185-6.396 12.366-3.411 27.291-8.955 45.626-15.778 23.453-8.955 36.246-14.499 40.509-15.778 13.645-5.117 25.158-7.249 34.113-7.249 6.823 0 16.63 2.132 27.504 5.544 6.183 2.132 17.91 5.97 34.54 13.219 16.459 5.97 29.508 11.087 39.87 14.924 15.778 4.69 31.043 8.955 44.774 11.087 16.63 2.559 33.133 3.411 48.952 2.132 30.275-2.132 57.993-8.528 82.725-17.91 43.495-17.483 78.589-44.774 104.771-83.578-11.087-6.823-21.321-14.754-30.915-23.453-20.767-18.336-38.378-40.084-52.449-64.175-18.336-32.834-27.717-69.932-27.461-107.457 0.64-46.181 12.366-86.776 35.819-121.956 16.502-25.585 38.548-47.503 65.413-65.498 13.219-8.955 24.817-15.138 35.819-19.189-5.117-15.991-10.746-31.555-17.27-46.906-14.796-34.412-32.408-67.374-53.302-98.502-18.421-26.864-32.92-46.906-43.921-60.125-17.142-20.468-33.687-35.819-50.318-46.778-18.336-12.153-39.87-18.592-61.916-18.592-14.924-0.64-29.85 1.279-44.091 5.416-12.366 4.051-24.562 8.614-36.502 13.773-12.494 5.714-25.414 10.575-38.59 14.499-16.204 4.265-32.834 6.311-49.635 6.268-17.057 0-33.687-2.132-49.464-6.183-13.219-3.753-26.012-8.358-38.676-13.859-17.91-7.463-29.636-12.366-36.459-14.499-13.816-4.094-27.973-6.567-42.215-7.463-22.174 0-42.812 6.396-63.366 19.189zM594.681 742.911c-28.996-14.499-56.543-20.639-84.132-18.592-4.265 27.547 0 55.86 11.513 86.861 10.234 26.438 23.879 50.318 42.642 71.638 19.616 22.174 43.068 40.509 69.506 53.729 28.144 14.499 55.008 22.174 80.593 23.453 3.411-28.996 0-57.566-10.661-88.268-9.722-27.291-24.221-52.449-42.642-75.049-18.549-22.174-41.576-40.509-67.629-53.729z" />
<glyph unicode="&#xe963;" glyph-name="atom" d="M874.206 574.928c-93.143 39.681-218.288 65.281-352.007 72.321-21.333 1.28-42.113 1.707-61.868 1.707 98.903 120.749 204.889 201.817 274.651 204.377 13.739 0.555 25.388-2.347 34.689-8.363 30.124-19.541 38.614-75.437 23.253-153.176-1.707-10.667 5.12-21.035 15.36-23.040 10.667-2.133 20.907 4.693 23.040 15.36 19.2 97.282 5.12 164.099-40.108 193.625-16.213 10.581-35.841 15.573-57.601 14.763-87.469-3.285-210.777-98.135-323.847-244.058-49.238-1.493-95.575-5.547-137.902-12.245-27.564 123.608-16.64 212.356 25.345 233.69 5.888 3.115 12.16 4.693 19.499 5.291 29.74 2.304 70.828-16.853 115.629-54.188 8.277-6.827 20.736-5.973 27.564 2.56 6.955 8.32 5.717 20.48-2.56 27.521-53.761 44.545-103.341 66.305-143.875 63.318-12.203-1.067-23.723-4.181-34.262-9.387-50.774-25.9-71.254-99.287-58.454-206.425 2.987-22.187 6.827-45.313 12.373-69.121-139.992-27.99-229.168-84.055-233.008-154.627-2.56-49.921 36.908-97.453 114.349-137.475 9.557-4.907 21.419-1.28 26.454 8.533 4.864 9.557 1.28 21.333-8.533 26.284-61.868 31.83-95.149 67.756-93.143 100.61 2.133 46.081 75.607 93.442 203.097 118.615 11.52-42.412 26.454-86.701 44.801-131.843-43.436-80.557-74.925-159.875-91.181-230.405-23.893-105.175-11.093-180.057 36.694-211.119 15.36-9.984 33.281-14.933 53.206-14.933 39.894 0 88.194 19.627 142.808 58.54 8.96 6.4 10.923 18.56 4.693 27.308-6.272 8.789-18.475 10.923-27.308 4.523-65.878-47.062-121.347-62.806-151.982-42.796-32.428 21.12-39.51 82.903-19.627 169.646 13.653 59.137 38.7 125.016 72.877 192.857 8.533-18.688 17.493-37.377 26.881-56.022 60.801-119.298 135.256-223.024 209.497-292.059 59.137-55.041 114.093-83.757 159.363-83.757 14.933 0 29.014 3.2 41.644 9.515 48.854 24.961 69.974 94.295 59.649 195.204-9.557 94.423-45.228 209.497-100.439 324.274-4.693 9.685-16.384 13.781-26.028 9.216-9.813-4.693-14.080-16.427-9.387-26.113 114.775-239.024 122.883-434.782 58.454-467.637-67.841-34.689-231.429 100.482-357.98 349.020-14.507 27.948-27.18 55.468-38.401 82.349 14.507 25.942 29.868 52.054 46.721 78.082 16.853 25.772 34.39 50.689 52.225 74.455h16.811c23.040 0 48.044-0.427 73.986-2.048 278.619-14.635 468.277-109.229 464.394-184.921-1.707-32.641-39.425-65.622-103.469-90.455-9.984-4.096-15.019-15.36-11.093-25.43 2.987-7.68 10.24-12.459 18.176-12.459 2.475 0 4.864 0.427 7.125 1.28 81.282 31.574 125.87 74.925 128.43 125.016 2.987 56.748-49.921 111.362-149.336 153.603v0.427zM344.446 556.837c-11.52-17.707-22.187-35.286-32.598-53.078-12.459 32.769-22.699 64.428-30.849 94.509 30.422 4.693 63.361 8.107 98.562 10.24-11.947-16.64-23.637-33.878-34.988-51.628v0.427zM570.584 448.034c0-32.402-26.267-58.668-58.668-58.668s-58.668 26.267-58.668 58.668c0 32.402 26.267 58.668 58.668 58.668s58.668-26.267 58.668-58.668z" />
<glyph unicode="&#xe964;" glyph-name="bitcoin" d="M1008.567 324.083c-68.352-274.345-346.153-441.171-620.456-372.734-274.174 67.84-441.171 346.238-372.649 620.157 68.267 274.558 346.153 441.513 620.285 373.203 274.345-68.48 441.257-346.238 372.819-620.712v0.085zM737.635 520.903c10.24 67.84-41.557 104.532-112.639 129.279l23.040 91.86-56.107 14.080-22.4-89.899c-14.72 3.712-30.080 7.125-45.397 10.667l22.443 90.751-56.32 14.080-23.040-92.372c-12.16 2.859-24.107 5.632-35.84 8.533l-77.44 19.2-14.933-60.032s41.6-9.6 40.747-10.069c22.827-5.803 26.88-20.736 26.24-32.683l-63.019-252.586c-3.2-7.083-10.24-17.323-26.197-13.397 0.64-0.853-40.96 10.24-40.96 10.24l-28.16-64.427 72.96-18.176 39.68-10.325-23.040-93.439 56.32-13.952 23.040 92.586c15.36-4.267 30.080-8.107 44.8-11.648l-21.76-91.903 56.32-14.080 23.253 93.439c95.572-18.219 167.679-10.965 197.972 75.691 24.32 69.845-1.28 110.079-51.925 136.362 36.437 8.235 64 32.427 71.68 82.347h0.427zM609.209 340.851c-17.237-69.973-134.698-32-172.799-22.613l30.72 123.732c38.229-9.813 160.298-28.587 142.079-101.119zM626.702 521.757c-15.787-63.573-113.578-31.36-145.279-23.467l27.904 112.639c31.744-7.68 133.844-22.357 117.332-88.917v-0.256z" />
<glyph unicode="&#xe965;" glyph-name="css" d="M64 960h896l-81.493-920.021-367.488-103.979-365.44 104.021-81.579 919.979zM793.173 771.712l-562.347 0.128 9.088-111.872 432-0.085-10.88-115.883h-283.307l10.24-109.781h263.765l-15.616-150.315-124.16-34.304-126.123 34.56-8.021 90.027h-111.36l12.373-164.48 233.173-72.661 229.248 65.28 51.925 569.344z" />
<glyph unicode="&#xe966;" glyph-name="digitalocean" d="M35.694 133.759h-0.171v127.359h127.359v-127.359h152.020v197.758h197.758v-197.118c210.217 0.256 372.477 208.339 292.35 429.479-29.781 81.919-95.146 147.199-177.066 176.895-221.438 80.34-429.649-82.346-429.649-292.777h-198.27c0 335.186 323.837 596.304 675.151 486.609 153.599-48 275.454-169.898 323.41-323.41 109.652-351.357-151.295-675.194-486.567-675.194v197.758h-197.246v-151.892h-151.892v151.892h-127.231z" />
<glyph unicode="&#xe967;" glyph-name="docker" d="M205.631 223.032c-29.188 0-55.644 23.896-55.644 52.914s23.896 53.042 55.687 53.042c31.919 0 55.9-23.896 55.9-52.999s-26.542-52.914-55.687-52.914zM888.899 511.625c-5.761 42.331-32.004 76.81-66.569 103.267l-13.442 10.668-10.838-13.229c-21.080-23.896-29.444-66.27-26.884-97.933 2.56-23.982 10.241-47.793 23.64-66.313-10.838-5.548-24.238-10.668-34.565-16.087-24.323-7.98-47.963-10.668-71.689-10.668h-684.463l-2.56-15.789c-5.121-50.439 2.56-103.267 23.982-151.060l10.412-18.562v-2.56c64.008-105.955 177.943-153.62 302.035-153.62 238.708 0 434.489 103.267 527.301 325.718 60.808-2.645 122.213 13.229 151.060 71.518l7.681 13.229-12.802 7.98c-34.565 21.080-81.931 23.896-121.616 13.229l-0.768-0.085zM547.18 553.956h-103.609v-103.267h103.694v103.353l-0.085-0.128zM547.18 683.808h-103.609v-103.267h103.694v103.139l-0.085 0.128zM547.18 816.262h-103.609v-103.267h103.694v103.267h-0.085zM673.916 553.956h-103.011v-103.267h103.267v103.353l-0.299-0.128zM289.952 553.956h-102.969v-103.267h103.353v103.353l-0.427-0.128zM419.249 553.956h-102.413v-103.267h103.011v103.353l-0.64-0.128zM161.935 553.956h-102.242v-103.267h103.609v103.353l-1.28-0.128zM419.249 683.808h-102.413v-103.267h103.011v103.139l-0.64 0.128zM289.312 683.808h-102.157v-103.267h102.969v103.139l-0.683 0.128z" />
<glyph unicode="&#xe968;" glyph-name="ethereum" d="M509.611 193.28l-314.197 185.6 314.155-442.88 314.453 442.88-314.411-185.6zM514.389 960l-314.283-521.515 314.24-185.771 314.24 185.6-314.197 521.685z" />
<glyph unicode="&#xe969;" glyph-name="firebase" d="M165.963 291.279l100.91 649.066c1.746 11.192 11.317 19.655 22.864 19.655 8.817 0 16.483-4.934 20.384-12.192l0.061-0.123 108.504-203.569-252.723-452.835zM882.573 133.792l-96.088 597.311c-1.912 11.031-11.411 19.314-22.846 19.314-6.368 0-12.136-2.569-16.325-6.728l0.001 0.001-605.887-609.897 335.243-188.934c9.744-5.573 21.417-8.859 33.857-8.859s24.113 3.286 34.197 9.038l-0.34-0.179 338.187 188.934zM610.137 655.025l-77.655 148.57c-3.95 7.42-11.635 12.385-20.481 12.385s-16.531-4.965-20.42-12.261l-0.061-0.125-340.918-610.921 459.534 462.351z" />
<glyph unicode="&#xe96a;" glyph-name="ghost" d="M409.771 140.843h-409.429v-204.843h409.472v204.843zM1023.744 140.843h-409.216v-204.843h409.216v204.843zM1023.872 550.4h-1023.872v-204.8h1023.872v204.8zM1024 960h-204.843v-204.843h204.843v204.843zM614.571 960h-614.229v-204.843h614.229v204.843z" />
<glyph unicode="&#xe96b;" glyph-name="git" d="M1004.63 493.647l-447.1 447.057c-25.771 25.728-67.498 25.728-93.354 0l-92.628-92.799 117.759-117.759c27.52 9.173 58.836 2.987 80.596-18.816 22.016-21.973 28.075-53.674 18.688-81.066l113.407-113.492c27.52 9.515 59.178 3.328 81.066-18.56 30.763-30.72 30.763-80.383 0-111.103-30.677-30.677-80.255-30.677-110.932 0-22.997 23.083-28.757 57.044-17.237 85.162l-106.196 105.642v-278.397c7.509-3.669 14.592-8.661 20.821-14.848 30.421-30.763 30.421-80.34 0-110.932-30.677-30.763-80.596-30.763-111.316 0-30.677 30.677-30.677 80.17 0 110.847 7.765 7.68 16.512 13.483 25.813 17.323v281.128c-9.259 3.883-18.091 9.472-25.6 17.109-23.253 23.253-28.843 57.258-16.896 85.716l-115.711 116.266-306.6-306.386c-25.6-25.813-25.6-67.583 0-93.396l447.143-447.015c25.771-25.771 67.498-25.771 93.268 0l445.009 445.009c25.813 25.728 25.813 67.498 0 93.311z" />
<glyph unicode="&#xe96c;" glyph-name="github" d="M512 947.322c-282.88 0-512-229.248-512-512 0-226.261 146.688-418.133 350.080-485.76 25.6-4.821 34.987 11.008 34.987 24.619 0 12.16-0.427 44.373-0.64 87.040-142.421-30.891-172.459 68.693-172.459 68.693-23.296 59.093-56.96 74.88-56.96 74.88-46.379 31.744 3.584 31.104 3.584 31.104 51.413-3.584 78.421-52.736 78.421-52.736 45.653-78.293 119.851-55.68 149.12-42.581 4.608 33.109 17.792 55.68 32.427 68.48-113.707 12.8-233.216 56.832-233.216 253.013 0 55.893 19.84 101.547 52.693 137.387-5.76 12.928-23.040 64.981 4.48 135.509 0 0 42.88 13.739 140.8-52.48 40.96 11.392 84.48 17.024 128 17.28 43.52-0.256 87.040-5.888 128-17.28 97.28 66.219 140.16 52.48 140.16 52.48 27.52-70.528 10.24-122.581 5.12-135.509 32.64-35.84 52.48-81.493 52.48-137.387 0-196.693-119.68-240-233.6-252.587 17.92-15.36 34.56-46.763 34.56-94.72 0-68.523-0.64-123.563-0.64-140.203 0-13.44 8.96-29.44 35.2-24.32 204.843 67.157 351.403 259.157 351.403 485.077 0 282.752-229.248 512-512 512z" />
<glyph unicode="&#xe96d;" glyph-name="gitlab" d="M1022.077 380.274l-57.259 176.427-113.664 349.397c-5.76 18.048-31.147 18.048-36.992 0l-113.664-349.312h-377.003l-113.621 349.312c-5.803 18.048-31.317 18.048-37.077 0.128l-113.664-349.397-57.259-176.555c-5.163-16 0.597-33.664 14.123-43.648l496-360.277 496 360.235c13.568 10.027 19.328 27.605 14.080 43.691z" />
<glyph unicode="&#xe96e;" glyph-name="graphql" d="M599.513 842.625l210.56-121.6c34.816 36.651 92.715 38.101 129.365 3.285 6.315-5.973 11.691-12.843 16.085-20.352 25.131-43.861 9.899-99.797-33.963-124.928-7.424-4.267-15.403-7.467-23.808-9.515v-243.157c48.896-11.648 79.104-60.715 67.413-109.611-2.048-8.704-5.419-17.067-9.899-24.789-25.259-43.648-81.109-58.624-124.885-33.365-8.363 4.821-16 11.051-22.443 18.304l-209.28-120.832c15.872-47.957-10.155-99.627-58.069-115.456-9.259-3.029-18.859-4.608-28.587-4.608-50.389-0.043-91.264 40.747-91.307 91.136 0 8.747 1.237 17.493 3.755 25.984l-210.603 121.472c-34.816-36.437-92.629-37.845-129.109-2.987-36.437 34.816-37.803 92.629-2.987 129.109 12.075 12.672 27.563 21.589 44.544 25.728l0.043 243.157c-49.067 11.776-79.275 61.141-67.456 110.251 2.005 8.448 5.248 16.597 9.557 24.149 25.259 43.691 81.152 58.624 124.885 33.365 7.552-4.309 14.464-9.728 20.48-16.085l210.688 121.6c-14.336 48.341 13.269 99.072 61.483 113.365 8.405 2.517 17.237 3.755 26.027 3.755 50.389 0.043 91.264-40.704 91.307-91.051 0.043-8.917-1.28-17.835-3.797-26.325zM577.54 805.206c-0.811-0.896-1.579-1.664-2.475-2.475l275.669-477.44c1.109 0.384 2.389 0.683 3.499 0.981v243.499c-48.853 12.075-78.592 61.525-66.475 110.421 0.256 1.024 0.512 2.091 0.811 3.072l-211.029 121.941zM448.9 802.689l-2.56 2.56-211.029-121.685c13.952-48.427-13.952-98.901-62.336-112.853-1.109-0.341-2.176-0.597-3.243-0.896v-243.541l3.584-0.981 275.584 477.397zM537.476 781.057c-16.64-4.779-34.261-4.779-50.859 0l-275.627-477.397c12.544-12.075 21.419-27.52 25.6-44.416h550.869c4.139 16.981 13.099 32.469 25.728 44.544l-275.712 477.269zM579.545 88.704l209.621 121.088c-0.64 2.005-1.152 4.011-1.621 6.059h-551.083l-0.896-3.541 210.731-121.685c16.555 17.237 39.851 27.861 65.707 27.861 26.752 0 50.773-11.477 67.541-29.781z" />
<glyph unicode="&#xe96f;" glyph-name="html" d="M64 960h896l-81.493-920.021-367.488-103.979-365.397 104.021-81.621 919.979zM363.989 544l-9.899 115.968 429.184-0.128 9.813 111.872-562.176 0.128 29.781-341.76h389.376l-13.909-146.176-124.16-34.304-126.080 34.56-8.021 90.027h-111.317l14.080-177.963 231.339-61.867 229.504 61.568 31.744 348.032h-409.259z" />
<glyph unicode="&#xe970;" glyph-name="jekyll" d="M344.463-64c-14.848 0-29.397 2.688-43.52 8.064-58.667 22.4-89.771 86.187-73.643 145.152l-0.64 0.256 3.84 9.643 298.539 775.124c4.48 11.52 2.432 38.827 0.256 54.059-0.683 3.627-0.683 6.869 0.341 10.24l0.341 0.981 0.256 0.64v0.299l0.384 0.811c4.608 12.459 19.2 18.731 43.008 18.731 28.715 0 68.352-8.96 108.843-24.448 34.005-13.099 64.981-29.397 86.741-45.867 25.685-19.2 35.925-36.437 30.165-51.2l-1.323-1.92-0.683-0.64c-1.92-2.603-3.84-5.12-6.4-7.040-13.397-11.563-32.597-31.36-35.84-40.32l-301.355-785.962-0.683 0.256c-21.077-40.448-62.165-66.432-108.501-66.603h-0.256l0.128-0.256zM251.151 94.635l-0.853-2.133c-19.072-51.243 6.912-109.099 58.197-128.768 11.563-4.48 23.509-6.571 35.712-6.571 41.429 0 78.080 24.96 93.355 64l1.152 2.603 296.917 771.839c6.229 16.64 35.84 43.52 41.771 48.64l0.683 0.683c0.512 0.64 0.853 0.64 0.853 1.28 0 2.56-2.603 11.52-23.765 27.52-20.437 15.36-49.237 30.72-81.237 42.88-37.035 13.995-75.435 22.997-101.035 22.997-16.64 0-22.357-3.499-23.253-5.376v-1.707c0.683-4.437 6.272-44.16-1.451-64.64l-297.045-773.247zM633.018 585.6s-41.131-47.317-78.635-64.384c-37.547-16.981-65.237-12.501-98.987-32.256-33.664-19.669-50.688-47.061-50.688-47.061l-137.173-356.779c-14.848-40.277 7.168-87.467 48-103.253 40.96-15.744 87.040 5.12 102.912 45.056l214.571 558.677zM422.628 159.573c4.437 1.749 9.6 0 11.349-4.48 1.792-4.437 0-9.472-4.48-11.264-4.437-1.835-9.6 0-11.349 4.437-1.792 4.139 0 9.216 4.48 11.307zM379.364 236.459c-6.485-2.901-14.251 0-16.939 6.613-2.987 6.485 0 14.251 6.571 16.939 6.571 2.987 14.293 0 16.981-6.528 3.157-6.4 0.341-13.397-6.613-16.64v-0.384zM391.567 283.221c-5.248 12.288 0 26.581 12.245 32.341 12.16 5.291 26.24 0 32-12.16 5.163-12.331 0-26.624-12.16-32.299-12.8-5.376-26.837 0-32.64 12.16l0.555-0.043zM495.076 379.563c6.528 3.157 14.293 0 16.981-6.4 2.987-6.571 0-14.336-6.528-17.024-6.613-2.987-14.379 0-17.024 6.613-3.157 6.485 0 14.251 6.571 16.939v-0.128zM439.908 438.4c4.48 1.792 9.643 0 11.349-4.48 1.835-4.437 0-9.643-4.437-11.349-4.437-1.792-9.643 0-11.307 4.437-1.877 4.523 0.256 9.685 4.395 11.392zM583.738 911.36c4.267 11.136 42.368 6.912 85.12-9.643 42.624-16.384 73.771-38.784 69.547-49.92-4.437-11.264-42.539-6.997-85.163 9.429-42.88 16.427-73.984 38.827-69.632 50.176h0.128z" />
<glyph unicode="&#xe971;" glyph-name="python" d="M607.521 949.812l38.209-8.491 30.992-11.038 25.048-12.736 19.105-13.585 14.435-14.435 10.614-14.435 6.793-14.010 4.246-12.736 1.699-11.038 0.849-8.491-0.425-5.519v-226.708l-2.122-26.746-5.519-23.35-8.915-19.529-11.038-16.132-12.736-13.161-14.010-10.614-14.859-8.067-14.859-5.943-14.010-4.246-12.736-2.972-11.038-1.699-8.915-0.849h-253.454l-29.294-2.122-25.048-5.943-21.227-9.34-17.406-11.463-14.010-13.585-11.463-14.859-8.491-15.284-6.368-15.709-4.246-14.859-2.972-13.585-1.699-11.463-0.849-8.915v-129.911h-94.674l-8.915 1.274-11.888 2.972-13.585 5.095-14.859 7.642-15.284 11.038-15.284 15.284-14.859 19.529-13.585 25.048-11.888 30.992-8.915 37.36-5.943 44.577-2.122 52.219 2.547 51.794 6.793 44.152 10.189 36.935 13.585 30.142 15.284 24.199 16.982 18.68 17.831 14.010 17.831 10.189 16.982 6.793 15.284 4.246 13.585 2.122 10.189 0.425h6.793l2.547-0.425h346.43v35.237h-247.935l-0.425 116.75-0.849 15.709 2.122 14.435 4.67 13.161 7.217 11.888 10.614 11.038 13.161 9.764 16.132 8.491 18.68 7.642 21.652 6.368 24.624 5.095 27.171 4.246 30.142 2.547 32.69 1.699 35.662 0.849 53.918-2.122 45.426-5.519zM340.056 865.752l-9.764-14.010-3.396-17.406 3.396-17.406 9.764-14.435 14.010-9.34 17.406-3.821 17.406 3.821 14.010 9.34 9.764 14.435 3.396 17.406-3.396 17.406-9.764 14.010-14.010 9.34-17.406 3.821-17.406-3.821-14.010-9.34zM895.788 698.057l11.888-2.547 13.585-5.095 14.859-7.642 15.284-11.463 15.284-14.859 14.859-19.953 13.585-25.048 11.888-30.992 8.915-37.36 5.943-44.152 2.122-52.219-2.547-52.219-6.793-44.152-10.189-36.511-13.585-30.142-15.284-24.199-16.982-19.105-17.831-14.010-17.831-10.189-16.982-6.793-15.284-3.821-13.585-2.122-10.189-0.849-6.793 0.425h-348.977v-34.813h247.935l0.425-117.175 0.849-15.284-2.122-14.435-4.67-13.161-7.217-12.312-10.614-10.614-13.161-10.189-16.132-8.491-18.68-7.217-21.652-6.368-24.624-5.519-27.171-3.821-30.142-2.972-32.69-1.699-35.662-0.425-53.918 1.699-45.426 5.943-38.209 8.491-30.992 10.614-25.048 12.736-19.105 14.010-14.435 14.435-10.614 14.435-6.793 14.010-4.246 12.736-1.699 10.614-0.849 8.491 0.425 5.519v226.708l2.122 27.171 5.519 22.925 8.915 19.529 11.038 16.132 12.736 13.585 14.010 10.189 14.859 8.491 14.859 5.943 14.010 4.246 12.736 2.547 11.038 1.699 8.915 0.849 5.519 0.425h247.935l29.294 2.122 25.048 5.943 21.227 8.915 17.406 11.888 14.010 13.585 11.463 14.859 8.491 15.284 6.368 15.284 4.246 14.859 2.972 13.585 1.699 11.888 0.849 8.915v129.911h88.73l5.943-0.425 8.915-1.274zM621.106 93.079l-9.764-14.010-3.396-17.406 3.396-17.406 9.764-14.010 14.010-9.764 17.406-3.396 17.406 3.396 14.010 9.764 9.764 14.010 3.396 17.406-3.396 17.406-9.764 14.010-14.010 9.764-17.406 3.396-17.406-3.396-14.010-9.764z" />
</font>
</defs>
</svg>
