<svg xmlns="http://www.w3.org/2000/svg" viewBox="0 0 535.64 312.63"><defs><style>.cls-1{isolation:isolate;}.cls-2{fill:#341a3e;}.cls-3{fill:#62ffbe;}.cls-4{fill:#ccc;mix-blend-mode:multiply;}</style></defs><title>Recurso 5</title><g class="cls-1"><g id="Capa_2" data-name="Capa 2"><g id="Capa_1-2" data-name="Capa 1"><path class="cls-2" d="M531.56,53.07a66.61,66.61,0,0,0-35-38A77.46,77.46,0,0,0,463.91,8c-1.37,0-2.6,0-3.74.09l-.68,0c-.56,0-1.11.06-1.67.11-1.57.11-3.19.28-4.93.53-.59.08-1.18.17-1.78.27l-1.16.2c-.6.1-1.21.22-1.8.35s-1.36.28-2,.44l-1.53.38c-.9.23-1.81.48-2.7.75-.46.13-.91.27-1.36.42l-1,.33q-.43.13-.84.29l-1.42.51c-.68.24-1.36.51-2,.79-.34.14-.68.28-1,.43s-.94.4-1.47.64c-.69.31-1.38.64-2.05,1s-1.31.66-1.94,1c-1,.5-1.91,1-2.91,1.65-.47.27-.92.56-1.38.85a63.24,63.24,0,0,0-6.23,4.49l-.26.22-.75.62-.67.58-.78.69-.13.12c-1,.95-2.09,2-3.09,3-.16.17-.34.35-.54.57-.39.41-.77.82-1.11,1.21-.63.7-1.25,1.43-1.88,2.22-.34.41-.68.83-1,1.26q-.26.32-.51.66c-.4.53-.78,1.06-1.18,1.61l-.07.1c-.37.53-.72,1.06-1.05,1.56l-.77,1.2c-.17.26-.33.52-.48.79s-.42.68-.61,1c-.36.61-.71,1.23-1.09,1.94a61,61,0,0,0-5.92,40.43,60.86,60.86,0,0,0-1,16.86h0l-.83.46-1,.56-.44.25-1.53.9c-2.26,1.35-4.56,2.81-6.78,4.33-.88.6-1.76,1.22-2.62,1.83-1.89,1.35-3.64,2.64-5.31,4l-.26.21a18.56,18.56,0,0,0-3.36-7.24l.47-.81c4.17-7.48,4-14.05,1.82-19.08,12.85-13,25.16-30.83,17.18-48,3.19-8,3.78-16.52-.47-24.83A22.84,22.84,0,0,0,372.9,0c-12.44-.62-26.49,8.79-44.22,29.68a326,326,0,0,0-23.21,31.36c-.44.69-.87,1.37-1.3,2.05a30.48,30.48,0,0,0-2.12-9.22,38.33,38.33,0,0,0,1.65-6.07c2.82-15.63-5.26-29.69-19.63-34.2A43.82,43.82,0,0,0,269,11.58c-.38,0-.76,0-1.14.06l-1.23.08-.31,0c-.78.09-1.58.19-2.38.3l-.19,0c-1.06.17-2,.36-2.93.56l-1.13.27-1.11.28-.43.12-.29.09-.89.27-1.25.4-1.27.45-.13,0-1.36.52-.22.09-1.13.47-1.19.52-.31.14-.22.11-.87.42c-1.74.86-3.43,1.79-5,2.76-.43.26-.86.53-1.29.8l-1.24.8c-1.86,1.25-3.72,2.61-5.53,4.06-.42.33-.84.67-1.25,1-1.75,1.45-3.51,3-5.37,4.81-.59.57-1.17,1.15-1.76,1.74s-1.05,1.07-1.56,1.61A170,170,0,0,0,209.3,55.25c-.5.71-1,1.43-1.48,2.17s-1.06,1.58-1.6,2.39q-1.95-.06-3.91-.16c-8.61-.45-16.91-.52-24.55-.21l-1.79.08c-1.47.07-2.92.15-4.27.24s-2.89.21-4.31.34-2.76.25-4,.39c-1,.11-2,.23-3,.35l-2.86.38-.19,0-1.64.24-1.09.16-.28,0-1.16.2-1.48.25-2.71.5-2.54.51-.17,0c-.84.18-1.66.37-2.57.57s-1.84.43-2.73.65l-.11,0-2,.52c-.8.21-1.57.43-2.29.63s-1.37.39-2.09.61l-.41.12c-.66.19-1.3.4-2,.63l-.52.17c-.64.21-1.27.42-1.89.64a105.28,105.28,0,0,0-20.52,9.56c-.54.33-1.09.66-1.61,1l-1.46,1c-.48.31-.94.63-1.36.92a79.31,79.31,0,0,0-11.06,9.26,70.6,70.6,0,0,0-8.4,10.25c-.34.5-.68,1-1,1.55l-.18.29-.33.53-.07.12c-.19.31-.38.63-.56.94s-.5.85-.73,1.28-.55,1-.81,1.51c-.43.8-.79,1.56-1.12,2.28s-.55,1.21-.82,1.83-.48,1.13-.67,1.62c-.71,1.78-1.34,3.61-1.86,5.41l-.24.83-.06.2-.11.43q-.49.12-1,.29c-1.08.37-2.16.76-3.27,1.18l-.25.1-.68.27-1,.4-1.77.74c-.61.26-1.22.53-1.84.81-1.63.73-3.24,1.51-4.79,2.31-.48.24-1,.48-1.43.74-.87.45-1.74.93-2.6,1.41-1.53.86-2.91,1.66-4.21,2.46-43.52,26.6-57.66,67.69-53,99.54a82.4,82.4,0,0,0,1.53,31.57C10.2,291,35.3,310.94,67.91,312.51c1.83.08,3.36.12,4.8.12,29.74,0,54.75-13.7,76.46-41.87,11.71-15.19,22.42-34.32,33.59-57.44a18.1,18.1,0,0,0,2.13,7.21c.13.25.26.48.38.68.31.52.63,1,1,1.54l.47.72c.17.27.34.52.52.77.7,1,1.45,2,2.23,3,.44.59.86,1.09,1.12,1.39l.8.94.1.12c1,1.17,2,2.22,3.05,3.22.37.37.76.73,1.18,1.13.6.55,1.22,1.11,1.87,1.67l.19.16c.65.54,1.32,1.09,2,1.65l.1.08.28.22.73.56c.54.4,1.09.8,1.68,1.21s1.08.72,1.67,1.11l1.57,1,.43.26c12.3,7.4,27.35,11.15,44.74,11.15h0c1,0,2.1,0,3.16,0,1.24,0,2.49-.08,3.66-.14l1-.06c.85,0,1.72-.11,2.61-.18,1.93-.15,3.93-.37,6.15-.66l1.69-.24.18,0,2.16-.35h.09l1.63-.29.14,0,1.75-.34,1.79-.38.31-.07.24-.05,1.46-.35c1.27-.3,2.52-.62,3.73-.95l1.9-.54c3.57-1,7.22-2.3,10.81-3.74,1.17-.46,2.35-1,3.51-1.47s2.2-1,3.59-1.62c.56-.26,1.12-.53,1.66-.8,1.17-.57,2.33-1.15,3.34-1.69s1.94-1,2.94-1.57c1.54-.85,3.13-1.77,4.73-2.72.79-.47,1.59-1,2.32-1.42,3.76-2.32,7.68-5,11.67-7.84l2.07-1.52.87-.64q4.77-3.56,9.69-7.55l2.6-2.13.11-.09,2.11-1.76.94-.79c4.44-3.74,9.16-7.85,15.29-13.33l.2-.18.1-.09,2.36-2.12c1.32.68,2.65,1.34,4,2,.87.41,1.74.79,2.73,1.23l.29.12c.94.41,1.9.81,2.88,1.19l.34.14c1,.4,2,.78,3,1.15s2.2.79,3.27,1.14a135.93,135.93,0,0,0,42.34,6.81c1.5,0,3,0,4.41-.08.52,0,1,0,1.55-.07,3.45-.15,6.94-.46,10.39-.91,40.33-5.29,71.12-29.59,86.7-68.43,7.2-18,9.59-34.71,7.22-50C536.61,76.57,535.56,64.34,531.56,53.07Zm-38.17,49.05c-6.29,15.69-15.55,27.47-27.68,35.24,0-.07,0-.14,0-.21l0-.2a15.76,15.76,0,0,0,.09-1.79,16.44,16.44,0,0,0-.09-1.73c0-.44-.1-.86-.17-1.31a18.48,18.48,0,0,0-.93-3.43,15.07,15.07,0,0,0-.63-1.47c-.09-.18-.17-.35-.26-.52-.24-.46-.49-.91-.76-1.32s-.54-.81-.82-1.19-.46-.59-.71-.88l0,0c.14-.16.33-.4.56-.7s.57-.77.83-1.18a13.9,13.9,0,0,0,.82-1.41c.16-.3.32-.63.49-1s.25-.56.36-.84.24-.64.35-1a12.65,12.65,0,0,0,.36-1.25c.1-.37.17-.69.22-1,.1-.52.19-1.06.24-1.61l0-.2a15.76,15.76,0,0,0,.09-1.79,16.44,16.44,0,0,0-.09-1.73c0-.44-.1-.86-.17-1.31a18.48,18.48,0,0,0-.93-3.43,15.07,15.07,0,0,0-.63-1.47c-.09-.18-.17-.35-.26-.52-.24-.46-.49-.91-.76-1.32s-.54-.81-.82-1.19-.62-.8-1-1.19l-.23-.25c-.31-.33-.67-.69-1-1s-.66-.59-1-.87a16.46,16.46,0,0,0-1.57-1.13l-.55-.37-1.11-.67A39.19,39.19,0,0,0,448,91.56c-.43-.14-.86-.26-1.31-.39A46.35,46.35,0,0,0,441.55,90l-.64-.11-.27-.2-.12-.09-.45-.35-.21-.17-.35-.3-.3-.27-.09-.09-.34-.32-.41-.4-.09-.09-.47-.51-.55-.64c-.29-.36-.58-.73-.86-1.12a21.61,21.61,0,0,1-1.29-2l.08-.12c.23-.39.46-.77.7-1.14l.15-.23c.25-.38.51-.75.8-1.15s.57-.75.82-1.06.61-.72,1-1.13l0,0c.3-.31.59-.62.89-.93s.66-.64,1-.94l.09-.08c.26-.24.53-.47.8-.69l.29-.23c.27-.22.54-.43.82-.64l.17-.12.37-.27c.27-.2.55-.38.84-.58s.63-.41,1-.6l.19-.11.16-.09.26-.15.41-.23.4-.21.18-.09c.34-.18.69-.36,1-.52l.2-.1c.73-.35,1.55-.69,2.5-1s1.81-.63,2.78-.9l.12,0c.71-.21,1.41-.38,2.09-.52l.12,0,.78-.16c.78-.15,1.46-.26,2.17-.35l.84-.1,1.12-.12c.5,0,1-.08,1.5-.09l.36,0,.67,0h.62l1.51,0,1.14,0,1.11.07.52.05.19,0,.69.07.24,0,.57.07.86.13.12,0c.4.06.8.12,1.19.2l.12,0c.79.15,1.49.3,2.13.46l.11,0,.9.24L475,70l.81.24.16.05a37.15,37.15,0,0,1,5,1.9,30.24,30.24,0,0,1,16.22,18.15A84.8,84.8,0,0,1,493.39,102.12ZM279.61,187.61c-1.94.71-3.9,1.34-5.89,1.91l-.92.26-.13,0-1.32.34-1.27.3-.83.19-.88.19c-1,.2-2,.39-2.94.55l-.24,0-.92.15c-.75.12-1.49.21-2.33.32l-.6.08-.23,0c-.88.1-1.76.18-2.56.25l-2.63.18c-14.42.8-26.11-1.9-33.54-7.72l-.18-.14-.21-.16-.31-.26c-.32-.26-.69-.59-1.21-1.08-.14-.13-.29-.27-.42-.41l-.25-.26c-.2-.2-.38-.4-.55-.6l-.1-.11-.13-.14c-.17-.21-.36-.44-.53-.63l-.12-.16c-.2-.25-.38-.51-.57-.76l-.08-.11c-.25-.33-.5-.73-.77-1.16a183,183,0,0,0,20.37-8.94,32.68,32.68,0,0,0,6.85,5,29.41,29.41,0,0,0,14.45,3.74c8.8,0,17.88-3.59,27.5-10.92A30.54,30.54,0,0,0,298.73,178l-.88.55c-2.85,1.75-5.69,3.35-8.42,4.73l-1.24.61c-2.48,1.22-5.05,2.34-7.65,3.33l-.1,0Zm-139-53.79c-.17-.22-.35-.43-.53-.64-.48-.58-.94-1.09-1.31-1.5-.55-.62-1.11-1.21-1.7-1.79-.39-.39-.79-.79-1.2-1.16l-.08-.07.37-.16,1.53-.64c2.28-.92,4.74-1.78,7.31-2.56l.12,0,.75-.22.29-.08,1-.28.28-.08.93-.25.12,0,1.64-.42.13,0,2.11-.49,1.55-.34,1.81-.36,1.22-.23.6-.11c2.51-.46,5.18-.86,8.24-1.24.68-.09,1.37-.17,2.06-.23l.25,0,.43,0,.41,0,2-.2h.11l.65-.05.44,0c.48,0,1-.09,1.45-.11h.2q-1.79,4-3.59,8l-2.85,6.47a137.46,137.46,0,0,0-18.6,12.08,60.36,60.36,0,0,0-6.9-11.51C141.46,134.85,141,134.33,140.62,133.82ZM72.56,252c-1,0-1.94,0-2.92-.07-16-.77-27.39-9.41-31.38-23.73C42,213,52.83,196.79,73,184.43l1.5-.9c1.63-1,3.29-1.87,4.94-2.71l.07.15.27.59q.19.44.41.86c.24.48.48.95.72,1.4l.69,1.27.06.1c.59,1,1.21,2,1.9,3l.6.85.1.14.74,1,.15.19.63.8c.72.9,1.48,1.78,2.26,2.61.38.41.77.82,1.17,1.21l1,.93.11.1c1.06,1,2.21,2,3.39,2.89l1.15.87c.92.67,1.86,1.31,2.78,1.89l.79.49.24.15c1.42.85,2.88,1.62,4.54,2.4a18.38,18.38,0,0,0,6.27,1.62,18.26,18.26,0,0,0,2.92,5c-1.1,1.85-1.81,3.16-2.12,3.76a18.32,18.32,0,0,0,1.42,19.13C100.14,246,87.63,252,72.56,252Z"/><path class="cls-3" d="M521.36,56.69A55.86,55.86,0,0,0,492,24.89a66.73,66.73,0,0,0-28.09-6.08c-1.1,0-2.22,0-3.32.09l-.5,0c-.48,0-.94.05-1.42.1-1.44.1-2.88.26-4.31.47-.5.06-1,.14-1.51.24q-.49.06-1,.16c-.53.09-1.06.19-1.58.3s-1.1.23-1.64.36l-1.34.34q-1.18.29-2.34.65c-.39.11-.77.23-1.15.36s-.66.21-1,.32a2.23,2.23,0,0,0-.38.13c-.49.16-1,.34-1.45.52s-1.1.41-1.64.64c-.27.11-.54.22-.81.35-.43.17-.87.37-1.3.56-.59.27-1.19.55-1.77.84s-1.11.56-1.67.85c-.82.43-1.63.9-2.43,1.38-.36.21-.7.42-1,.65a51.94,51.94,0,0,0-5.17,3.71c-.31.26-.64.52-1,.79l-.52.44-.78.69q-1.33,1.2-2.6,2.53a3.73,3.73,0,0,0-.28.3c-.37.38-.72.77-1.08,1.17-.52.57-1,1.17-1.5,1.79-.34.4-.66.81-1,1.22a1,1,0,0,0-.16.21c-.4.52-.78,1-1.16,1.58s-.59.87-.88,1.3L413.54,45a3.62,3.62,0,0,0-.23.39c-.19.3-.39.62-.56.93-.31.53-.62,1.06-.91,1.6a50.06,50.06,0,0,0,.09,47.1c.3.57.62,1.14,1,1.69.5.87,1,1.71,1.58,2.53q.44.67.91,1.3l.38.53c.36.49.72,1,1.1,1.44l.09.11-1.11.35-1,.35a79.72,79.72,0,0,0-8.57,3.45q-1.18.55-2.4,1.17l-.51.26-1.85,1-.57.31-1,.56-1.34.77-1.36.8q-3.05,1.82-6.26,4c-.8.54-1.6,1.1-2.4,1.68-1.61,1.15-3.27,2.37-4.94,3.68l-1.27,1q-4.45,3.51-9.15,7.74l-5.19,4.68-4.62,4.19,0,0c-.43-.47-.84-.93-1.24-1.41s-.79-1-1.15-1.44a35.88,35.88,0,0,1-3.65-6c-.19-.39-.37-.78-.53-1.16a4.89,4.89,0,0,1-.21-.5c-.11-.25-.21-.5-.3-.75s-.28-.77-.4-1.15a27,27,0,0,1-.87-3.19,25.79,25.79,0,0,1-.1-9.92,135.87,135.87,0,0,0,9.44-13.81c4.19-7.51.57-11.4-1.18-12.73-1.36-1-6.3-3.95-12.42,2.13a40.45,40.45,0,0,0-9.9,17.89,141.22,141.22,0,0,1-13,14.1c-6.38,5.92-12.62,10.15-17,10.15h-.12c-.81,0-2.49,0-4.4-3.78-1.29-2.52-.75-12.68,10.12-33.36a414.49,414.49,0,0,0,35.29-25.29c27.5-22.25,37.33-38.42,31-50.87a12,12,0,0,0-10.24-6.72c-20.32-1-54,50.25-57.81,56.1-3,4.67-6.49,10.33-9.82,16.42a7.9,7.9,0,0,0-1,1.23l-.26.39,0,0a237.66,237.66,0,0,1-20.2,25.9l-.68.74,0,0c-14,15-22.59,18.36-25.78,16.6-2.25-1.24-2.51-2.41-2.59-3.49a13.23,13.23,0,0,1,1.2-5.63c2.87-3.14,5.3-6.29,7.77-9.48,1.07-1.37,2.15-2.78,3.29-4.2,2.12-2.64,5.68-7.06,2.7-12A7.72,7.72,0,0,0,261.06,90c-4.86,1-13.25,10.49-18.13,20.25a63.48,63.48,0,0,1-12.75,10c-7.69,4.67-18.39,9.44-34.39,14.57.53-1.19,1.06-2.37,1.6-3.55s1.06-2.33,1.59-3.47,1.06-2.29,1.59-3.42q4.3-9.18,8.54-17.45c.43-.85.88-1.71,1.31-2.54l.78-1.48c.17-.35.36-.68.53-1q1.3-2.47,2.61-4.86t2.59-4.67q-2.48.06-5,.06c-3.69,0-7.5-.1-11.33-.3l-.82,0q-1.12,2.08-2.24,4.22l-1,1.93c-.61,1.17-1.2,2.37-1.82,3.57,0,0,0,.05,0,.09-.48.94-1,1.89-1.44,2.86s-1,1.94-1.44,2.92q-5.78,11.76-11.65,25.12l-4.39,10A129.83,129.83,0,0,0,143.25,166a52.39,52.39,0,0,0-10-24c-.39-.51-.78-1-1.18-1.47a.57.57,0,0,0-.13-.15c-.4-.5-.82-1-1.24-1.44s-.85-.93-1.31-1.37-.65-.65-1-1-.52-.5-.79-.74a35,35,0,0,0-2.79-2.3c-.38-.29-.77-.57-1.16-.83s-1-.68-1.49-1c-.31-.21-.64-.4-1-.58s-.64-.38-1-.56-.71-.4-1.08-.57-.6-.31-.91-.45c-.77-.38-1.56-.72-2.35-1l-.71-.28h0c-.5-.19-1-.37-1.5-.54s-1.13-.37-1.7-.53l-.09,0c-.6-.17-1.19-.32-1.79-.48h0c-.61-.14-1.22-.27-1.84-.39l-1.6-.28c-.54-.09-1.08-.15-1.62-.22s-1.09-.12-1.64-.16-1.07-.09-1.61-.11h-.06a37,37,0,0,1,5-11.08c.16-.26.34-.51.52-.77s.42-.61.65-.91.43-.61.67-.9l.55-.7c.22-.27.43-.53.67-.8.74-.89,1.54-1.75,2.37-2.6.45-.45.92-.91,1.4-1.35,1-.89,2-1.75,3-2.59.52-.42,1.06-.83,1.6-1.23,1.09-.81,2.24-1.59,3.42-2.35A69.67,69.67,0,0,1,129.13,96l.48-.23,1.42-.64.94-.41,1.69-.7c2.62-1.06,5.38-2,8.25-2.89.38-.12.77-.24,1.17-.35s.88-.26,1.33-.38l1.23-.34,1.93-.5,2.36-.55,1.83-.4,1.79-.36c.68-.14,1.36-.26,2.06-.39,2.83-.52,5.77-1,8.77-1.32.82-.11,1.66-.21,2.49-.28l.85-.09q1.15-.13,2.3-.23l1.09-.09c.66-.06,1.32-.12,2-.15.48,0,1-.08,1.44-.1s1.1-.08,1.67-.1,1-.06,1.58-.09c1-.05,1.95-.09,2.93-.12,1.18,0,2.37-.08,3.57-.09s2.4,0,3.62,0q6.34,0,13,.36l2.28.11q4.43.18,8.7.18,4.49,0,8.82-.21c.9,0,1.78-.09,2.67-.15l.65,0c.44,0,.88-.05,1.31-.1l1.51-.11,1.06-.1a2.24,2.24,0,0,0,.28,0c.88-.08,1.74-.16,2.61-.26,1.9-.21,3.78-.44,5.6-.72L237.6,84c3-.47,5.94-1,8.75-1.69,1-.23,1.95-.47,2.91-.71l.17,0c.68-.17,1.35-.36,2-.55l.14,0,1-.27c.67-.19,1.33-.39,2-.59l1.27-.41.65-.22q1.07-.36,2.11-.75l1.31-.49.55-.22c.62-.24,1.23-.49,1.84-.75.3-.12.62-.25.92-.39,1.48-.64,2.91-1.31,4.31-2,14.24-7.22,23.55-17.75,25.57-28.92,1.85-10.26-3.06-19.08-12.24-22a33.66,33.66,0,0,0-10.28-1.59c-.42,0-.85,0-1.28,0a6.14,6.14,0,0,0-.64,0l-1.15.08c-.68.08-1.37.16-2.07.26s-1.5.26-2.26.43l-.88.21-1,.26-1.08.32-1,.34-1,.35L257,25.1l-1,.43-1.18.52c-.31.15-.63.29-.94.45-1.41.69-2.82,1.46-4.24,2.33-.36.22-.71.43-1.06.66l-1.07.69q-2.42,1.62-4.87,3.58c-.32.25-.65.52-1,.79q-2.42,2-4.85,4.34c-.54.52-1.07,1-1.61,1.59s-.93,1-1.4,1.44a158.49,158.49,0,0,0-15.57,19.45c-.48.68-1,1.36-1.42,2.07q-2.37,3.49-4.75,7.28H212c-3.28,0-6.71-.09-10.26-.27-8.47-.44-16.31-.5-23.57-.21l-1.63.08c-1.41.06-2.79.14-4.15.24s-2.7.19-4,.31-2.62.24-3.89.38q-1.4.15-2.76.32l-2.85.38-2.69.4-2.62.44-2.56.48-2.38.48-.11,0-2.27.51c-.89.21-1.77.41-2.64.63-.65.16-1.3.32-1.93.5s-1.47.4-2.2.61l-1.73.51-.61.18c-.55.16-1.09.34-1.62.51l-.59.19c-.56.18-1.11.37-1.66.56a94,94,0,0,0-18.48,8.59c-.47.28-.93.56-1.37.85l-1.38.91-1.11.76a68.25,68.25,0,0,0-9.55,8,59.56,59.56,0,0,0-7.13,8.7c-.27.4-.54.81-.8,1.23l-.13.22c-.15.23-.28.45-.42.68s-.27.45-.4.68-.43.74-.64,1.11-.44.8-.64,1.2c-.35.64-.66,1.3-1,1.95-.24.5-.45,1-.67,1.5s-.38.89-.55,1.33c-.58,1.46-1.09,2.94-1.53,4.44l-.23.79q-.55,2.06-.94,4.15-.11.6-.19,1.2c-.05.28-.09.56-.13.84a48,48,0,0,0-.37,9.58,50.7,50.7,0,0,0,1,7.55c0,.13.05.26.09.39.08.35.15.69.24,1s.11.43.17.65c.12.43.24.88.37,1.3s.32,1.06.51,1.58.36,1,.55,1.51.35.87.52,1.29c0,.11.09.22.14.32.16.35.3.67.47,1a2.37,2.37,0,0,0,.16.34c.21.42.41.83.63,1.23l.62,1.13c.45.79.92,1.54,1.41,2.25l.6.84.6.8.62.78q.81,1,1.69,1.95c.28.3.56.61.85.89l.88.85c.88.82,1.76,1.57,2.64,2.25l.88.66c.76.55,1.49,1,2.22,1.5l.76.47c1.25.75,2.46,1.36,3.54,1.87a7.55,7.55,0,0,0,4.77.53,7.7,7.7,0,0,0,1-.29,7.57,7.57,0,0,0,1.43-.69,7,7,0,0,0,.87-.63,8,8,0,0,0,1.44-1.62,7.89,7.89,0,0,0,.54-1,7.58,7.58,0,0,0-3.69-10.06c-.35-.16-.68-.32-1-.51l-.48-.25c-.34-.17-.66-.37-1-.56a19,19,0,0,1-1.81-1.23l-.57-.44a18.65,18.65,0,0,1-1.75-1.58q-.24-.24-.45-.49c-.22-.23-.43-.47-.63-.7s-.31-.37-.45-.55a19.75,19.75,0,0,1-1.54-2.22l-.26-.44a24.53,24.53,0,0,1-1.1-2.2c-.15-.37-.31-.75-.45-1.14s-.29-.79-.42-1.2-.17-.54-.25-.82-.23-.81-.34-1.23-.19-.85-.28-1.29c.37,0,.74.05,1.09.1s.45,0,.68.06h.05c.38,0,.75.1,1.13.16h.1c.47.08.92.16,1.37.26h0c.41.1.81.18,1.21.29.55.15,1.09.31,1.64.5s.82.28,1.22.44.83.35,1.24.53,1,.48,1.46.74.75.41,1.1.63l0,0c.39.24.77.49,1.15.76s.78.54,1.16.84.76.6,1.13.91.72.65,1.08,1a24.57,24.57,0,0,1,1.91,2c.38.43.74.88,1.09,1.34,7.17,9.39,9.1,23.51,5.72,33.88a101.43,101.43,0,0,0-7.05,11.22,7.57,7.57,0,0,0,11.93,9,36.08,36.08,0,0,0,8.61-12.88,128.06,128.06,0,0,1,23.92-24.59q-3.07,6.59-6.07,12.78h0c-26,53.36-49.7,84.15-89.19,82.24-21.06-1-36.61-13.22-41.57-32.66-6-23.39,4-56.81,39.88-78.72.55-.34,1.1-.67,1.64-1,1-.61,2-1.18,3-1.73s2.26-1.2,3.38-1.75l1.35-.65c1.11-.53,2.22-1,3.3-1.47a57.17,57.17,0,0,1-1-7.72,53.81,53.81,0,0,1,.09-8c-1,.34-1.95.68-2.94,1.06l-1.6.64-1.66.69c-.55.24-1.1.48-1.67.74-.74.34-1.48.67-2.23,1s-1.43.7-2.15,1.08c-.4.19-.8.4-1.19.62-.81.42-1.62.87-2.43,1.32-1.28.71-2.56,1.46-3.85,2.25-42.44,25.94-54,66.61-46.65,95.39,6.61,25.83,27.89,42.7,55.53,44,1.46.06,2.9.11,4.33.11,26.48,0,48.16-12.05,67.89-37.66C154,223,166.17,199.79,178.62,173q4.3-9.23,8.64-19a98.56,98.56,0,0,1,10.74-4c14.4-4.51,25.2-8.88,33.56-13.19,3.3-1.7,6.23-3.4,8.85-5.07a19.63,19.63,0,0,0,9,9.84c11.46,6.36,24.31-1.18,33.74-9.25,2.89-2.47,5.44-5,7.55-7.16a20.64,20.64,0,0,0,2.07,8.87c5.27,10.27,13.3,11.93,17.61,12,7.22.13,14.89-3.76,22.1-9.39a97.8,97.8,0,0,0,8.39-7.43c.11.37.22.75.34,1.11.23.75.49,1.49.77,2.24.14.38.28.75.43,1.13a4,4,0,0,0,.15.38l.43,1q.28.63.58,1.27c.24.51.49,1,.76,1.53s.5.93.76,1.4.54.93.82,1.4c.56.93,1.17,1.86,1.83,2.8q.49.7,1,1.4a43.76,43.76,0,0,0,3.34,3.92,63,63,0,0,0,12,9.55,89.87,89.87,0,0,0,10.05,5.41c.83.39,1.67.76,2.52,1.14l.21.09c.88.38,1.76.75,2.67,1.1l.14.05c.94.38,1.9.74,2.89,1.09s2,.7,3,1a124.61,124.61,0,0,0,43.06,6.19c.4,0,.8,0,1.2-.05,3.25-.14,6.46-.42,9.62-.83,36.28-4.76,64-26.69,78.06-61.73C525.73,91.2,527,72.67,521.36,56.69ZM368.88,27.2c-1.22,4-6.38,12.95-26.66,29.37q-2.43,2-4.89,3.87C350.36,42.88,362.73,30.95,368.88,27.2ZM238.45,59.69c.32-.41.66-.81,1-1.21q3.18-3.83,6.29-7c.36-.37.71-.71,1.06-1A69.27,69.27,0,0,1,252.94,45c.31-.25.63-.48.93-.7q1.4-1,2.76-1.91l.91-.56.91-.53c.53-.31,1-.59,1.57-.84a28.31,28.31,0,0,1,3-1.33c.32-.13.65-.24,1-.35a21.82,21.82,0,0,1,2.92-.8c.24-.05.47-.1.69-.13a19.54,19.54,0,0,1,3.33-.29,17.64,17.64,0,0,1,5.37.82c1.72.54,2.36,2.16,1.87,4.82-.05.31-.13.64-.22,1s-.15.55-.24.82-.15.41-.24.63-.14.36-.22.53a.15.15,0,0,1,0,.06c-.1.22-.19.44-.31.67s-.31.64-.5,1A23.53,23.53,0,0,1,273,52.48c-.28.3-.57.59-.88.9s-.39.39-.6.57l-1,.88c-.6.53-1.22,1-1.89,1.55-.19.15-.39.3-.6.44s-.52.39-.78.56-.44.31-.67.47c-.61.42-1.24.82-1.9,1.23l-.84.5c-.3.18-.62.36-.93.53l-1,.53-1,.52-.05,0-1.3.64-1.35.63-1.57.68-1.16.48-1.63.64c-.51.19-1,.38-1.56.56l-.44.15-1.21.41c-.89.28-1.81.57-2.75.84l-1.34.37c-1.38.39-2.83.75-4.33,1.08-.5.12-1,.23-1.5.32q-4.56,1-9.74,1.61Q234.77,64.21,238.45,59.69Zm265,46.45c-15.28,38.11-44.31,49.5-66,52.35-1,.14-2.09.26-3.16.36-.87.09-1.74.15-2.63.21l-.3,0c-.4,0-.8.05-1.21.06h-.24l-1.85.08c-.13,0-.26,0-.39,0-.79,0-1.59,0-2.39,0h-.1l-1.95,0c-.66,0-1.33,0-2-.05l-2.1-.09L417.2,159h0c-1.34-.1-2.69-.22-4-.36q-4.09-.44-8.17-1.15l-2-.37-2-.41h0c-2.68-.56-5.33-1.22-7.93-2l-.83-.25q-1.1-.32-2.21-.68h0c-.71-.23-1.42-.47-2.12-.71s-1.43-.5-2.13-.77l-.24-.09c-.63-.24-1.24-.48-1.85-.72-1.42-.57-2.8-1.17-4.14-1.81-.56-.26-1.11-.53-1.66-.8-.7-.35-1.38-.7-2.06-1.07q3.7-3.36,7.57-6.85c2.09-1.87,4.11-3.62,6.08-5.24l1.3-1.06q2.11-1.7,4.14-3.22c.66-.5,1.32-1,2-1.44,2.26-1.63,4.44-3.09,6.52-4.4.36-.23.7-.44,1.06-.65a78.52,78.52,0,0,1,13.49-6.69c.34-.12.66-.25,1-.36a44.09,44.09,0,0,1,11.77-2.57l.8,0h.34l1,0H433c1,.45,2,.88,3.05,1.24l.43.16c1.09.39,2.21.74,3.33,1q.52.15,1,.26a2.56,2.56,0,0,0,.39.1q.37.1.75.16a41.82,41.82,0,0,0,4.68.74,6.84,6.84,0,0,0,1.33,0,2.82,2.82,0,0,0,.28,0l.38-.05a4,4,0,0,0,.87-.19,1.64,1.64,0,0,0,.3-.1,4.88,4.88,0,0,0,.66-.25l.36-.17c.18-.1.37-.19.54-.3s.38-.25.56-.38a6.72,6.72,0,0,0,.53-.44,5,5,0,0,0,.71-.72,2.67,2.67,0,0,0,.22-.27,5,5,0,0,0,.39-.55l0,0a3.87,3.87,0,0,0,.26-.47c.12-.21.22-.42.32-.65h0a6.11,6.11,0,0,0,.23-.63,1.83,1.83,0,0,0,.11-.4,3.82,3.82,0,0,0,.12-.48,6.66,6.66,0,0,0,.1-.67c0-.06,0-.13,0-.19a5.56,5.56,0,0,0,0-.61,6.09,6.09,0,0,0,0-.63c0-.21,0-.4-.08-.59a7.73,7.73,0,0,0-.41-1.48,4.64,4.64,0,0,0-.23-.53c0-.06-.05-.12-.09-.17a6,6,0,0,0-.32-.57,5.38,5.38,0,0,0-.36-.51,6.48,6.48,0,0,0-.42-.53c-.15-.16-.32-.34-.49-.49s-.31-.28-.48-.41a6.18,6.18,0,0,0-.61-.42l-.35-.23,0,0-.81-.49a28.61,28.61,0,0,0-5.64-2.42l-.93-.27a35.49,35.49,0,0,0-4.09-.92c-.36-.06-.72-.12-1.09-.16s-1-.13-1.45-.17l-.9-.54c-.36-.22-.71-.45-1.07-.69s-.69-.49-1-.75-.64-.49-1-.75l-.1-.08c-.32-.27-.64-.53-.94-.81s-.44-.4-.66-.62-.36-.34-.53-.52-.32-.31-.48-.48-.5-.53-.74-.8-.61-.69-.9-1-.79-1-1.17-1.53a32.78,32.78,0,0,1-2.4-3.84,34.87,34.87,0,0,1-.08-32.8q.31-.58.65-1.14c.35-.59.7-1.17,1.07-1.73a.13.13,0,0,1,.05-.08c.36-.55.74-1.09,1.11-1.61s.81-1.07,1.23-1.59.81-1,1.22-1.43l.23-.25c.4-.42.79-.83,1.2-1.24s.93-.9,1.42-1.33,1-.84,1.46-1.24c0,0,0,0,0,0,.43-.36.87-.69,1.31-1,.14-.11.28-.22.43-.31.43-.32.89-.63,1.34-.93s1-.64,1.48-.93l.47-.27c.36-.22.71-.41,1.07-.59a3.49,3.49,0,0,1,.44-.24c.51-.27,1-.53,1.53-.77l.06,0c1.13-.54,2.28-1,3.45-1.45s2.4-.83,3.64-1.18c1-.28,1.95-.53,2.94-.74l1.06-.22c.91-.17,1.82-.32,2.74-.44l1.19-.14L459.3,34c.71-.05,1.43-.11,2.14-.13.29,0,.58,0,.87,0,.48,0,1,0,1.44,0l1.42,0,1.43.05,1.33.09.93.09,1.06.11.94.12,1.17.17c.55.09,1.1.17,1.64.28.92.17,1.84.37,2.75.6q.68.16,1.36.36c.45.12.9.25,1.34.39a48.09,48.09,0,0,1,6.45,2.47C494.44,42.76,522,59.93,503.43,106.14Z"/><path class="cls-3" d="M347.29,153.09q-3.88,3.49-7.61,6.77-3.55,3.13-7,6.07c-.88.75-1.74,1.48-2.62,2.21s-1.83,1.54-2.74,2.28c-4.57,3.75-9,7.23-13.39,10.4-.7.52-1.42,1-2.12,1.5q-1.57,1.12-3.15,2.17c-.64.42-1.27.84-1.9,1.24-.41.28-.83.54-1.24.81l-2,1.25c-3.07,1.89-6.14,3.62-9.25,5.19l-1.32.65c-2.82,1.38-5.67,2.62-8.56,3.72l-1.07.4q-3.25,1.18-6.58,2.13l-1.24.35-1.55.4-1.42.34-.85.19-1.15.25c-1.11.23-2.24.44-3.38.63l-1.24.21c-.84.13-1.69.24-2.54.35l-1,.12c-1,.12-2,.21-3,.29s-1.93.14-2.88.19c-21,1.16-33.57-4.34-40.81-10-.3-.23-.61-.47-.89-.71-.6-.49-1.17-1-1.73-1.54-.32-.3-.65-.62-1-.94s-.69-.72-1-1.09-.41-.45-.6-.69-.47-.54-.67-.81-.55-.72-.81-1.08a26.33,26.33,0,0,1-1.64-2.51l-.13-.19a7.57,7.57,0,0,0-12.81,8,1.19,1.19,0,0,0,.09.16c.26.43.52.85.8,1.28.15.25.31.49.48.72a1.5,1.5,0,0,0,.18.27c.64,1,1.32,1.88,2,2.78.24.32.5.64.77,1l.79.92c.81.92,1.66,1.82,2.54,2.68.29.29.6.57.9.85.52.48,1.06,1,1.62,1.45s1.16,1,1.79,1.45l1,.72c.44.34.9.66,1.36,1s.92.62,1.38.92l1.48.94.15.09c9.24,5.58,22.79,10.13,42.15,9.62q1.7,0,3.44-.13l.76,0c.81,0,1.64-.11,2.48-.17,1.88-.15,3.74-.36,5.57-.59l1.69-.24,2.13-.35,1.4-.25,1.75-.34,1.94-.41,1.5-.36c1.15-.27,2.28-.56,3.4-.87l1.69-.48q5-1.46,9.86-3.42c1.07-.42,2.14-.88,3.2-1.34s2.13-.94,3.18-1.44c.53-.25,1.06-.5,1.58-.76,1-.51,2.1-1,3.14-1.59s1.79-.94,2.67-1.43q2.22-1.23,4.44-2.55,1.09-.65,2.17-1.33c3.68-2.27,7.35-4.75,11-7.4l2.81-2.07q4.61-3.44,9.26-7.22l2.65-2.17,2-1.69,1-.81q5.48-4.61,11.13-9.64,2-1.74,4-3.53l.25-.23,3.07-2.76a.83.83,0,0,0,.1-.1A68.12,68.12,0,0,1,347.29,153.09Z"/><path class="cls-4" d="M80.12,144.81c-1.08.45-2.19.94-3.3,1.47l-1.35.65q-1.67.83-3.38,1.75c-2.92-5.28-3.26-11.22-3-15.47.75-.37,1.49-.7,2.23-1,.56-.26,1.11-.5,1.67-.74l1.66-.69,1.6-.64c1-.38,2-.72,2.94-1.06a53.81,53.81,0,0,0-.09,8A57.17,57.17,0,0,0,80.12,144.81Z"/><path class="cls-4" d="M187.27,154q-4.37,9.77-8.64,19a49.68,49.68,0,0,0-20.32,7.53q3-6.18,6.07-12.78A137.09,137.09,0,0,1,187.27,154Z"/><path class="cls-4" d="M216.91,92.3q-1.3,2.29-2.59,4.67t-2.61,4.86c-.17.34-.36.67-.53,1-6.88-.18-12.85-.71-16.49-1.11.62-1.2,1.21-2.4,1.82-3.57l1-1.93q1.12-2.14,2.24-4.22l.82,0c3.83.21,7.64.3,11.33.3Q214.42,92.36,216.91,92.3Z"/><path class="cls-4" d="M359.15,162.79a.83.83,0,0,1-.1.1L356,165.64l-.25.23q-2,1.78-4,3.53a42.57,42.57,0,0,1-12.07-9.53q3.73-3.28,7.61-6.77A68.12,68.12,0,0,0,359.15,162.79Z"/><path class="cls-4" d="M240.42,131.68c-2.62,1.68-5.55,3.38-8.85,5.07-3.62-4.66-2.7-11.69-1.4-16.57a63.48,63.48,0,0,0,12.75-10C240.29,114.94,238,126.44,240.42,131.68Z"/><path class="cls-4" d="M290.71,125.12c-2.11,2.19-4.66,4.7-7.55,7.16-2.8-6.31-2.29-13.79-.62-20.59l0,0,.68-.74A237.66,237.66,0,0,0,303.44,85l0,0,1.28-1.62C296.54,97.23,290,113.21,290.71,125.12Z"/><path class="cls-4" d="M340.88,129.17a97.8,97.8,0,0,1-8.39,7.43c-3.57-4.18-4.57-10.75-4.73-15.89a141.22,141.22,0,0,0,13-14.1C339.25,114.44,339,121.76,340.88,129.17Z"/></g></g></g></svg>