<svg xmlns="http://www.w3.org/2000/svg" viewBox="0 0 1785.83 693.33"><defs><style>.cls-1{isolation:isolate;}.cls-2{fill:#341a3e;}.cls-3,.cls-5{fill:#62ffbe;}.cls-4{fill:#ccc;mix-blend-mode:multiply;}.cls-5{font-size:41.1px;font-family:Helvetica-Light, Helvetica;}</style></defs><title>Recurso 11</title><g class="cls-1"><g id="Capa_2" data-name="Capa 2"><g id="Capa_1-2" data-name="Capa 1"><path class="cls-2" d="M1563.46,257.68C1509.59,506.73,1288,693.33,1022.82,693.33S536,506.73,482.18,257.68H623.52c50.71,172.6,210.29,298.63,399.3,298.63s348.6-126,399.31-298.63Z"/><path class="cls-2" d="M1784.93,346.46c4.69-38.23-9.22-74-39.14-100.77a150.46,150.46,0,0,0-17.88-13.7l-.91-.62a96.32,96.32,0,0,0-35.8-14.12q-3.34-.58-6.84-1a103,103,0,0,0-31.94,1.7,112.88,112.88,0,0,0-53.69,28.41c4.93-13.86,5.65-25.71-2.1-36.86-.52-.74-1.1-1.42-1.67-2.11,8-18,11.1-32.63,1.67-46.21-6.07-8.75-16.07-13.77-27.43-13.77a41.94,41.94,0,0,0-4.72.27c-8.79,1-18.08,4.1-27.73,9.36a32.44,32.44,0,0,0-20.42-6.49c-14.24.31-27.13,7.78-43.62,22.13a27.74,27.74,0,0,0-49.75-10.5s-1.14,1.59-3.14,4.27c-.63-.37-1.33-.67-2-1,19.15-25.67,28.72-51.19,15.11-73.05,7.9-17.26,9.27-33.93-.31-48.86a36.47,36.47,0,0,0-31.23-17.14,44,44,0,0,0-14.3,2.47c-11.43,3.91-23.57,13-35.31,24.5a36.25,36.25,0,0,0-17-21.59,38.07,38.07,0,0,0-19-5c-10.08,0-20.64,3.83-31.39,11.38-20.74,14.56-42.15,42.46-58.54,67.05,4.23-15.06,2.92-27.48-3.53-38.2,8.61-21.08,7.77-37.39-1.71-51a36.72,36.72,0,0,0-30.4-16,41.5,41.5,0,0,0-10.32,1.33c-17.76,4.54-48.91,26.77-96.45,106.88-7.44,12.52-14.76,25.76-21.48,38.82-9.65-2.35-21.64-6.66-37.47-12.36l-.68-.24c-5.89-2.12-12.19-4.38-18.94-6.74a146.48,146.48,0,0,0-48.42-8.49c-44.91,0-73.53,22.1-76.65,24.62a27.49,27.49,0,0,0-7,8.45c3.39-13.56,3.35-25.87-.3-36.61A48.26,48.26,0,0,0,866.67,104c-7.33-10.62-18.47-17.38-32.25-19.55a50.07,50.07,0,0,0-7.77-.6c-1.21,0-2.44.05-3.87.15-.68.05-1.36.11-2.07.19h0l-.51.06c-.64.08-1.29.18-1.94.28l-.33.05-.15,0-.42.07q-1.43.25-2.86.59h0l-.16,0c-.92.21-1.86.44-2.81.72s-1.75.51-2.63.8l-.34.11c-1,.32-1.93.67-2.91,1.07A83.81,83.81,0,0,0,789.5,96.5c-.68.44-1.34.89-1.93,1.3A122.43,122.43,0,0,0,777.09,106c-.81.69-1.64,1.42-2.55,2.23s-1.78,1.61-2.65,2.44-1.69,1.59-2.55,2.44c-3.42,3.32-6.89,7-10.32,10.85l-.18.21c-.57.65-1.16,1.31-1.63,1.87-3.42,3.91-6.93,8.21-10.43,12.77-.74,1-1.48,1.9-2.21,2.89-1.26,1.64-2.52,3.33-3.66,4.93-1.58,2.15-3.17,4.36-4.71,6.57-5.5,7.85-11.11,16.43-16.65,25.47q-1.2,1.95-2.4,3.94c-4.33,7.18-8.59,14.52-12.65,21.84-1.44,2.62-2.91,5.27-4.35,7.94-2.46,4.52-4.92,9.16-7.42,14-1.58,3.05-3.17,6.15-4.74,9.24q-1.34,2.63-2.69,5.33c-.83,1.66-1.66,3.35-2.48,5l-.12.24c-.8,1.63-1.62,3.29-2.4,4.9-1.23,2.53-2.47,5.09-3.69,7.64q-1.63.11-3.2.15c-1.09,0-2.18,0-3.14,0a38.73,38.73,0,0,1-10.94-1.76c.92-1.49,1.73-2.85,2.35-4,10.21-18.25,3.91-32.74-5-40.14,2.14-3.28,3.87-6.09,5-8.18,6.39-11.43,6.29-21.38,3.14-29,26-25.72,44.53-55,30.1-83.12-.45-.87-.94-1.72-1.44-2.54,7.39-15.09,9.22-30.59,1.44-45.78A35.87,35.87,0,0,0,664.6,24.54c-21-1-45.56,16.09-77.39,54.22A603.45,603.45,0,0,0,548,131.9c-6.41,9.93-12.28,19.68-17.45,29a27.3,27.3,0,0,0-2,2.69l0,0A412.35,412.35,0,0,1,493.27,209c-3.85,4.21-7.34,7.78-10.5,10.81l1.57-2c2.8-3.49,9.55-11.91,10-22.5,22.82-14.63,37.74-34.26,41.53-55.25a51.13,51.13,0,0,0-4.75-33.26,65.19,65.19,0,0,0,4.75-15.05c4.6-25.38-8.43-48.22-31.68-55.54a74.8,74.8,0,0,0-28.32-3.3l-.24,0c-34.91,2.81-69,29.68-104.09,82.14q-1.51,2.26-3,4.55l-1.18,0-4.55-.16c-1.45-.06-2.95-.13-4.41-.2a452.91,452.91,0,0,0-55,.23q-3.25.21-6.44.49c-2.92.26-5.77.54-8.67.85-1.87.21-3.69.42-5.35.65-8.39,1.07-16.65,2.46-24.63,4.16l-4.57,1-.49.12-.75.18-.27.06c-3.48.83-7,1.75-10.53,2.75-.32.08-.63.18-.95.28-2.51.72-5,1.5-7.58,2.33A189.4,189.4,0,0,0,195.89,149c-1,.6-2.05,1.22-3.18,1.91q-5.62,3.51-10.48,7.15l-.26.2c-1.25,1-2.49,1.89-3.58,2.77a133.86,133.86,0,0,0-11.48,10.3c-1,1-1.9,2-2.84,3l-.27.29-.15.16c-.77.83-1.53,1.69-2.27,2.56-.38.43-.76.87-1.13,1.31-.87,1-1.72,2.08-2.58,3.17s-1.83,2.38-2.65,3.51-1.78,2.49-2.54,3.65c-.93,1.37-1.87,2.86-2.88,4.54-.48.78-1,1.59-1.42,2.4l-.32.55c-.6,1.06-1.18,2.14-1.73,3.22q-.57,1.08-1.08,2.16c-.38.76-.73,1.49-1,2.12-.74,1.61-1.44,3.23-2.11,4.84-.08.19-.16.39-.23.59l-.78,2.06c-.29.77-.57,1.55-.84,2.34s-.59,1.7-.86,2.55c-.2.62-.39,1.24-.57,1.86l-.13.45q-.42,1.38-.77,2.75c-.24.92-.47,1.84-.68,2.72a16,16,0,0,0-3.06.7,194.34,194.34,0,0,0-39.63,18.86C16.64,291.2-7.61,364.88,2,420.77a143.7,143.7,0,0,0,2.14,58.42C17.62,531.93,60.89,566.36,117,569c2.78.15,5.57.22,8.52.22,51.73,0,95.35-24,133.36-73.24,28.8-37.36,54.31-88.34,83.38-153.18,4.31-1.74,8.62-3.28,12.9-4.61l5.8-1.83a125.46,125.46,0,0,0-11.42,72.32c.3,2.28.68,4.57,1.1,6.88a128.69,128.69,0,0,0-1.1,41.44,146.45,146.45,0,0,0,5,23.21c15.25,50.55,64,85.13,124.24,88.1,5.15.25,10.74.25,15.24,0,1.67-.07,3.37-.17,5.06-.29q1.3-.07,2.61-.2c.66,0,1.32-.11,2-.18,3.23-.31,6.52-.72,10.24-1.29l.74-.12,1.91-.31c1.39-.23,2.81-.49,4.31-.78q3.7-.71,6.7-1.43a191.53,191.53,0,0,0,24.4-7.39l1.55-.59.9-.34c.6-.23,1.17-.46,1.76-.71,1.13-.45,2.27-.91,3.38-1.4s2.09-.88,3.07-1.32l2.26-1c4-1.85,8-3.83,11.64-5.79.75-.4,1.5-.81,2.26-1.22l.09,0c.67-.36,1.34-.74,2-1.13,1.15-.64,2.28-1.3,3.53-2s2.25-1.35,3.3-2c1.21-.74,2.4-1.49,3.59-2.27,2.34-1.49,4.77-3.12,7.11-4.78.74-.51,1.47-1,2.21-1.57l.93-.67A226.38,226.38,0,0,0,621,513.73c.93-.84,1.89-1.71,2.68-2.47,2.32-2.15,4.72-4.5,7.07-6.92,1-1.05,2.07-2.13,3.2-3.3,2.44-2.58,4.45-4.8,6.18-6.79,1.07-1.2,2.14-2.44,3.1-3.58.83-1,1.65-2,2.48-3,.42-.47.8-.95,1.17-1.44.83-1,1.65-2.05,2.41-3,1-1.29,2.05-2.62,3.12-4,2.16-2.87,4.06-5.46,5.77-7.89,1-1.38,2-2.79,2.92-4.22,1.87-2.77,3.75-5.64,5.65-8.64L667,458c.79-1.27,1.59-2.56,2.36-3.84,4-6.68,8-13.74,11.72-21.11l.07.12.14.25h0c.38.67.76,1.33,1.09,2l.22.44c.34.64.66,1.29,1,1.94l.21.46c.33.72.64,1.44,1,2.31.29.67.56,1.34.81,2A49.43,49.43,0,0,1,674.76,460a27.78,27.78,0,0,0,4.52,42.94,43.16,43.16,0,0,1-4.52,5.38,27.78,27.78,0,0,0,39.31,39.28c25.81-25.81,36.73-66.43,29.17-104.86a125.13,125.13,0,0,0-3.88-63.17c-.56-1.69-1.15-3.37-1.8-5-.42-1.11-.85-2.23-1.34-3.41-.13-.33-.28-.67-.42-1-.46-1.09-.94-2.21-1.52-3.42l-.13-.28c-.65-1.43-1.33-2.83-2.06-4.2-.8-1.54-1.63-3.08-2.49-4.58-.56-1-1.17-2-1.79-3-.15-.26-.31-.53-.48-.79-.34-.55-.69-1.11-1.07-1.68a221.59,221.59,0,0,0,48.62-26c-5.31,23.27,3.65,43.9,23.35,53.7a27.8,27.8,0,0,0,2.26,7.62,107.64,107.64,0,0,0,8.3,14.7,27.73,27.73,0,0,0-8.3,33.62c8.68,18.87,24.83,37.58,45.47,52.68,24.42,17.87,54.12,30.55,88.28,37.69a337.15,337.15,0,0,0,68.83,6.78c7,0,14.3-.2,21.73-.59,4.84-.26,9.82-.61,14.87-1q3.71-.33,7.48-.72c4.94-.51,10.06-1.12,15.2-1.81,7.68-1,15.55-2.26,23.35-3.67,5.48-1,10.84-2,15.88-3.08,7.94-1.64,16.13-3.52,24.33-5.57,37.82-9.44,78.4-23.12,120.6-40.65,6-2.5,12.22-5.15,19-8.1,6.17-2.71,12.3-5.33,18.25-7.81,7.17-3,14.22-5.88,21-8.57,3.8-1.52,7.53-3,11.3-4.42A862.38,862.38,0,0,1,1404.22,418c1.3-.36,2.56-.69,3.84-1l.24-.06c1.33-.35,2.66-.69,4.21-1.07.78-.21,1.55-.4,2.33-.59l2.83-.69,3.59-.85,3.73-.87c2.37-.55,4.72-1.07,7.15-1.59a435.87,435.87,0,0,1,62-9.26c3.14,33.94,17.47,63.83,42.62,88.91,26.29,26.2,58.74,40,93.83,40h0a139.08,139.08,0,0,0,45.43-7.82c56.43-19.5,102.25-73.46,109-128.31a114.06,114.06,0,0,0-1.68-38.18Q1784.31,351.54,1784.93,346.46Zm-149,38.62c-.28-.36-.67-.82-1.14-1.35a50.45,50.45,0,0,1-4.93-6.63,28.51,28.51,0,0,0,2.39-1.79,28,28,0,0,0,3.67-38.54l-.32-.39.3-.32c.16-.17.33-.34.49-.5l.3-.29a51.74,51.74,0,0,1,27-14.48l.58-.11.18,0c10.37-1.83,21.19-.32,29.32,3.93l.34.18c.47.25.93.49,1.57.87.33.19.66.4,1.06.66a98.47,98.47,0,0,1,13.11,10.1,65.13,65.13,0,0,1,15.52,20.91c-10.55,28.21-37,54.39-67.54,64.94a86.16,86.16,0,0,1-27.59,4.78c-1,0-2,0-3-.07a28.36,28.36,0,0,0,5-3.32A28,28,0,0,0,1635.89,385.09Zm-369.35-26.56-.78.33c-1.1.45-2.22.91-3.35,1.4l-.36.15-1.93.81c-5.55,2.34-11.18,4.76-16.93,7.27-6.44,2.83-12.38,5.35-18.21,7.73-19.33,8-38.49,15.24-56.94,21.44-4.73,1.58-9.43,3.13-14.13,4.61-6.59,2.09-13.26,4.08-19.87,5.94-6.13,1.75-12.5,3.46-18.92,5.08-3.77.95-7.5,1.86-11.25,2.72s-7.72,1.76-11.57,2.58c-3.41.73-6.82,1.41-10.3,2.06s-7.28,1.36-11.77,2.12c-3.11.53-6.21,1-9.34,1.47-6.41,1-12.8,1.77-19,2.42a383.75,383.75,0,0,1-40,2.19c-3.5,0-7.26-.06-11.32-.18-2.41-.09-4.81-.21-7.26-.36-4.71-.27-9.48-.67-14.2-1.2-2.33-.26-4.62-.53-6.93-.85-3-.4-6.22-.91-10-1.58-2.21-.4-4.38-.82-6.56-1.28-32.5-6.8-70-24-88.18-48.42A29.67,29.67,0,0,0,870,377.81c7.38,0,14.69-2.65,21.71-7.88a112.05,112.05,0,0,0,9.82-8.33,27.78,27.78,0,0,0,24.44,14.5c10.8,0,20.24-6,25.31-16.12.25-.51.91-1.73,1.74-3.26a35.57,35.57,0,0,0,4.58,11.47c6.49,10.65,18,16.78,31.8,16.84,16.51,0,32.23-7.74,47.63-23.54a41.92,41.92,0,0,0,18.42,10.67c14.75,4.11,31.53.09,48-11.49a46.39,46.39,0,0,0,42.87,8.16c9.53-2.88,19.15-9,28.75-18.32a43,43,0,0,0,29.59,11.74c15.06,0,31.6-7.48,47.94-21.43a37.75,37.75,0,0,0,19.27,13.08c1.25.37,2.51.65,3.79.89l-4.4,1.8C1269.69,357.22,1268.12,357.88,1266.54,358.53Zm-96.09-149.19c-.21.41-.41.83-.6,1.25-1.64,3.59-3.4,7.15-5.21,10.62,1.35-8.12,0-14.83-3-20.11,10.14-11.43,19-22,26.8-31.94C1182.46,181.09,1175.85,195.23,1170.44,209.34ZM565.49,438.68l-.45.3c-2.36,1.62-4.77,3.15-7.2,4.64a98.71,98.71,0,0,0,7.36-48.29c12.79-3,28.07-3.58,45.09-1.48l.33,0a203.87,203.87,0,0,1-27.24,30.57l-.51.44c-1.51,1.38-3,2.71-4.58,4l-.38.31c-1.6,1.33-3.21,2.62-4.81,3.89l-.31.24C570.34,435.23,567.88,437,565.49,438.68ZM436,380.85c11.34-7.7,24-11.95,35.63-12-.27,1.19-.54,2.39-.76,3.58-2.59,14-1.49,27.12,2.58,37.92-.08.27-.17.53-.25.8a85.1,85.1,0,0,0-2.33,9.59c-3,16.46-1,31.63,5,43.31-33.43-3.39-59.63-21.59-67.81-47.5C415.22,396.55,430.12,384.83,436,380.85ZM305.81,239.68q-3,6.73-5.86,13.32a241.71,241.71,0,0,0-39.85,26.46,102.07,102.07,0,0,0-14.34-26,93.22,93.22,0,0,0-12.21-13.16c.58-.27,1.16-.54,1.72-.79,20.45-9.26,47.17-14.88,78-16.53Q309.56,231.16,305.81,239.68ZM125.31,465.37c-1.82,0-3.7,0-5.57-.14-30.77-1.48-52.79-18-60.94-45.29,7.4-28.18,27.57-57.92,64.58-80.55a161.83,161.83,0,0,1,17.11-9.18c.3.8.62,1.61,1,2.43.64,1.57,1.33,3.09,1.95,4.39.89,1.91,1.92,3.86,3.07,5.82.55,1,1.11,1.86,1.68,2.76s1.07,1.63,1.61,2.42l.14.2c.57.82,1.13,1.6,1.7,2.36s1.16,1.52,1.76,2.27,1.19,1.46,1.81,2.18c.4.46.8.91,1.2,1.35l.44.49.57.61,1.49,1.52c.37.38.75.75,1.12,1.11l.42.41.41.4a82,82,0,0,0,8.88,7.22c.57.4,1.16.81,1.75,1.19.88.6,1.74,1.15,2.6,1.67.68.43,1.35.83,1.88,1.12,2.2,1.26,4.44,2.43,6.62,3.44a27.59,27.59,0,0,0,15,2.41,28,28,0,0,0,8.27,10.12c-5.24,8.08-7.86,13.24-7.94,13.4a27.67,27.67,0,0,0,2.35,29.24C178.12,453.57,154.21,465.37,125.31,465.37Z"/><path class="cls-3" d="M857.2,120.85a31.33,31.33,0,0,0-3.8-7.66c-4.72-6.83-12.1-11.3-21.49-12.77a33.2,33.2,0,0,0-5.27-.41c-.85,0-1.73,0-2.6.09l-1.47.14-.37,0c-.62.07-1.22.16-1.84.28a.76.76,0,0,0-.23,0c-.67.11-1.33.25-2,.41a.43.43,0,0,0-.16,0c-.71.16-1.43.32-2.14.53a.14.14,0,0,0-.09,0c-.71.21-1.4.44-2.14.67s-1.4.48-2.12.78a66.37,66.37,0,0,0-13.23,7c-.53.32-1,.67-1.56,1a105,105,0,0,0-9.16,7.16c-.71.6-1.45,1.24-2.19,1.91s-1.66,1.5-2.46,2.28-1.5,1.4-2.25,2.16q-4.73,4.56-9.55,10c-.58.67-1.17,1.36-1.77,2q-4.87,5.59-9.8,12c-.71.9-1.4,1.79-2.09,2.71-1.17,1.54-2.37,3.15-3.54,4.79-1.5,2-3,4.14-4.51,6.3q-7.94,11.32-16.11,24.64c-.78,1.27-1.56,2.55-2.35,3.84-4,6.74-8.19,13.85-12.33,21.31-1.43,2.58-2.85,5.18-4.3,7.85q-3.62,6.66-7.25,13.67c-1.56,3-3.15,6.07-4.72,9.18-.87,1.73-1.75,3.45-2.62,5.2s-1.63,3.29-2.46,4.95-1.66,3.34-2.46,5q-2.45,5-4.95,10.28-1.24,2.59-2.49,5.25h0a98.79,98.79,0,0,1-13.48,1.33c-1.4,0-2.78,0-4.12,0-12.91-.44-23-4.28-28.46-10.84-10-12-14.13-25-12.31-38.61.07-.62.18-1.22.28-1.84a247.62,247.62,0,0,0,18.38-26.74c6.81-12.17,1-18.29-1.82-20.34-3.61-2.65-11.16-5.48-21.26,5.22a74.4,74.4,0,0,0-17,31.55C602.15,220,596.14,226.76,590,232.9c-13.28,13.3-27.13,23.63-37,23.63h-.25c-1.7,0-5.64-.09-9.62-7.87-2.85-5.54-1.5-24.57,18.41-62.24a740.71,740.71,0,0,0,63.78-45.67c48.64-39.37,66.17-67.69,55.2-89.11a19.68,19.68,0,0,0-16.82-11c-36-1.84-99.56,95.88-102.25,100-5.48,8.47-11.76,18.71-17.79,29.73a11.33,11.33,0,0,0-1.7,2.07,448.06,448.06,0,0,1-32.12,42.11l0,0c-1.56,1.77-3.11,3.52-4.72,5.27-26.69,29.22-43.44,35.59-50.23,31.84-4.69-2.62-5.48-5.38-5.64-8-.3-4.76,1.77-10.56,4.81-16.22,6.19-5.75,11.55-12.15,17.67-19.74,3.7-4.65,9.34-11.64,4.72-19.33a12,12,0,0,0-12.52-5.5c-5.27,1-12.36,7.41-21.08,19a116,116,0,0,0-6.72,9.94,10.39,10.39,0,0,1-.6,1A100.75,100.75,0,0,1,414.88,226c-14.73,7.29-36.38,15.23-71.47,26.23q16-36.14,31.38-65.21c3-5.64,5.94-11,8.86-16.27-2.53.07-5.08.09-7.66.09-6.1,0-12.4-.16-18.75-.46q-4.28,7.9-8.58,16.31-13.87,27.06-28.09,59.45c-2.78,6.3-5.5,12.49-8.21,18.57a232.45,232.45,0,0,0-61.62,45c-1.68-16.64-7.59-33.18-17.79-46.5a72,72,0,0,0-45.93-28c-1.91-.32-3.84-.58-5.84-.76s-3.91-.32-5.89-.35l.07-.28c.14-.69.3-1.36.48-2,0,0,0-.07,0-.09.18-.74.37-1.43.6-2.14a61.77,61.77,0,0,1,2.32-6.56c.16-.41.35-.8.51-1.2a56.31,56.31,0,0,1,3-6c.16-.34.35-.67.53-1,1.13-1.93,2.37-3.87,3.68-5.73l1.45-2a0,0,0,0,1,0,0l1.52-1.93a80.41,80.41,0,0,1,5.5-6.14,96.77,96.77,0,0,1,8-7.2c1.52-1.2,3.11-2.39,4.72-3.52a122.8,122.8,0,0,1,14.68-8.86c2-1,4.1-2,6.24-3,26.83-12.15,62.28-18.5,104.16-18.5,7.62,0,15.46.21,23.49.64,2.44.12,4.85.23,7.25.3,4.21.14,8.38.21,12.45.21,4.92,0,9.78-.09,14.52-.3h0c2-.09,4-.21,5.94-.32l1.15-.07c1.56-.09,3.11-.21,4.65-.35l1.1-.11c1.54-.12,3.06-.25,4.6-.41.53-.07,1.08-.11,1.59-.18,1.73-.16,3.41-.39,5.06-.6h0c1.66-.21,3.31-.44,4.95-.69s3.29-.51,4.92-.78c.74-.11,1.5-.23,2.23-.37l4-.76c.37-.09.71-.14,1.06-.23,1.73-.35,3.41-.69,5.09-1.08,3.7-.85,7.32-1.77,10.84-2.81,1.59-.46,3.17-.92,4.74-1.43s3.08-1,4.6-1.54h0c1.59-.58,3.15-1.13,4.69-1.75s3.06-1.17,4.56-1.82,2.92-1.27,4.33-1.93a.52.52,0,0,0,.28-.14c1.38-.62,2.74-1.29,4.07-2,25.06-12.7,41.46-31.15,45-50.64,3.15-17.42-5.15-32.42-20.68-37.32A58.71,58.71,0,0,0,476.93,49h0c-29.45,2.37-60,27.2-92,75.05-2.53,3.77-5.08,7.71-7.64,11.76-2,0-4,0-6.1,0-1.5,0-3,0-4.46-.09l-4.56-.14c-1.52-.07-3.08-.14-4.62-.23-8.93-.46-17.42-.69-25.59-.69q-14.53,0-27.54.92c-2,.12-4,.28-6.05.46-2.81.25-5.59.53-8.31.81-1.73.21-3.43.39-5.11.62-8.26,1.06-16,2.39-23.22,3.91-1.52.35-3,.67-4.46,1-.46.12-.87.21-1.33.3-3.5.83-6.88,1.73-10.15,2.67,0,0,0,0,0,0-2.58.74-5.11,1.52-7.57,2.3A172.17,172.17,0,0,0,204,162.93c-.94.53-1.89,1.1-2.78,1.66-3.31,2.07-6.42,4.16-9.27,6.3-1.22.92-2.39,1.82-3.52,2.74a116.12,116.12,0,0,0-10,9c-.9.9-1.77,1.82-2.65,2.76a3.28,3.28,0,0,0-.25.28c-.67.71-1.31,1.45-2,2.21a14.14,14.14,0,0,0-.92,1.08c-.78.87-1.52,1.82-2.23,2.74s-1.61,2.09-2.39,3.18-1.5,2.07-2.19,3.13c-.85,1.27-1.68,2.58-2.46,3.87-.51.83-1,1.68-1.47,2.51s-1,1.82-1.45,2.74a17.74,17.74,0,0,0-.87,1.75c-.32.62-.62,1.22-.87,1.82-.67,1.45-1.29,2.9-1.91,4.33l-.76,2-.76,2.07c-.25.69-.48,1.4-.69,2.09s-.44,1.4-.64,2.12-.41,1.4-.58,2.12c-.35,1.29-.67,2.58-.94,3.89s-.51,2.51-.71,3.75c-.09.58-.21,1.17-.28,1.75s-.18,1.22-.25,1.84a83.52,83.52,0,0,0-.48,15.74,88.9,88.9,0,0,0,1.17,10.1c.18,1.06.39,2.09.62,3.13s.41,1.91.64,2.85l.07.21c.48,1.93,1.06,3.82,1.68,5.59.46,1.38,1,2.67,1.47,3.93s1.08,2.53,1.66,3.73c.74,1.59,1.56,3.08,2.42,4.56.41.74.85,1.43,1.29,2.14s.9,1.36,1.36,2,.92,1.31,1.4,1.93.92,1.24,1.4,1.84,1,1.2,1.47,1.75,1,1.1,1.47,1.66,1,1.06,1.52,1.56,1,1,1.47,1.45a67.34,67.34,0,0,0,7.25,5.89l1.27.85c.74.51,1.47,1,2.19,1.4.48.3,1,.6,1.45.87,1.93,1.1,3.77,2,5.43,2.81a11.69,11.69,0,0,0,4.9,1.1h0a11.24,11.24,0,0,0,1.52-.12c.32,0,.6-.09.9-.14a9.06,9.06,0,0,0,1.59-.48,10.1,10.1,0,0,0,2.19-1.06,10.94,10.94,0,0,0,1.33-1,11.7,11.7,0,0,0-2.62-19.53c-.87-.39-1.7-.81-2.53-1.27s-1.5-.81-2.19-1.24a2.29,2.29,0,0,1-.39-.25c-.71-.44-1.4-.9-2.07-1.36s-1.36-1-2-1.5a.35.35,0,0,0-.14-.12c-.53-.44-1-.87-1.54-1.36a7.81,7.81,0,0,1-1-.94c-.35-.32-.69-.64-1-1a8.88,8.88,0,0,0-.62-.67c-.41-.46-.83-.92-1.22-1.4-.14-.16-.25-.32-.39-.46-.46-.58-.92-1.17-1.36-1.77-.62-.87-1.2-1.75-1.75-2.69-.32-.48-.58-1-.87-1.47-.39-.76-.78-1.5-1.13-2.25a10.45,10.45,0,0,1-.53-1.15c-.23-.51-.46-1-.67-1.54-.11-.28-.21-.58-.32-.85-.21-.51-.37-1-.55-1.56a4.86,4.86,0,0,1-.18-.53c-.09-.28-.16-.53-.25-.81-.14-.48-.3-1-.41-1.5-.09-.28-.16-.53-.23-.81s-.09-.34-.11-.51q-.24-.9-.41-1.79c-.07-.32-.16-.64-.21-1-.14-.74-.28-1.47-.39-2.21,0-.07,0-.16,0-.23a55.09,55.09,0,0,1,12.17,1.56c10.91,2.69,20.2,8.86,27.54,18.5,13.51,17.67,17.1,43.49,10.75,62.68a174.25,174.25,0,0,0-12.93,20.55,11.66,11.66,0,0,0,18.38,13.83,62.17,62.17,0,0,0,14.77-22.34,228.3,228.3,0,0,1,50.14-49.93q-5.11,11.08-10.1,21.56C236.7,425.67,193.26,484.91,119,481.33c-38.79-1.86-67.44-24.37-76.6-60.21-11-42.77,7.27-103.82,72.62-143.78q3-1.86,6-3.52a155.87,155.87,0,0,1,19.37-9.36A99.17,99.17,0,0,1,139,253.13a91.39,91.39,0,0,1,.09-13,159.6,159.6,0,0,0-23,9.82q-6.59,3.38-13.35,7.5c-75.51,46.18-96.11,118.4-83,169.48,11.67,45.63,49.26,75.42,98.09,77.75,2.6.14,5.13.21,7.68.21,47,0,85.5-21.44,120.61-67,25.29-32.79,48.3-77.47,71.95-129q6-13,12.08-26.69a185.48,185.48,0,0,1,20.2-7.62C377.28,266.1,397,259.2,412,252.85c5.2-2.19,9.85-4.33,14-6.42,1,10.93,7.06,19.86,17.53,25.65,17.69,9.82,39.55,2,66.56-23.91q4.28-4.11,8.74-8.84c-.39,7.57.62,14.38,3.5,20,8.54,16.7,21,20.39,30,20.55,15.37.32,31.94-9.92,46.89-23.4,2.76-2.48,5.5-5.11,8.14-7.78a77.32,77.32,0,0,0,15.9,30.3c9,10.81,22.76,17.26,40.1,18.89,1.79.18,3.64.3,5.52.37,2.35,0,4.72,0,7.09,0-1.73,3.87-3.45,7.78-5.22,11.78-1.52,3.54-3.06,7.11-4.62,10.75a13.51,13.51,0,0,0-1.43-.67c-1.93-.94-4-1.82-6-2.65l-.14-.07c-1.06-.44-2.09-.87-3.15-1.29s-2-.76-3-1.1c-1.43-.51-2.85-1-4.3-1.47s-2.83-.9-4.26-1.33a.54.54,0,0,1-.18,0c-1.47-.41-2.95-.85-4.46-1.22s-3-.78-4.58-1.15c-.87-.21-1.75-.39-2.65-.58s-1.56-.34-2.37-.51c-1.5-.3-3-.6-4.58-.85s-3.11-.53-4.67-.76c-6.67-1-13.18-1.68-19.44-2-3.75-.21-7.45-.32-11.07-.32-1.4,0-2.76,0-4.12,0q-.93,0-1.86.07c-1,0-2,0-3,.11-4.58.25-9,.67-13.35,1.31-.58.07-1.17.16-1.73.25-1,.14-2,.32-2.9.51l-1.52.25c-2.23.44-4.39.92-6.53,1.47a2.48,2.48,0,0,0-.55.14l-1.59.41c-.87.23-1.73.48-2.58.74-.32.07-.6.16-.92.25-1,.3-2,.64-3,.94-.53.18-1,.35-1.54.55-1,.35-2,.71-3.06,1.13l-.16,0c-1.24.48-2.49,1-3.7,1.52-.41.16-.83.34-1.22.51a80,80,0,0,0-7.62-9.32,92.29,92.29,0,0,0-9.53-8.7c-27.93-22.18-70.36-21-105.61,2.92-29.11,19.74-54.95,57.22-48.34,106.74A132,132,0,0,0,370,427.28c13.25,43.95,56.26,74,109.59,76.67,2.44.12,4.9.16,7.41.16,2.12,0,4.26,0,6.44-.14,1.54,0,3.11-.14,4.65-.25.76,0,1.52-.12,2.28-.18.6,0,1.22-.09,1.82-.16,3-.28,6.1-.67,9.18-1.15l2.51-.39c1.33-.23,2.67-.48,4-.74,2-.39,4-.81,6.1-1.29A179.5,179.5,0,0,0,546.47,493l2.21-.85c.51-.18,1-.39,1.5-.6,1.08-.44,2.19-.87,3.24-1.33s1.86-.78,2.76-1.2l2.09-.94c3.61-1.63,7.25-3.43,10.84-5.38l2.21-1.2c.55-.3,1.1-.62,1.63-.92q1.62-.9,3.24-1.86c1.06-.64,2.14-1.29,3.2-2s2.16-1.33,3.24-2c2.23-1.4,4.46-2.92,6.65-4.46,1-.67,1.89-1.36,2.85-2a209.21,209.21,0,0,0,18-14.75c.83-.76,1.7-1.52,2.53-2.32,2.19-2,4.37-4.19,6.53-6.4l3-3.08c2-2.09,3.93-4.23,5.87-6.47,1-1.08,2-2.21,2.9-3.34s1.66-2,2.49-3a5.78,5.78,0,0,0,.6-.71c.87-1.08,1.75-2.19,2.62-3.29s1.89-2.42,2.81-3.64q2.8-3.69,5.52-7.52c.92-1.29,1.82-2.6,2.69-3.91,1.79-2.67,3.57-5.36,5.32-8.12.87-1.38,1.75-2.78,2.6-4.21q3.93-6.52,7.71-13.53c1.59-2.92,3.13-5.91,4.65-9,.78-1.59,1.56-3.2,2.32-4.81.6-1.22,1.17-2.46,1.77-3.7A83,83,0,0,0,652.51,353c-1.38,3.11-2.81,6.14-4.26,9.13-1.36,2.78-2.74,5.52-4.16,8.21-2.23,4.28-4.56,8.44-6.93,12.45-1.54,2.6-3.11,5.13-4.69,7.64-.78,1.24-1.56,2.46-2.39,3.68-1.61,2.42-3.22,4.79-4.86,7.09l0,0a221.34,221.34,0,0,1-31.45,35.57h0c-1.82,1.63-3.66,3.24-5.5,4.79h0c-1.86,1.54-3.73,3-5.57,4.51h0q-4.21,3.24-8.44,6.17h0q-5.66,3.9-11.39,7.2l0,0c-3.82,2.19-7.66,4.21-11.48,6.07a163.63,163.63,0,0,1-19.17,7.73,143.4,143.4,0,0,1-45,7.46c-2.12,0-4.26,0-6.3-.14-43.35-2.14-78-25.72-88.38-60.08a101.06,101.06,0,0,1-3.89-18.84c-4.19-38.29,15.9-67.16,38.47-82.49,14.47-9.82,30.28-14.8,44.89-14.8,12.4,0,24,3.59,33.06,10.81,1.31,1,2.55,2.12,3.75,3.2a59.9,59.9,0,0,1,7.89,8.63c-.53.41-1,.83-1.54,1.29a.3.3,0,0,0-.16.12c-.53.44-1.06.87-1.56,1.31s-1.29,1.15-1.91,1.73c-.39.37-.76.71-1.13,1.08-1.36,1.31-2.67,2.65-3.91,4a75.25,75.25,0,0,0-5.36,6.51q-.86,1.14-1.66,2.28s0,0,0,.07l-.76,1.13a72.72,72.72,0,0,0-4.56,7.75c-.3.55-.6,1.15-.87,1.73s-.6,1.22-.87,1.84-.53,1.17-.76,1.75c-.76,1.77-1.45,3.54-2,5.36l-.35,1.06c-.16.46-.3.9-.44,1.38a70.35,70.35,0,0,0-1.91,7.89c-4.35,23.54,4.07,43.19,20,46.73a8.52,8.52,0,0,0,1.27.21c8.9,1.24,17.58-5.57,24.41-14.56a83,83,0,0,0,8.65-14.33c6.33-13.25,9.94-29.27,8-45.51a70.19,70.19,0,0,0-2.35-11.73c.76-.34,1.54-.64,2.35-1,.34-.14.71-.28,1.08-.39,16.77-6.33,37.85-8.21,62-5.25.83.09,1.68.21,2.58.32s1.52.23,2.23.32c2.67.39,5.27.83,7.82,1.33s5.34,1.13,7.91,1.79c2.23.58,4.37,1.17,6.51,1.84,1.31.39,2.62.83,3.91,1.27,1.1.39,2.19.76,3.29,1.17.92.35,1.84.71,2.76,1.08s1.82.74,2.69,1.13l2.67,1.17,2.6,1.24a96.14,96.14,0,0,1,19.88,13v0c.78.67,1.56,1.33,2.3,2,0,0,0,0,.07,0,.78.71,1.56,1.45,2.28,2.19,1.61,1.54,3.11,3.15,4.53,4.81.6.69,1.2,1.4,1.77,2.12.76.94,1.5,1.86,2.19,2.83s1.22,1.68,1.79,2.53,1.2,1.77,1.75,2.69,1.08,1.77,1.59,2.65a.12.12,0,0,0,0,.09c.53.92,1.06,1.86,1.52,2.81s1,1.91,1.45,2.9c0,0,0,0,0,.09.46.94.87,1.91,1.27,2.88s.85,2,1.22,3,.74,2,1.08,3.11c9.3,28.14,2.83,60.77-15.76,79.36a11.67,11.67,0,1,0,16.52,16.5c25-25,33.57-66.45,21.42-103.19-.51-1.47-1-2.92-1.56-4.35q-.55-1.48-1.17-3a7,7,0,0,0-.3-.74c-.44-1-.87-2.07-1.38-3.08,0-.12-.09-.21-.14-.35-.55-1.17-1.13-2.35-1.73-3.5-.71-1.38-1.45-2.76-2.23-4.1-.51-.92-1.06-1.82-1.61-2.72-.09-.14-.16-.3-.25-.41-.55-.9-1.13-1.79-1.73-2.67-.18-.3-.39-.62-.6-.9-.6-.9-1.22-1.79-1.86-2.67-.07-.07-.09-.14-.16-.21-.76-1.06-1.56-2.12-2.39-3.15s-1.68-2.07-2.55-3.08c-.71-.85-1.45-1.7-2.23-2.53-.32-.39-.69-.76-1.06-1.13-.51-.58-1-1.13-1.61-1.7-.25-.28-.53-.55-.81-.83-.78-.78-1.56-1.54-2.37-2.25-1.24-1.2-2.51-2.35-3.82-3.45-.64-.55-1.31-1.1-2-1.66-.46-.39-.94-.78-1.43-1.15-.9-.71-1.82-1.4-2.76-2.12.44-1,.87-2,1.33-3.06,1-2.35,2-4.67,3-7,.16-.32.3-.67.46-1q6.21-14.32,12.38-27.7,7-15.32,13.94-29.41c2.51-5.13,5-10.1,7.52-15,.62-1.22,1.24-2.42,1.86-3.61,1.24-2.42,2.46-4.79,3.7-7.13.6-1.15,1.24-2.3,1.86-3.45q6.45-12.11,12.82-23.05c.6-1,1.2-2.07,1.82-3.11s1.2-2,1.79-3.06c.51-.8,1-1.63,1.45-2.42,1.31-2.19,2.62-4.33,4-6.44,1.17-1.91,2.37-3.8,3.54-5.68,1.77-2.78,3.54-5.5,5.32-8.12.6-.87,1.17-1.75,1.77-2.62,1.15-1.73,2.32-3.41,3.5-5.06.58-.85,1.17-1.66,1.75-2.49,1.7-2.44,3.45-4.81,5.18-7.11q3.35-4.49,6.56-8.44c1.43-1.75,2.81-3.41,4.19-5,2.76-3.22,5.41-6.12,7.94-8.74l1.89-1.91c6.86-6.86,12.91-11.6,18.06-14.63.94-.53,1.84-1,2.69-1.47h0a32.86,32.86,0,0,1,4.92-2,17.35,17.35,0,0,1,5-.85,12.47,12.47,0,0,1,1.66.12c4.79.76,6.1,2.81,6.81,4.88a17.82,17.82,0,0,1,.76,6.26c-.53,15.69-15.42,45.47-50.23,82.12a212.89,212.89,0,0,1-42.57,34.9c-2.81,1.75-5.61,3.38-8.4,4.9q-8,15.63-16.11,33a192.81,192.81,0,0,0,30.81-14.47h0a238.52,238.52,0,0,0,53.17-42.27C845.95,187.11,865.85,146.3,857.2,120.85ZM624.74,95.49C643.45,74.55,655,66.85,660.18,64.66c-.09,5.66-5.34,22.18-49.33,57.84-6.21,5-12.56,9.92-18.73,14.5A454.36,454.36,0,0,1,624.74,95.49ZM415.16,121.4c21.49-28.81,41.51-45.14,59.71-48.48a36,36,0,0,1,6.93-.67,35,35,0,0,1,10.56,1.61c5.2,1.63,5.43,6.81,4.69,10.88-.09.39-.16.78-.25,1.17a6.2,6.2,0,0,1-.16.62,7,7,0,0,1-.28.92c-.09.35-.21.67-.32,1a39.32,39.32,0,0,1-8.86,13.81c-1.36,1.45-2.85,2.92-4.51,4.37-.46.37-.9.76-1.38,1.13s-.92.76-1.4,1.15c-14.56,11.41-38.65,21.63-73.88,25.38C409.08,129.75,412.12,125.45,415.16,121.4ZM526,362.65a60.93,60.93,0,0,1-2,10.15,67.53,67.53,0,0,1-2.32,6.81c-3.34,8.17-7.75,14.52-11,17.76l-.21-.48c-.09-.23-.16-.44-.25-.67s-.14-.46-.23-.74a14.44,14.44,0,0,1-.41-1.66,5.71,5.71,0,0,1-.18-.94,35.49,35.49,0,0,1-.07-11.14,50.71,50.71,0,0,1,2.9-11.11c.34-.92.74-1.84,1.15-2.76a2.41,2.41,0,0,1,.18-.46,54.46,54.46,0,0,1,4.35-8,56.52,56.52,0,0,1,8-9.69A53.71,53.71,0,0,1,526,362.65Z"/><path class="cls-3" d="M1735.05,257.68a135.83,135.83,0,0,0-16.2-12.38,5.86,5.86,0,0,0-.62-.41,80.11,80.11,0,0,0-29.77-11.76c-1.91-.34-3.87-.62-5.8-.83a85.9,85.9,0,0,0-26.9,1.45,95.76,95.76,0,0,0-51.86,30.51c-15.58,18.11-21.38,39.48-17.46,60.19-2.62-.92-5.41-1.84-8.33-2.69-.69-.23-1.4-.41-2.12-.62l-2.78-.76-3-.76-3-.69c-.78-.18-1.59-.34-2.42-.53-1.38-.3-2.76-.58-4.19-.83-1-.21-2.09-.37-3.13-.58-1.33-.23-2.67-.44-4-.64-2.12-.3-4.28-.62-6.49-.9h-.18q-3.52-.41-7.25-.76c-1.45-.14-2.9-.25-4.39-.37.64-3.87,1.45-7.71,2.35-11.53,7.22-30.74,21.88-59.75,33.13-82,13-25.7,20.16-39.85,12.84-50.39-2.07-3-7-7.82-17.16-6.67s-21.4,6.17-33.69,15.07a17.2,17.2,0,0,0-1.31-3.7c-2.67-5.38-8.1-8.44-14.56-8.4-15.9.34-33.78,17.35-64,47.4-11.25,11.23-22.8,22.66-33.62,32.05,9-17.37,23.08-41,36.35-61.41a11.69,11.69,0,0,0-19.3-13.16c-.12.14-5.78,8-14.59,19.19a24.65,24.65,0,0,0-12.72-11.85c-11-4.83-26.39.41-45.88,15.58a196.42,196.42,0,0,0-35,35.41l-2.16,2.51-.07,0c-3.52,4-7.69,8.58-12.17,13.09-8.12,8.17-14.52,13.48-19.37,16.82v0c-5.66,3.89-9.18,5.18-10.79,5.32-.48-.83-1.47-3.15-2-8.42-1-10.72,3.73-27.38,11.9-46.59,11.3-8.81,40.49-32.1,68.34-58.46,52.87-50,70.59-81.47,57.43-102-5.68-8.86-15.67-11.9-26.74-8.12-24.9,8.54-60.44,53.91-85.41,93.51-6.6,10.45-21.12,34.47-32.67,60.28a11.74,11.74,0,0,0-3.2,3.91,248.24,248.24,0,0,1-26.14,41.32l0,0c-17.26,21.79-33.2,32.4-40.77,31.27-3.7-.55-5.34-7.82-5.87-10.91-1-5.59.85-17.3,7.29-35.2,8.35-7.87,36.93-35,64.82-64.89,61.89-66.33,68.15-89.3,66.7-101.91a20.3,20.3,0,0,0-10.26-15.74c-9.27-5.27-20.48-3.43-33.23,5.52-26.11,18.34-58.05,65.46-79.22,103.45-7.43,13.35-20.18,37.41-29.2,61.23a11.59,11.59,0,0,0-.6,1.2,258,258,0,0,1-25.15,42.93l0,0c-8.42,11.41-17.21,20.39-24.5,22.62a6.52,6.52,0,0,1-5.91-.6c-.6-.39-2.21-1.38-2.83-5.73a38.39,38.39,0,0,1,.76-12.29,186.4,186.4,0,0,0,14-24.9c3.11-6.74,5.34-12.1,6.65-16,3.93-11.69-.53-16.84-5-19.12-11.44-5.87-18.89,7.32-22.89,14.4a161.59,161.59,0,0,0-13.9,33.36s0,0,0,.09c-.25.87-.48,1.77-.71,2.67A124.73,124.73,0,0,1,1089.24,273c-10.12,9.55-19.07,14-23.26,12.82-1.73-.46-6.17-6.56-3.89-27.5a122.35,122.35,0,0,1,4.26-20c.32-.71.67-1.38,1-2.07v0a189.55,189.55,0,0,1,7.13-21.21c2.74-6.7,4.72-10.26,5.29-12.84.71-3.36-12.65-.41-24.34-2.95-1.86,4.51-3.59,9-5.22,13.37-2.25,6.19-4.28,12.22-6,18a311.1,311.1,0,0,1-21.4,37.25c-10.61,15.55-21.7,27.31-31,29.2,1.73-8.79,11.07-27.43,16.43-38.1,14.82-29.63,23.52-48.43,15.69-61.13-2-3.27-6.93-8.77-17.19-8.77-3.91,0-12.29,0-25.33,10.05a14.23,14.23,0,0,0-16-9.87c-12.91,2-27,18.91-52.83,51.17-7.69,9.57-15.85,19.81-23.61,28.71,4.3-10.26,9.41-21.47,13.9-30.83,6.26-10.52,10.47-18.68,11.64-21.77,3.89-10.15-4-14.91-4.95-15.42a11.75,11.75,0,0,0-15.16,3.31,29.53,29.53,0,0,0-1.73,2.74c-3-2.9-7.5-5.52-14.31-6.3-29-3.41-78.34,45.42-87.36,78.62-4.79,17.58,1.13,31.91,15.76,38.38,5.25,2.3,13.85,4,25.15-.64,8-3.34,16.2-9.48,24.23-17.14a14,14,0,0,0,4.23,9.39c2.07,2.09,9.71,8.19,21.65-.71,14.22-10.56,31.8-32.49,48.78-53.73,4.76-6,10.45-13,16.06-19.74-2.71,5.52-6,12-9.87,19.51-9,15-17.81,31.61-21.19,39.51a20.39,20.39,0,0,0-1.4,4,11.67,11.67,0,0,0,8,13c3.54,1.15,10.56,1,14.38-6.6.69-1.38,2.6-4.88,5-9.32,6.07-11.09,11.32-20.87,15.85-29.52,2.23-3.7,4.58-7.48,7-11.23,19.81-30.3,32.28-38.86,38.26-41.25-2.3,8.72-10.38,24.83-15.58,35.2-15.28,30.51-24.23,49.86-16.08,63.07,2,3.38,7.16,9.07,17.9,9.11h.14c13.62,0,27.24-8,41.23-24.32,3-3.5,6-7.39,9.09-11.67,3.45,15.37,12.06,21.49,20,23.7,11.83,3.29,25.19-1.77,38.06-11.83,2.67-2.07,5.32-4.37,7.94-6.86a27.93,27.93,0,0,0,11,12.38,29.89,29.89,0,0,0,25,3.08c9.41-2.85,18.57-10.19,26.9-19.3,3-3.27,5.84-6.76,8.58-10.38,5.41,16.75,16.66,21.1,23.47,22.11,12,1.82,28.37-4.74,46-21.28a159.33,159.33,0,0,0,11.8-12.42c2.3,18,11,24.25,18,26.3,6.67,2,14.13.81,22.71-3.57a89.88,89.88,0,0,0,15.3-10.24c2.6,5.57,7.36,9.69,13.9,11.9,15,5.13,33.94-2.74,58.37-24.6-1.84,8.47-.09,13,3.61,16.68,5.8,5.82,13.9,5.45,24-1.13,17.26-11.18,36.35-30.16,54.83-48.53,9.23-9.16,22.27-22.13,32.76-30.92-4.67,8.05-11,17.76-17.62,27.31-5.38,6.67-10,12.68-13.32,17.26-11.11,15.12-11.3,16.29-11.69,18.89a11.65,11.65,0,0,0,6.86,12.45,11.86,11.86,0,0,0,13.9-3.47c1.77-2.23,12.52-16.15,23.56-32.05,16.5-20.06,38.47-42.91,56.26-50.62-2.67,6.1-6.65,13.92-10.1,20.78-11.85,23.49-28.39,56.19-36,91.69-.85,3.87-1.56,7.78-2.16,11.69h-.39l-5.06.09c-1.84.07-3.73.12-5.64.21-.92,0-1.89.09-2.85.14-2.78.14-5.64.32-8.54.53-2.14.16-4.3.34-6.49.53-4.1.39-8.28.83-12.61,1.33s-8.77,1.15-13.35,1.84l-3.47.53q-4.28.66-8.7,1.45l-2.81.51c-1.47.25-2.95.55-4.46.85-1,.16-2,.37-3,.55-2.09.41-4.23.83-6.42,1.31-1.24.25-2.51.53-3.8.78q-6.49,1.38-13.23,3c-1.36.3-2.71.64-4.1,1-.76.18-1.54.39-2.37.58l-4.07,1c-.64.18-1.31.34-2,.51-1.33.34-2.69.71-4.05,1.08-2.14.55-4.28,1.13-6.44,1.73-1.43.39-2.85.78-4.28,1.2s-2.85.78-4.3,1.22-2.92.83-4.37,1.27-2.92.85-4.39,1.31-3,.87-4.46,1.33c-4.62,1.43-9.36,2.9-14.17,4.46-2.39.78-4.81,1.59-7.27,2.42-.51.16-1,.32-1.56.51-1.56.53-3.15,1.08-4.74,1.63s-3.2,1.08-4.81,1.63q-14.46,5-29.84,10.93c-3.43,1.31-6.86,2.65-10.35,4-3.29,1.31-6.63,2.62-10,4-.55.23-1.13.44-1.68.67-1.4.6-2.83,1.17-4.26,1.75l-5.43,2.25c-1.13.46-2.3.94-3.47,1.45h0l-1.93.83q-8.25,3.45-16.73,7.18-9.32,4.07-18.5,7.85-29.72,12.32-58,21.86-7.25,2.42-14.38,4.67-10.25,3.24-20.29,6.07c-6.56,1.89-13,3.61-19.44,5.22-3.87,1-7.69,1.91-11.48,2.78q-6,1.41-11.87,2.65c-3.54.76-7.09,1.45-10.61,2.12-4.07.8-8.15,1.52-12.17,2.21-3.22.53-6.44,1-9.64,1.52q-10,1.48-19.67,2.51a397.15,397.15,0,0,1-41.67,2.28c-4,0-8-.09-11.94-.21-2.53-.09-5.06-.21-7.55-.37-5.11-.28-10.12-.71-15-1.27-2.48-.28-4.9-.55-7.32-.9-3.64-.48-7.2-1.06-10.74-1.68-2.37-.44-4.67-.87-7-1.36-38.06-8-88.68-30.6-106-68.24a9.63,9.63,0,0,0-.85-1.52,8.6,8.6,0,0,0-1-1.33,4.8,4.8,0,0,0-.58-.62,11.79,11.79,0,0,0-4.12-2.6,13.63,13.63,0,0,0-1.59-.46c-.28-.07-.55-.09-.81-.14a9.74,9.74,0,0,0-1.63-.12c-.41,0-.83,0-1.24,0a12.4,12.4,0,0,0-3.66,1,11.68,11.68,0,0,0-5.71,15.51c13.71,29.8,53.06,66.82,122.41,81.31a319.25,319.25,0,0,0,65.53,6.44q10.28,0,20.87-.55,7.08-.38,14.29-1c2.39-.23,4.81-.46,7.25-.71q7.32-.76,14.73-1.75,11.18-1.48,22.64-3.57,7.66-1.35,15.46-3,11.67-2.42,23.7-5.43,55.77-13.91,118.33-39.9,9.28-3.83,18.68-8c6-2.62,12.17-5.27,18.5-7.91q10.35-4.31,21.21-8.65c3.89-1.56,7.71-3.06,11.5-4.51A874.84,874.84,0,0,1,1400,354.09l4.19-1.1c1.4-.37,2.81-.71,4.21-1.06s2.81-.71,4.19-1.06c1.68-.41,3.36-.8,5-1.2,1.27-.3,2.51-.6,3.75-.87,2.46-.58,4.9-1.13,7.34-1.63,29.57-6.44,58.79-10.38,86.05-10.38,6.19,0,12.29.21,18.25.64v0c1.59.12,3.15.23,4.67.39a176.33,176.33,0,0,1,32.24,5.75c.87.25,1.73.48,2.55.76,3.13.94,6,2,8.61,3,1.24.48,2.44,1,3.57,1.45a90.1,90.1,0,0,1,9.69,4.83c1.06.6,2,1.17,2.92,1.77,0,0,0,0,0,0,1.31.83,2.46,1.66,3.45,2.39a0,0,0,0,0,0,0,30.26,30.26,0,0,1,2.44,1.93c.67.55,1.15,1,1.47,1.33a1.81,1.81,0,0,1,.3.3c.07.07.16.12.18.21h0a4.09,4.09,0,0,1,.3.34,11.68,11.68,0,0,0,17.81-15.12c-.12-.14-.32-.39-.67-.76-18.36-21.08-18.75-45.88-1-66.52.39-.44.78-.9,1.2-1.31s.78-.87,1.2-1.31.85-.87,1.27-1.29a67.74,67.74,0,0,1,35.64-19c.25,0,.51-.11.76-.14,14.24-2.53,28.46-.32,39.76,5.59.8.44,1.61.87,2.42,1.36.58.32,1.13.67,1.7,1a114.13,114.13,0,0,1,15.26,11.78c19.47,18,28,40.29,25,65.41-5,40.7-39.74,81-82.67,95.81-21,7.25-61.62,13.87-98.5-22.89-16.2-16.15-25.17-33.85-29.11-52.07a105.6,105.6,0,0,1-2-13.35c-6-.48-12.29-.71-18.73-.71-1.63,0-3.27,0-4.9,0a131.27,131.27,0,0,0,1.66,14c4.12,23.77,15.09,47.21,36.58,68.66,33.52,33.41,78.21,43.76,122.64,28.42,50.92-17.58,92.24-66,98.22-115C1773,311.18,1761.1,281,1735.05,257.68ZM1371.47,89.83c15-16.43,24.23-22.13,28.21-23.58.21,4.83-3.47,23.08-54,70.89-8.26,7.8-16.7,15.42-24.76,22.43C1336.56,133.53,1354.76,108.15,1371.47,89.83Zm-80.85-4.42c12.33-13.35,19.6-17.39,22.92-18.61-1.59,6.63-10.63,27.45-59.75,80.16-6.74,7.22-13.53,14.29-20,21C1251.8,135.25,1272.9,104.51,1290.61,85.41ZM860.1,252.5A11.76,11.76,0,0,0,858,262.81c-11.73,15-24.5,28.42-35,32.79-2.94,1.22-5.22,1.52-6.74.83-2.12-.92-5-2.19-2.65-10.88C820.82,258.9,860.88,224,874.85,224c.28,0,.58,0,.83,0h0C875.22,228.28,870.84,239,860.1,252.5Zm526.69-31A11.63,11.63,0,0,0,1384,233.8c-28.09,28.51-43.37,33.94-48.18,32.3a.83.83,0,0,1-.25-.09c-.11-2.76,2.51-10.58,11.32-22.34,4.19-4.9,7.09-8.54,8.05-9.78,19.56-22,39.3-33.41,44.84-33.41h0a4.14,4.14,0,0,1,.51.3C1400.34,204.53,1393.88,214.49,1386.79,221.49Z"/><path class="cls-3" d="M1207.32,25.27c-5.41-7.75-14-10.79-23.51-8.33-29.29,7.48-70.31,72.09-86.6,99.51-5,8.47-10.17,17.53-15.19,26.94-3.8,7-7.5,14.24-11.09,21.51-13.37-1.17-29-6.81-52.25-15.19-6-2.14-12.36-4.44-19.19-6.83-64.17-22.46-107.8,12-109.61,13.46a11.68,11.68,0,0,0,14.63,18.2c1.43-1.13,35.76-27.63,87.25-9.62,6.79,2.37,13.09,4.65,19,6.76,19.53,7,35.39,12.72,49.86,15.32,12.36,2.81,40.27,6.49,80.07-35v0q4.35-4.73,8.65-9.57C1218.69,64.32,1216.78,38.78,1207.32,25.27Zm-75.38,101.56c-9.09,10.22-18.38,20.2-27.22,29.41-1.5.9-3,1.75-4.44,2.51,2.25-4.26,4.58-8.56,7-12.86v0c3.89-7.09,8-14.17,12.26-21.26,35.71-59.27,60.47-81.73,68.93-84.76C1189,44.62,1186.71,65.17,1131.95,126.83Z"/><path class="cls-4" d="M140.36,264.45A155.87,155.87,0,0,0,121,273.81a76.28,76.28,0,0,1-4.85-23.91,159.6,159.6,0,0,1,23-9.82,91.39,91.39,0,0,0-.09,13A99.17,99.17,0,0,0,140.36,264.45Z"/><path class="cls-4" d="M383.66,170.75c-2.92,5.22-5.89,10.63-8.86,16.27a131.9,131.9,0,0,1-26.14-.32q4.31-8.42,8.58-16.31c6.35.3,12.65.46,18.75.46C378.57,170.85,381.13,170.82,383.66,170.75Z"/><path class="cls-4" d="M330.16,282.16q-6.07,13.63-12.08,26.69c-8.61.3-20.8,3.27-32.7,14.89q5-10.49,10.1-21.56C309.71,291.76,320.5,286.14,330.16,282.16Z"/><path class="cls-4" d="M426.09,246.43c-4.19,2.09-8.84,4.23-14,6.42-2.83-9.85-.18-19.81,2.83-26.85a100.75,100.75,0,0,0,20.71-13.16C429.35,222.32,424.73,236.93,426.09,246.43Z"/><path class="cls-4" d="M543.73,170.36c-10.63,18.31-24.27,48.39-24.8,69q-4.45,4.73-8.74,8.84c-3.54-11-2.58-23.19-.3-33.62l0,0A448.06,448.06,0,0,0,542,172.43,11.33,11.33,0,0,1,543.73,170.36Z"/><path class="cls-4" d="M607.42,248.71c-2.65,2.67-5.38,5.29-8.14,7.78-6.83-6.47-8.93-15.71-9.25-23.58,6.12-6.14,12.13-12.91,17.56-19.58C603.74,224.48,603.85,235.5,607.42,248.71Z"/><path class="cls-4" d="M749.36,275.08a192.81,192.81,0,0,1-30.81,14.47q8.15-17.39,16.11-33c2.78-1.52,5.59-3.15,8.4-4.9C743.05,251.63,735.37,278,749.36,275.08Z"/><path class="cls-4" d="M672.07,366.47c-.6,1.24-1.17,2.49-1.77,3.7-.76,1.61-1.54,3.22-2.32,4.81-1.52,3-3.06,6-4.65,9a43.79,43.79,0,0,0-19.24-13.57c1.43-2.69,2.81-5.43,4.16-8.21,1.45-3,2.88-6,4.26-9.13A83,83,0,0,1,672.07,366.47Z"/><path class="cls-4" d="M525.9,349.74a56.52,56.52,0,0,0-8,9.69c-.92-6.76-3.66-16.8-11.55-22.83,1.24-1.38,2.55-2.71,3.91-4,.37-.37.74-.71,1.13-1.08.62-.58,1.27-1.15,1.91-1.73s1-.87,1.56-1.31a.3.3,0,0,1,.16-.12c.51-.46,1-.87,1.54-1.29C523.71,334.85,525.48,344.35,525.9,349.74Z"/><path class="cls-4" d="M1079.76,202.11c-.58,2.58-2.55,6.14-5.29,12.84a71,71,0,0,1-24.27-2.42c1.63-4.39,3.36-8.86,5.22-13.37C1067.11,201.7,1080.48,198.76,1079.76,202.11Z"/><path class="cls-4" d="M1039.68,284.62c-3.06,4.28-6.07,8.17-9.09,11.67-6.76-7.48-7.94-19.76-7.75-28.48a311.1,311.1,0,0,0,21.4-37.25C1032,265.5,1037.91,276.09,1039.68,284.62Z"/><path class="cls-4" d="M1105.69,289.64c-2.62,2.49-5.27,4.79-7.94,6.86-8.74-5.68-9.85-15-8.51-23.49A124.73,124.73,0,0,0,1105,254.69C1100.42,269.28,1101.64,281.79,1105.69,289.64Z"/><path class="cls-4" d="M1105.76,252c-.16.76-.39,1.63-.71,2.67C1105.28,253.79,1105.51,252.9,1105.76,252Z"/><path class="cls-4" d="M1177.14,275.42c-2.74,3.61-5.61,7.11-8.58,10.38-8.47-6.81-9.85-17.19-9.18-25.66l0,0a258,258,0,0,0,25.15-42.93,11.59,11.59,0,0,1,.6-1.2C1175.59,238.65,1172.88,262.56,1177.14,275.42Z"/><path class="cls-4" d="M1258.4,263.82a159.33,159.33,0,0,1-11.8,12.42c-5.2-8.33-4.49-20.92-1.73-33.09l0,0A248.24,248.24,0,0,0,1271,201.82a11.74,11.74,0,0,1,3.2-3.91C1267.84,211.48,1255.85,250.8,1258.4,263.82Z"/><path class="cls-4" d="M1314.38,276.32a89.88,89.88,0,0,1-15.3,10.24c-5.27-7-5.54-17.16-4.95-24.18v0c4.86-3.34,11.25-8.65,19.37-16.82,4.49-4.51,8.65-9,12.17-13.09l.07,0C1307.39,253.54,1310.33,269.32,1314.38,276.32Z"/><path class="cls-4" d="M1535.5,362.51a59.86,59.86,0,0,0-24,0,131.27,131.27,0,0,1-1.66-14c1.63,0,3.27,0,4.9,0,6.44,0,12.75.23,18.73.71A105.6,105.6,0,0,0,1535.5,362.51Z"/><text class="cls-5" transform="matrix(0.77, 0.64, -0.64, 0.77, 681.92, 519.64)">D</text><text class="cls-5" transform="translate(712.21 544.47) rotate(35.81)">E</text><text class="cls-5" transform="translate(740.4 564.41) rotate(31.92)">S</text><text class="cls-5" transform="matrix(0.88, 0.47, -0.47, 0.88, 769.91, 582.45)">A</text><text class="cls-5" transform="translate(802.71 599.41) rotate(23.69)">R</text><text class="cls-5" transform="translate(836.67 613.93) rotate(19.49)">R</text><text class="cls-5" transform="matrix(0.97, 0.26, -0.26, 0.97, 871.66, 626)">O</text><text class="cls-5" transform="matrix(0.98, 0.19, -0.19, 0.98, 911.88, 636.25)">L</text><text class="cls-5" transform="matrix(0.99, 0.12, -0.12, 0.99, 943.54, 641.98)">L</text><text class="cls-5" transform="translate(975.62 645.74) rotate(3.21)">A</text><text class="cls-5" transform="translate(1012.53 647.5) rotate(-1.06)">D</text><text class="cls-5" transform="translate(1051.8 646.44) rotate(-5.56)">O</text><text class="cls-5" transform="matrix(0.98, -0.17, 0.17, 0.98, 1093.11, 641.96)">R</text><text class="cls-5" transform="translate(1129.1 635.14) rotate(-13.22)"> </text><text class="cls-5" transform="translate(1149.11 630.34) rotate(-16.22)">F</text><text class="cls-5" transform="matrix(0.94, -0.34, 0.34, 0.94, 1180.03, 621.1)">R</text><text class="cls-5" transform="matrix(0.91, -0.42, 0.42, 0.91, 1214.69, 608.07)">O</text><text class="cls-5" transform="translate(1252.32 590.33) rotate(-29.24)">N</text><text class="cls-5" transform="translate(1286.26 570.8) rotate(-33.3)">T</text><text class="cls-5" transform="matrix(0.8, -0.6, 0.6, 0.8, 1313.04, 552.89)">E</text><text class="cls-5" transform="translate(1340.51 531.81) rotate(-41.23)">N</text><text class="cls-5" transform="translate(1369.79 505.65) rotate(-45.65)">D</text></g></g></g></svg>