<?xml version="1.0" encoding="utf-8"?>
<!-- Generator: Adobe Illustrator 24.0.1, SVG Export Plug-In . SVG Version: 6.00 Build 0)  -->
<svg version="1.1" id="Capa_1" xmlns="http://www.w3.org/2000/svg" xmlns:xlink="http://www.w3.org/1999/xlink" x="0px" y="0px"
	 viewBox="0 0 24 24" style="enable-background:new 0 0 24 24;" xml:space="preserve">
<style type="text/css">
	.st0{fill:#282B39;fill-opacity:0;}
	.st1{fill:#282B39;}
</style>
<g>
	<g>
		<rect class="st0" width="24" height="24"/>
		<path class="st1" d="M12,11c2.2,0,4-1.8,4-4s-1.8-4-4-4S8,4.8,8,7S9.8,11,12,11z M12,5c1.1,0,2,0.9,2,2s-0.9,2-2,2s-2-0.9-2-2
			S10.9,5,12,5z"/>
		<path class="st1" d="M12,13c-3.9,0-7,3.1-7,7c0,0.6,0.4,1,1,1s1-0.4,1-1c0-2.8,2.2-5,5-5s5,2.2,5,5c0,0.6,0.4,1,1,1s1-0.4,1-1
			C19,16.1,15.9,13,12,13z"/>
	</g>
</g>
</svg>
