<?xml version="1.0" encoding="utf-8"?>
<!-- Generator: Adobe Illustrator 24.0.1, SVG Export Plug-In . SVG Version: 6.00 Build 0)  -->
<svg version="1.1" id="Capa_1" xmlns="http://www.w3.org/2000/svg" xmlns:xlink="http://www.w3.org/1999/xlink" x="0px" y="0px"
	 viewBox="0 0 24 24" style="enable-background:new 0 0 24 24;" xml:space="preserve">
<style type="text/css">
	.st0{fill:#282B39;fill-opacity:0;}
	.st1{fill:#282B39;}
</style>
<g>
	<g>
		<rect class="st0" width="24" height="24"/>
		<path class="st1" d="M18,3H6C4.3,3,3,4.3,3,6v12c0,1.7,1.3,3,3,3h12c1.7,0,3-1.3,3-3V6C21,4.3,19.7,3,18,3z M6,5h12
			c0.6,0,1,0.4,1,1v8.4l-3.2-2.7c-1-0.8-2.5-0.8-3.5,0L5,17.7V6C5,5.4,5.4,5,6,5z M18,19H6.6l7-5.8c0.3-0.2,0.7-0.2,0.9,0L19,17v1
			C19,18.6,18.6,19,18,19z"/>
		<circle class="st1" cx="8" cy="8.5" r="1.5"/>
	</g>
</g>
</svg>
