<?xml version="1.0" encoding="utf-8"?>
<!-- Generator: Adobe Illustrator 24.0.1, SVG Export Plug-In . SVG Version: 6.00 Build 0)  -->
<svg version="1.1" id="Capa_1" xmlns="http://www.w3.org/2000/svg" xmlns:xlink="http://www.w3.org/1999/xlink" x="0px" y="0px"
	 viewBox="0 0 24 24" style="enable-background:new 0 0 24 24;" xml:space="preserve">
<style type="text/css">
	.st0{fill:#282B39;fill-opacity:0;}
	.st1{fill:#282B39;}
</style>
<g>
	<g>
		<rect class="st0" width="24" height="24"/>
		<path class="st1" d="M19,4H5C3.3,4,2,5.3,2,7v10c0,1.7,1.3,3,3,3h14c1.7,0,3-1.3,3-3V7C22,5.3,20.7,4,19,4z M18.3,6L12,10.8L5.7,6
			H18.3z M19,18H5c-0.6,0-1-0.4-1-1V7.2l7.4,5.6c0.2,0.1,0.4,0.2,0.6,0.2s0.4-0.1,0.6-0.2L20,7.2V17C20,17.6,19.6,18,19,18z"/>
	</g>
</g>
</svg>
