<?xml version="1.0" encoding="utf-8"?>
<!-- Generator: Adobe Illustrator 24.0.1, SVG Export Plug-In . SVG Version: 6.00 Build 0)  -->
<svg version="1.1" id="Capa_1" xmlns="http://www.w3.org/2000/svg" xmlns:xlink="http://www.w3.org/1999/xlink" x="0px" y="0px"
	 viewBox="0 0 24 24" style="enable-background:new 0 0 24 24;" xml:space="preserve">
<style type="text/css">
	.st0{fill:#282B39;fill-opacity:0;}
	.st1{fill:#282B39;}
</style>
<g>
	<g>
		<rect class="st0" width="24" height="24"/>
		<path class="st1" d="M20.4,10.2l-7.7-7.9c-0.4-0.4-1-0.4-1.4,0c0,0,0,0,0,0l-7.7,7.9C3.2,10.6,3,11.1,3,11.6V20
			c0,1.1,0.8,1.9,1.9,2h14.2c1.1-0.1,1.9-0.9,1.9-2v-8.4C21,11.1,20.8,10.6,20.4,10.2z M10,20v-6h4v6H10z M19,20h-3v-7
			c0-0.6-0.4-1-1-1H9c-0.6,0-1,0.4-1,1v7H5v-8.4l7-7.2l7,7.2V20z"/>
	</g>
</g>
</svg>
