<?xml version="1.0" encoding="utf-8"?>
<!-- Generator: Adobe Illustrator 24.0.1, SVG Export Plug-In . SVG Version: 6.00 Build 0)  -->
<svg version="1.1" id="Capa_1" xmlns="http://www.w3.org/2000/svg" xmlns:xlink="http://www.w3.org/1999/xlink" x="0px" y="0px"
	 viewBox="0 0 24 24" style="enable-background:new 0 0 24 24;" xml:space="preserve">
<style type="text/css">
	.st0{fill:#282B39;fill-opacity:0;}
	.st1{fill:#282B39;}
</style>
<g>
	<g>
		<rect class="st0" width="24" height="24"/>
		<path class="st1" d="M4,11H20c0.5,0,1,0.4,1,0.9v0.1c0,0.5-0.4,0.9-1,0.9H4c-0.5,0-1-0.4-1-0.9v-0.1C3,11.4,3.4,11,4,11z"/>
		<path class="st1" d="M4,16H20c0.5,0,1,0.4,1,1V17c0,0.5-0.4,1-1,1H4c-0.5,0-1-0.4-1-1V17C3,16.4,3.4,16,4,16z"/>
		<path class="st1" d="M4,6H20c0.5,0,1,0.4,1,0.9v0.1C21,7.6,20.6,8,20,8H4C3.4,8,3,7.6,3,7.1V6.9C3,6.4,3.4,6,4,6z"/>
	</g>
</g>
</svg>
