<svg version="1.1" id="Capa_1" xmlns="http://www.w3.org/2000/svg" x="0" y="0" viewBox="0 0 24 24" xml:space="preserve"><style>.st1{fill:#282b39}</style><path fill="#282b39" fill-opacity="0" d="M0 0h24v24H0z"/><path class="st1" d="M8.6 22c-.5 0-1-.2-1.3-.5L5.2 20c-1-.8-1.2-2.2-.5-3.2.4-.5.5-1.2.2-1.9l-.1-.2c-.2-.6-.6-1-1.1-1.2h-.1c-1.2-.4-1.9-1.7-1.5-2.9L2.9 8c.2-.6.6-1.1 1.1-1.4a2 2 0 011.7-.1c.6.2 1.3.1 1.8-.3l.1-.1c.5-.4.7-.9.7-1.5v-.3C8.3 3 9.3 2 10.6 2h2.6c.6 0 1.2.2 1.6.7.4.4.7 1.1.7 1.7v.3c0 .6.2 1.1.7 1.4l.1.1c.5.3 1 .4 1.6.3l.3-.1c1.2-.4 2.5.2 2.9 1.4v.1l.8 2.5c.4 1.2-.3 2.5-1.5 2.9l-.2.1c-.6.2-1.1.7-1.2 1.3-.2.6-.1 1.2.2 1.6l.3.4c.7 1 .5 2.5-.5 3.2l-2 1.6c-1 .8-2.4.6-3.1-.4l-.1-.1-.1-.2c-.3-.5-.9-.8-1.5-.8s-1.1.3-1.4.8l-.3.2c-.3.5-.9.9-1.5 1h-.4zM4.4 11.6c1.1.4 2 1.3 2.4 2.5v.1c.4 1.2.3 2.6-.5 3.6-.1.1-.1.4 0 .5L8.5 20c.1.1.3.1.4 0l.2-.3c1.2-1.7 3.5-2.1 5.2-1 .4.3.7.6 1 1l.1.2c0 .1.1.1.2.1h.2l2.1-1.6c.1-.1.2-.3.1-.5l-.3-.4c-.7-1-.9-2.3-.5-3.4.4-1.2 1.3-2.2 2.5-2.6l.2-.1c.2-.1.3-.3.2-.4l-.8-2.5c0-.1-.1-.2-.2-.2h-.2l-.3.1c-1.3.3-2.6.1-3.6-.7v-.1c-.9-.7-1.5-1.8-1.5-3v-.3c0-.1 0-.2-.1-.3h-2.7c-.2 0-.3.2-.3.3v.2c0 1.2-.6 2.4-1.5 3.1l-.2.2c-1 .8-2.4 1-3.6.6H5c-.1 0-.1.1-.1.1L4 11.1c-.1.2 0 .4.2.4l.2.1z"/><path class="st1" d="M12 15.5c-1.9 0-3.5-1.6-3.5-3.5s1.6-3.5 3.5-3.5 3.5 1.6 3.5 3.5-1.6 3.5-3.5 3.5zm0-5c-.8 0-1.5.7-1.5 1.5s.7 1.5 1.5 1.5 1.5-.7 1.5-1.5-.7-1.5-1.5-1.5z"/></svg>