<?xml version="1.0" encoding="utf-8"?>
<!-- Generator: Adobe Illustrator 24.0.1, SVG Export Plug-In . SVG Version: 6.00 Build 0)  -->
<svg version="1.1" id="Capa_1" xmlns="http://www.w3.org/2000/svg" xmlns:xlink="http://www.w3.org/1999/xlink" x="0px" y="0px"
	 viewBox="0 0 24 24" style="enable-background:new 0 0 24 24;" xml:space="preserve">
<style type="text/css">
	.st0{fill:#282B39;fill-opacity:0;}
	.st1{fill:#282B39;}
</style>
<g>
	<g>
		<rect class="st0" width="24" height="24"/>
		<path class="st1" d="M12,2C6.5,2,2,6.5,2,12s4.5,10,10,10s10-4.5,10-10S17.5,2,12,2z M12,20c-4.4,0-8-3.6-8-8s3.6-8,8-8s8,3.6,8,8
			S16.4,20,12,20z"/>
		<path class="st1" d="M12.3,7.4c-0.5-0.5-1.2-0.6-1.9-0.3c-0.6,0.2-1,0.8-1,1.5v6.7c0,0.7,0.4,1.2,1,1.5c0.2,0.1,0.5,0.1,0.7,0.1
			c0.4,0,0.8-0.2,1.2-0.5l3.7-3.4c0.7-0.6,0.7-1.6,0.1-2.3c0,0-0.1-0.1-0.1-0.1L12.3,7.4z M11.5,14.6V9.4l2.8,2.6L11.5,14.6z"/>
	</g>
</g>
</svg>
