<?xml version="1.0" standalone="no"?>
<!DOCTYPE svg PUBLIC "-//W3C//DTD SVG 20010904//EN"
 "http://www.w3.org/TR/2001/REC-SVG-20010904/DTD/svg10.dtd">
<svg version="1.0" xmlns="http://www.w3.org/2000/svg"
 width="536.000000pt" height="536.000000pt" viewBox="0 0 536.000000 536.000000"
 preserveAspectRatio="xMidYMid meet">
<metadata>
Created by potrace 1.11, written by Peter Selinger 2001-2013
</metadata>
<g transform="translate(0.000000,536.000000) scale(0.100000,-0.100000)"
fill="#000000" stroke="none">
<path d="M3674 4229 c-3 -5 -10 -7 -15 -4 -5 4 -15 3 -21 -2 -7 -4 -19 -8 -27
-10 -8 -1 -17 -7 -21 -13 -4 -7 -11 -12 -16 -12 -21 -1 -42 -14 -99 -59 -58
-47 -190 -178 -150 -148 11 8 -4 -10 -32 -40 -29 -29 -53 -60 -53 -69 0 -8 -3
-12 -6 -9 -8 7 -44 -36 -44 -52 0 -6 -4 -11 -8 -11 -5 0 -19 -14 -31 -31 -13
-18 -17 -29 -10 -25 8 4 5 0 -6 -9 -11 -9 -19 -21 -17 -26 1 -5 -2 -9 -8 -9
-5 0 -10 -6 -10 -13 0 -7 -9 -20 -20 -30 -12 -10 -18 -23 -14 -29 4 -7 3 -8
-4 -4 -7 4 -12 1 -13 -6 0 -7 -7 1 -14 17 -7 17 -11 33 -8 38 2 4 0 7 -5 7 -5
0 -4 20 3 45 6 25 10 72 8 103 -2 31 -3 65 -4 75 0 9 -5 17 -11 17 -6 0 -8 3
-5 7 9 8 -29 70 -62 104 -30 30 -103 70 -135 73 -12 1 -26 5 -31 8 -22 13
-223 -4 -234 -20 -3 -4 -15 -9 -26 -10 -11 -2 -23 -8 -26 -14 -3 -5 -9 -9 -13
-9 -19 3 -27 0 -22 -7 3 -5 -1 -9 -9 -9 -20 0 -85 -46 -79 -55 3 -5 1 -7 -4
-6 -14 5 -72 -43 -72 -60 0 -9 -3 -12 -6 -9 -4 4 -21 -8 -38 -27 -81 -87 -115
-129 -111 -136 3 -4 -2 -11 -11 -14 -8 -3 -12 -10 -9 -16 3 -5 -1 -10 -10 -10
-9 0 -13 -4 -10 -10 3 -5 2 -10 -2 -10 -5 0 -16 -13 -25 -28 -15 -25 -22 -28
-60 -25 -103 10 -327 3 -423 -12 -46 -7 -109 -16 -122 -17 -7 -1 -13 -5 -13
-9 0 -4 -8 -6 -17 -5 -9 2 -38 -4 -63 -11 -25 -8 -53 -16 -64 -18 -10 -3 -30
-12 -43 -21 -14 -9 -23 -12 -19 -6 3 6 -12 2 -33 -9 -22 -10 -45 -19 -51 -19
-6 0 -8 -5 -4 -12 5 -8 2 -9 -9 -5 -10 3 -17 2 -17 -3 0 -6 -7 -10 -15 -10 -8
0 -15 -5 -15 -11 0 -5 -4 -7 -10 -4 -5 3 -10 1 -10 -4 0 -6 -5 -11 -11 -11
-26 0 -169 -124 -169 -148 0 -7 -3 -11 -8 -8 -8 5 -88 -114 -84 -126 1 -5 -3
-8 -9 -8 -6 0 -9 -6 -6 -14 3 -8 2 -16 -4 -18 -5 -2 -11 -13 -13 -25 -7 -34
-26 -64 -37 -58 -5 4 -9 2 -9 -3 0 -5 -6 -9 -12 -9 -7 0 -31 -8 -53 -18 -22
-10 -43 -17 -47 -17 -5 1 -8 -1 -8 -6 0 -4 -15 -13 -33 -21 -17 -8 -34 -17
-37 -21 -3 -4 -25 -19 -50 -33 -25 -14 -54 -35 -65 -45 -11 -10 -33 -27 -48
-36 -15 -10 -24 -23 -20 -29 3 -6 1 -7 -6 -3 -6 4 -14 0 -17 -8 -3 -9 -9 -14
-14 -11 -4 2 -13 -7 -20 -20 -7 -13 -17 -22 -22 -19 -4 3 -8 1 -8 -4 0 -4 -14
-23 -31 -40 -17 -18 -29 -32 -26 -32 4 0 -4 -11 -16 -24 -46 -50 -68 -86 -61
-97 4 -8 3 -9 -4 -5 -7 4 -12 2 -12 -3 0 -22 -2 -26 -15 -41 -7 -8 -15 -22
-17 -30 -2 -8 -9 -21 -16 -29 -7 -7 -11 -20 -8 -27 3 -8 2 -14 -3 -14 -8 0
-12 -12 -26 -62 -2 -5 -3 -9 -5 -10 -2 -4 -9 -36 -15 -68 -2 -14 -4 -25 -5
-25 -13 0 -19 -485 -7 -540 3 -16 9 -46 13 -65 3 -19 11 -41 16 -47 6 -7 7
-13 3 -13 -4 0 0 -11 9 -25 9 -13 16 -31 16 -40 0 -8 5 -15 11 -15 5 0 7 -5 4
-10 -3 -5 -1 -10 6 -10 7 0 9 -3 6 -6 -4 -4 1 -14 11 -23 9 -9 18 -23 20 -31
1 -8 14 -25 28 -37 14 -13 22 -23 18 -23 -6 0 26 -32 87 -86 34 -30 135 -84
143 -77 3 4 6 1 6 -5 0 -7 8 -12 18 -12 10 0 23 -5 29 -11 6 -6 22 -12 37 -15
14 -2 36 -6 49 -9 182 -36 371 -18 529 52 32 15 58 30 58 35 0 5 4 7 8 4 9 -6
79 39 100 63 11 13 12 13 6 1 -9 -19 17 4 133 120 51 51 90 96 87 101 -3 5 -2
8 3 7 4 -2 9 0 11 4 1 4 14 19 27 34 14 15 22 31 19 36 -3 4 0 7 8 6 7 -2 12
3 11 10 -2 6 2 12 8 12 5 0 8 4 5 9 -3 5 1 12 10 15 8 3 13 10 10 15 -3 5 1
12 10 15 9 4 14 9 11 12 -3 4 -1 11 4 18 37 42 124 196 111 196 -4 0 1 5 11
11 9 5 17 19 17 29 0 11 5 20 11 20 5 0 7 5 4 10 -3 5 -1 10 5 10 6 0 8 4 5
10 -3 5 -2 10 3 10 8 0 23 35 19 43 -1 2 6 11 16 21 9 10 15 22 12 27 -4 5 -1
9 4 9 6 0 12 -4 12 -10 3 -19 5 -25 23 -59 23 -43 29 -51 98 -123 32 -33 62
-57 67 -54 5 3 11 0 14 -8 6 -15 107 -70 107 -58 0 4 4 1 9 -6 4 -7 14 -14 22
-15 8 -2 20 -6 26 -10 7 -5 17 -5 23 -2 5 3 10 1 10 -6 0 -7 3 -9 6 -6 4 3 14
2 23 -2 31 -17 117 -25 256 -25 146 0 192 5 285 30 30 8 63 17 72 19 9 2 36
12 60 23 24 10 55 22 71 25 15 4 27 12 27 18 0 6 4 8 9 4 5 -3 16 1 24 9 8 8
17 12 21 9 3 -3 8 2 12 11 3 9 10 13 15 10 5 -3 9 -1 9 4 0 5 6 9 13 9 16 0
147 84 147 95 0 4 6 8 14 8 8 0 16 7 20 15 3 8 11 14 18 13 7 -2 12 3 10 10
-1 8 2 11 7 8 5 -4 17 4 25 16 9 12 16 18 16 13 1 -6 10 1 20 14 11 13 20 20
20 16 0 -5 13 5 29 22 15 16 36 33 45 36 10 4 14 12 11 17 -4 6 -2 9 3 8 5 -2
19 8 31 21 12 13 21 20 21 16 0 -4 8 1 18 11 9 11 30 30 46 42 26 20 31 21 46
7 9 -8 25 -16 36 -18 10 -2 34 -11 51 -20 18 -10 36 -17 40 -17 5 -1 26 -6 48
-12 22 -7 45 -13 50 -13 6 -1 28 -7 50 -13 65 -18 141 -25 290 -25 125 0 158
2 243 19 12 2 34 6 50 9 38 8 125 37 137 47 5 4 17 8 26 8 10 0 25 8 35 18 10
9 18 16 18 14 2 -9 56 19 56 28 0 6 4 9 9 6 8 -5 53 21 98 56 58 47 151 143
146 151 -3 6 -1 7 4 4 6 -4 17 1 24 10 12 14 12 16 -1 8 -8 -5 2 9 23 30 20
22 37 45 37 51 0 7 3 14 8 16 14 6 72 110 66 119 -3 5 2 12 11 15 9 4 14 12
11 20 -3 7 0 14 5 16 6 2 11 10 12 18 2 8 6 21 10 28 5 6 5 12 2 12 -3 0 1 10
9 21 8 12 12 28 9 35 -3 8 -1 14 4 14 9 0 29 71 41 145 8 44 6 516 -1 545 -18
70 -32 110 -39 110 -4 0 -7 3 -6 8 4 14 -13 52 -23 52 -6 0 -7 5 -4 10 3 6 1
10 -4 10 -6 0 -10 3 -9 8 2 10 -42 82 -51 82 -4 0 -14 11 -21 25 -7 13 -17 22
-22 19 -4 -3 -8 2 -8 10 0 9 -4 16 -9 16 -5 0 -26 16 -47 35 -21 20 -49 38
-61 41 -13 4 -23 10 -23 14 0 4 -10 11 -22 15 -13 4 -25 8 -28 9 -14 6 -68 30
-87 38 -11 6 -26 7 -32 4 -6 -4 -11 -3 -11 2 0 5 -6 9 -12 10 -7 1 -40 4 -73
9 -72 8 -166 9 -220 0 -76 -12 -105 -20 -105 -28 0 -4 -9 -6 -20 -4 -11 2 -20
-1 -20 -6 0 -6 -4 -7 -10 -4 -5 3 -10 2 -10 -4 0 -6 -7 -8 -15 -5 -8 4 -15 1
-15 -5 0 -6 -3 -10 -7 -9 -16 4 -83 -35 -119 -70 -21 -20 -32 -28 -24 -17 14
20 14 20 -7 1 -13 -10 -20 -23 -16 -29 3 -5 2 -7 -4 -4 -5 3 -25 -10 -44 -30
-19 -21 -27 -33 -19 -29 8 5 6 -1 -5 -12 -11 -12 -24 -27 -30 -34 -5 -7 -17
-22 -25 -33 -9 -11 -10 -16 -2 -11 7 4 1 -10 -13 -30 -14 -21 -23 -44 -21 -51
3 -7 1 -13 -5 -13 -6 0 -9 -6 -6 -14 3 -8 1 -16 -4 -18 -6 -2 -11 -22 -12 -46
-1 -23 -5 -42 -8 -42 -3 0 -4 -37 -3 -82 7 -201 -3 -317 -26 -303 -4 2 -19 -4
-33 -15 -14 -11 -30 -20 -36 -20 -6 0 -11 -4 -11 -9 0 -5 -9 -13 -20 -16 -11
-4 -17 -11 -14 -17 4 -6 2 -8 -4 -4 -6 3 -17 0 -25 -8 -17 -18 -24 -12 -43 33
-9 22 -11 38 -5 45 18 21 35 134 23 150 -14 19 -8 32 28 73 66 72 90 105 84
114 -3 5 -1 9 5 9 26 0 70 140 66 207 -3 50 -13 101 -21 114 -2 4 0 10 5 14
11 6 12 15 12 100 1 65 -1 75 -21 120 -16 34 -96 114 -116 116 -16 2 -33 6
-36 9 -9 7 -89 6 -94 -1z m-294 -203 c0 -2 -8 -10 -17 -17 -16 -13 -17 -12 -4
4 13 16 21 21 21 13z m1373 -478 c9 -1 17 -6 17 -10 0 -4 9 -8 20 -8 11 0 20
-4 20 -10 0 -5 9 -10 20 -10 11 0 20 -5 20 -11 0 -5 3 -9 8 -7 4 2 24 -13 44
-34 21 -21 34 -38 31 -38 -4 0 2 -7 13 -16 10 -8 12 -12 4 -8 -10 5 -8 -1 5
-15 22 -25 22 -65 0 -118 -7 -17 -11 -34 -7 -37 3 -3 0 -6 -6 -6 -6 0 -9 -7
-5 -17 5 -12 3 -14 -7 -8 -10 6 -12 4 -7 -8 3 -9 2 -19 -4 -22 -11 -7 -43 -76
-40 -88 1 -5 -3 -6 -9 -2 -9 6 -14 -8 -11 -28 1 -5 -3 -6 -9 -2 -9 6 -14 -8
-11 -28 1 -5 -3 -6 -9 -2 -5 3 -10 2 -10 -3 0 -5 -25 -34 -56 -63 -31 -30 -63
-61 -71 -71 -22 -23 -43 -12 -43 22 0 16 -5 32 -10 35 -6 4 -8 10 -5 15 3 5
-2 21 -11 36 -13 18 -14 28 -6 33 6 4 13 16 15 26 1 11 6 26 10 32 13 21 5 97
-12 117 -13 16 -13 18 -1 11 13 -8 13 -7 0 11 -20 26 -50 56 -50 49 0 -3 -9 4
-20 15 -12 12 -25 18 -30 15 -6 -4 -10 -1 -10 5 0 7 -7 10 -15 6 -8 -3 -15 -1
-15 5 0 6 -6 9 -14 6 -7 -3 -18 -1 -22 3 -5 5 -18 11 -29 13 -19 2 -77 52 -84
71 -1 5 2 12 8 15 6 4 22 22 36 41 14 19 25 30 25 26 0 -5 9 2 21 15 11 13 18
17 14 9 -4 -8 1 -6 9 4 9 11 16 17 16 13 0 -4 14 -1 30 8 17 9 30 13 30 10 0
-3 7 -2 16 3 13 7 135 7 207 0z m-3020 -517 c4 -1 -1 -18 -12 -40 -11 -21 -17
-41 -14 -45 4 -3 1 -6 -6 -6 -7 0 -9 -4 -6 -10 3 -5 1 -10 -5 -10 -6 0 -9 -3
-6 -8 5 -9 -15 -36 -31 -39 -24 -5 -102 -61 -95 -68 4 -5 1 -5 -6 -1 -8 5 -18
2 -25 -7 -28 -35 -44 -27 -83 39 -20 35 -41 64 -46 64 -4 0 -8 7 -8 16 0 8 -4
13 -9 10 -13 -8 -21 18 -10 35 5 8 9 10 9 5 0 -5 6 -3 13 3 8 6 17 8 20 4 4
-3 7 -2 7 3 0 5 8 11 18 12 20 2 56 10 60 12 1 2 7 4 12 5 6 1 11 3 13 5 1 1
20 4 42 6 23 3 54 8 69 12 24 7 65 8 99 3z m1161 -503 c-6 -9 37 -39 47 -33 4
3 10 -2 13 -11 3 -8 11 -12 17 -8 7 4 9 3 5 -4 -3 -5 0 -13 6 -15 8 -4 4 -8
-9 -12 -13 -4 -20 -12 -16 -18 4 -6 1 -7 -6 -2 -7 4 -23 -3 -38 -16 -15 -13
-23 -17 -19 -9 4 8 0 6 -9 -5 -9 -11 -18 -19 -20 -17 -12 6 -36 1 -31 -6 3 -5
-1 -9 -9 -10 -8 -1 -22 -3 -30 -4 -8 -1 -15 -4 -15 -8 0 -3 -14 -7 -32 -8 -18
-2 -35 -6 -38 -10 -3 -4 -14 -8 -25 -9 -11 -1 -42 -5 -70 -8 -81 -11 -219 -6
-242 8 -7 5 -17 6 -22 2 -5 -3 -13 0 -16 6 -4 5 -13 8 -21 5 -8 -3 -14 -1 -14
5 0 6 -7 8 -16 5 -8 -3 -13 -2 -10 3 3 5 -1 12 -10 15 -10 4 -13 2 -7 -7 4 -6
-17 12 -46 41 -29 29 -51 55 -48 58 2 3 15 7 27 9 13 3 27 10 30 16 4 6 11 10
16 10 17 -1 49 12 68 28 16 13 18 13 11 1 -4 -8 4 -4 20 10 16 14 24 18 20 10
-7 -12 -6 -13 7 -3 12 11 20 8 47 -18 18 -17 35 -28 38 -25 4 3 15 -1 25 -11
10 -9 18 -13 18 -8 0 4 6 3 13 -3 12 -10 148 -9 177 1 8 3 25 8 38 12 12 4 22
11 22 16 0 5 7 6 15 3 8 -4 15 -1 15 5 0 6 7 11 15 11 9 0 18 7 21 15 4 8 10
13 14 10 5 -3 15 1 22 8 11 12 16 12 34 -2 12 -9 20 -19 18 -23z m-2084 -122
c5 -13 19 -34 32 -47 13 -12 17 -18 9 -14 -9 5 -7 -2 5 -17 10 -14 22 -24 27
-21 4 2 7 -4 7 -13 0 -10 3 -14 7 -11 3 4 13 -2 20 -13 8 -11 19 -18 24 -15 5
4 9 -1 9 -9 0 -14 6 -18 26 -15 4 0 10 -4 13 -9 3 -6 13 -12 21 -14 8 -2 21
-9 29 -16 7 -7 19 -11 26 -8 14 5 57 -39 48 -48 -4 -3 -1 -6 5 -6 7 0 3 -14
-9 -35 -11 -19 -18 -39 -15 -44 4 -5 2 -12 -4 -16 -9 -5 -8 -32 4 -80 2 -11 5
-26 5 -33 1 -7 5 -11 9 -8 4 2 8 -4 8 -15 0 -10 -3 -19 -6 -19 -4 0 -22 -13
-40 -30 -18 -16 -38 -30 -42 -30 -5 0 -6 -5 -3 -10 4 -6 3 -10 -2 -9 -20 3
-34 -2 -28 -11 4 -6 3 -9 -2 -8 -4 1 -19 -4 -33 -12 -14 -8 -34 -15 -45 -17
-10 -2 -22 -7 -25 -11 -5 -7 -14 -10 -60 -19 -44 -9 -174 -10 -191 -1 -9 4
-30 9 -47 10 -17 1 -28 6 -26 10 3 4 -3 8 -12 8 -9 0 -32 11 -49 25 -18 13
-36 21 -40 17 -5 -4 -5 -1 -1 6 4 7 1 12 -9 12 -9 0 -14 4 -11 9 3 5 -5 20
-18 34 -13 14 -21 28 -18 31 3 3 1 6 -5 6 -5 0 -10 6 -11 13 -1 6 -3 28 -6 47
-2 22 3 50 15 74 10 21 16 43 13 47 -3 5 0 9 5 9 6 0 11 7 11 15 0 8 5 15 12
15 6 0 9 3 5 6 -3 3 1 13 9 22 8 10 13 20 12 24 -2 4 7 15 20 23 12 9 21 19
19 23 -1 4 12 21 30 39 18 17 33 30 33 27 0 -2 16 12 36 31 20 19 40 35 45 35
6 0 7 5 3 12 -4 6 -3 8 3 5 5 -4 19 3 31 13 12 11 24 20 28 20 4 0 13 8 21 18
8 9 11 11 7 3 -5 -11 -1 -10 17 2 31 22 38 21 49 -7z"/>
</g>
</svg>
